<?xml version="1.0" encoding="UTF-8" standalone="no"?>
<!-- Created with Inkscape (http://www.inkscape.org/) -->

<svg
   xmlns:dc="http://purl.org/dc/elements/1.1/"
   xmlns:cc="http://creativecommons.org/ns#"
   xmlns:rdf="http://www.w3.org/1999/02/22-rdf-syntax-ns#"
   xmlns:svg="http://www.w3.org/2000/svg"
   xmlns="http://www.w3.org/2000/svg"
   xmlns:sodipodi="http://sodipodi.sourceforge.net/DTD/sodipodi-0.dtd"
   xmlns:inkscape="http://www.inkscape.org/namespaces/inkscape"
   id="svg26590"
   version="1.1"
   inkscape:version="0.91 r13725"
   width="348.75"
   height="692.8125"
   viewBox="0 0 348.75 692.8125"
   sodipodi:docname="BottleHead.svg">
  <metadata
     id="metadata26596">
    <rdf:RDF>
      <cc:Work
         rdf:about="">
        <dc:format>image/svg+xml</dc:format>
        <dc:type
           rdf:resource="http://purl.org/dc/dcmitype/StillImage" />
        <dc:title></dc:title>
      </cc:Work>
    </rdf:RDF>
  </metadata>
  <defs
     id="defs26594" />
  <sodipodi:namedview
     pagecolor="#ffffff"
     bordercolor="#666666"
     borderopacity="1"
     objecttolerance="10"
     gridtolerance="10"
     guidetolerance="10"
     inkscape:pageopacity="0"
     inkscape:pageshadow="2"
     inkscape:window-width="1600"
     inkscape:window-height="837"
     id="namedview26592"
     showgrid="false"
     inkscape:zoom="0.96707262"
     inkscape:cx="174.375"
     inkscape:cy="346.40625"
     inkscape:window-x="-8"
     inkscape:window-y="-8"
     inkscape:window-maximized="1"
     inkscape:current-layer="svg26590" />
  <path
     style="fill:#ffffff"
     d="m 159.375,688.10905 c -25.03097,-1.70451 -63.427753,-11.79276 -75.786398,-19.91188 -1.887794,-1.2402 -4.997839,-3.27233 -6.911212,-4.51585 -1.913372,-1.24352 -3.887739,-3.10787 -4.387481,-4.143 C 65.595534,645.672 61.990268,629.64925 61.384458,611.07163 60.99316,599.0722 60.781984,597.87504 58.139212,592.67441 c -1.554691,-3.05944 -2.836093,-5.93229 -2.847558,-6.38413 -0.06165,-2.42952 -3.741685,-5.1485 -8.722786,-6.44479 C 38.74876,577.81037 31.875209,573.91097 23.166429,566.56917 10.054034,555.51498 5.4030197,549.56158 3.6259766,541.55697 1.7060035,532.90855 2.0421852,499.65982 4.1488551,489.84375 c 0.8852837,-4.125 2.0465446,-9.82031 2.5805799,-12.65625 1.1239044,-5.96838 6.590083,-25.46891 12.613911,-45 5.612141,-18.19628 5.476647,-17.70189 8.222048,-30 2.71556,-12.16444 3.527574,-19.01442 3.77854,-31.875 0.161414,-8.27155 1.52607,-16.02178 3.50597,-19.91131 0.456366,-0.89653 1.896574,-5.32622 3.200464,-9.84375 2.635954,-9.13267 17.422576,-38.7536 24.115679,-48.30913 11.300413,-16.13323 23.267195,-29.67718 32.082506,-36.31081 2.398209,-1.80469 8.224157,-7.20943 12.946547,-12.01053 9.88153,-10.04626 14.92333,-13.99779 22.92589,-17.96827 3.13688,-1.55638 5.99569,-3.30268 6.35292,-3.88067 0.35722,-0.578 0.73325,-3.63747 0.83561,-6.79885 0.23062,-7.12188 0.78609,-8.16286 8.05595,-15.09713 6.65706,-6.34975 7.62972,-8.85071 9.30765,-23.93205 1.08111,-9.71709 4.93515,-34.49831 7.21724,-46.40625 1.79976,-9.39117 3.0318,-15.68053 4.1321,-21.09375 0.47162,-2.32031 1.27039,-7.09583 1.77503,-10.612256 1.79567,-12.512704 3.89129,-23.476854 5.21104,-27.263771 0.73654,-2.113498 1.34532,-4.703307 1.35283,-5.75513 0.008,-1.051825 0.58326,-4.215887 1.27947,-7.03125 0.69621,-2.815364 1.98799,-8.704781 2.87062,-13.087593 0.88262,-4.382813 2.21144,-10.115204 2.95292,-12.738649 0.74146,-2.623444 1.34813,-5.651383 1.34813,-6.728753 0,-2.694861 5.99264,-13.966093 8.62753,-16.2270655 5.39816,-4.6320956 9.32681,-5.9094712 19.43996,-6.3207772 14.76335,-0.6004316 28.88353,2.8463274 43.98209,10.7361057 12.42614,6.493296 16.34891,9.232327 22.40354,15.643055 l 4.92188,5.211346 -0.007,7.321743 c -0.0113,12.158934 -1.01017,17.096559 -8.40277,41.540495 -5.94485,19.65694 -9.21344,30.97075 -11.78177,40.78125 -1.34988,5.15625 -4.53076,15.61226 -7.06864,23.23559 -2.53788,7.62332 -4.61432,14.42384 -4.61432,15.11227 0,0.68843 -2.97153,10.27148 -6.6034,21.29566 -3.63187,11.02419 -7.22328,22.57523 -7.98092,25.66898 l -1.37752,5.625 4.07118,3.75 c 4.83719,4.45558 7.12666,8.09529 10.85494,17.25674 3.52009,8.64986 6.25122,12.56325 14.64438,20.98368 3.70892,3.72097 8.26394,9.14223 10.12224,12.04722 1.8583,2.90499 3.9236,5.85681 4.58954,6.55959 2.51937,2.6587 7.97396,10.25079 16.15966,22.49215 1.25115,1.87103 4.33138,7.35541 6.84496,12.1875 2.51358,4.83209 5.26336,10.05124 6.11061,11.59812 2.95885,5.4021 7.14081,15.0224 7.74314,17.8125 0.33393,1.54687 2.00398,6.60937 3.71122,11.25 5.98376,16.26513 7.53562,21.75585 9.44734,33.42615 1.56066,9.52718 1.79112,32.39989 0.41418,41.1051 -3.49043,22.06691 -3.53233,22.79576 -2.23697,38.90625 0.45605,5.67187 0.52642,17.0625 0.15639,25.3125 -0.74234,16.55104 0.003,24.07273 3.48375,35.15625 1.21448,3.86719 2.88805,9.98437 3.71904,13.59375 0.83099,3.60937 2.71479,10.35937 4.18622,15 1.47144,4.64062 2.97261,10.33594 3.33594,12.65625 0.36332,2.32031 1.53378,7.38281 2.60101,11.25 1.47219,5.33464 1.95928,9.97205 2.01861,19.21875 0.0765,11.91807 0.01,12.33258 -3.02071,18.75 -3.51461,7.44283 -7.53369,12.00302 -15.65108,17.75828 -8.2375,5.8404 -25.98829,10.83547 -38.50564,10.83547 l -6.95135,0 -2.58401,3.52219 c -2.80463,3.82293 -10.01256,10.57275 -15.24025,14.27163 -17.48422,12.37111 -20.97113,14.24669 -35.15625,18.91018 -23.91193,7.86127 -38.97367,9.44468 -69.84375,7.34255 z m 22.29617,-10.75848 c 20.85559,-1.31222 50.30342,-8.27355 57.58775,-13.61345 1.39709,-1.02416 2.9162,-1.86212 3.37581,-1.86212 1.51265,0 12.86263,-9.0778 15.68935,-12.54847 1.52332,-1.87033 3.92983,-4.82479 5.3478,-6.56546 1.41796,-1.74066 2.57812,-3.5606 2.57812,-4.0443 0,-0.4837 -2.95287,-3.56226 -6.56194,-6.84125 -7.95518,-7.22764 -13.46722,-15.42492 -15.44507,-22.96927 -2.15549,-8.22197 -4.23299,-21.73457 -4.25202,-27.65625 -0.0203,-6.33812 -0.70825,-9.08989 -2.43821,-9.75374 -2.189,-0.83999 -5.91174,1.43004 -8.8114,5.37296 -8.74373,11.88963 -34.02627,34.55627 -40.52173,36.32909 -6.81978,1.86133 -19.67122,4.40851 -25.56338,5.06671 -3.09375,0.34559 -7.73437,1.1944 -10.3125,1.88626 -2.57812,0.69185 -8.0625,1.53083 -12.1875,1.86438 -4.125,0.33355 -10.50895,0.98421 -14.18656,1.44591 -12.05228,1.51305 -28.518899,-0.1743 -36.604375,-3.75089 -2.360139,-1.044 -5.115916,-1.89818 -6.123948,-1.89818 -1.008033,0 -3.591124,-1.65698 -5.740202,-3.68217 -7.71238,-7.2678 -10.942125,-9.6421 -12.370467,-9.094 -0.924699,0.35484 -1.256891,1.297 -0.944032,2.67746 0.265498,1.17148 0.956873,5.7159 1.536391,10.09871 2.002182,15.14223 2.409735,17.36444 4.126487,22.5 0.948018,2.83594 2.329315,6.10095 3.069549,7.25558 1.89789,2.96036 12.532919,10.35944 17.299256,12.03556 2.200221,0.77373 5.476963,2.36352 7.281651,3.53286 5.23761,3.39368 21.01691,8.58748 36.36476,11.96954 4.99476,1.10064 33.17556,3.43635 36.76024,3.04679 1.28906,-0.14009 6.25984,-0.5011 11.04617,-0.80225 z m 118.79758,-46.84499 c 15.61297,-2.84542 19.92417,-4.87396 28.19263,-13.26544 7.93816,-8.05627 9.0859,-11.72368 7.89853,-25.23835 -0.47352,-5.38965 -1.25025,-10.541 -1.72606,-11.44745 -0.47581,-0.90645 -2.15335,-5.44496 -3.72787,-10.08559 -1.57453,-4.64062 -3.9775,-11.60156 -5.33994,-15.46875 -1.36243,-3.86719 -3.27236,-11.88281 -4.24428,-17.8125 -0.97192,-5.92969 -2.55247,-15.09717 -3.51234,-20.37219 -1.47287,-8.09433 -1.61779,-11.45903 -0.92866,-21.5625 0.61203,-8.97317 0.43903,-16.39645 -0.69073,-29.63867 -1.47882,-17.33366 -1.93386,-36.47575 -0.90661,-38.13787 1.18585,-1.91876 0.53785,-39.9317 -0.79866,-46.85127 -2.21072,-11.44558 -5.96323,-25.29827 -8.88934,-32.81564 -5.64305,-14.49745 -8.60792,-22.42056 -8.60792,-23.00323 0,-1.228 -7.91667,-18.80182 -9.54669,-21.19222 -0.93006,-1.36391 -2.01018,-3.31666 -2.40028,-4.33944 -1.02195,-2.6794 -11.19158,-18.08049 -16.42803,-24.87896 -2.45782,-3.19096 -5.89337,-7.91113 -7.63458,-10.48926 -3.5833,-5.30563 -11.80088,-12.70869 -16.57528,-14.93235 -1.75801,-0.81879 -4.64789,-2.55221 -6.42195,-3.85204 -1.77406,-1.29983 -4.30531,-2.58152 -5.625,-2.84818 -1.31969,-0.26666 -4.50881,-1.36003 -7.08694,-2.42971 -2.57812,-1.06967 -10.59375,-3.39446 -17.8125,-5.1662 -7.21875,-1.77174 -15.23437,-3.8324 -17.8125,-4.57923 -6.4656,-1.87298 -31.86532,-4.62979 -42.65625,-4.62979 -8.274,0 -9.14546,0.18302 -12.27599,2.57812 -1.85336,1.41797 -3.70141,2.57813 -4.10679,2.57813 -0.99944,0 -8.83523,5.68034 -17.36531,12.58849 -8.42883,6.82615 -27.88982,26.32422 -34.981183,35.04784 -7.982866,9.82032 -23.443351,33.68823 -25.860641,39.92369 -0.82711,2.13354 -2.389808,5.34832 -3.472664,7.14395 -2.082502,3.45327 -7.992402,19.44434 -9.522024,25.76478 -0.49915,2.0625 -1.221635,4.48828 -1.605523,5.39063 -1.093602,2.57055 3.585947,2.11205 16.193456,-1.5866 20.289291,-5.95225 48.575309,-6.76545 70.496669,-2.02672 5.92969,1.28183 13.94531,2.99333 17.8125,3.80334 10.84297,2.27114 18.76776,4.31868 23.90625,6.17671 2.57812,0.93221 7.42969,2.54648 10.78125,3.58725 3.35156,1.04077 8.83594,3.00768 12.1875,4.37091 3.35156,1.36323 9.57951,3.68262 13.83987,5.15419 4.26037,1.47157 8.90099,3.45652 10.3125,4.41099 1.41151,0.95447 4.04294,2.43072 5.84763,3.28056 10.32074,4.8601 19.86761,9.15749 20.34383,9.15749 1.56417,0 13.90032,8.61983 20.66939,14.44265 l 7.73196,6.6511 0.0104,6.09375 c 0.006,3.35156 -1.03899,10.73437 -2.32162,16.40625 -2.56504,11.3427 -8.55821,43.36521 -9.91338,52.96875 -0.47294,3.35156 -1.52036,9.46875 -2.32759,13.59375 -0.80725,4.125 -2.09851,10.875 -2.86948,15 -0.77098,4.125 -1.84185,9.39844 -2.37974,11.71875 -2.11791,9.13626 -3.54909,30.26409 -2.66762,39.38108 0.47327,4.8951 0.87193,11.89591 0.8859,15.55739 0.0261,6.83543 3.68577,23.85875 6.10385,28.39258 2.37944,4.46135 10.60078,12.06027 15.80048,14.60424 8.66283,4.23833 19.32398,5.19794 32.02732,2.88279 z M 127.03125,615.451 c 25.69152,-2.63628 29.17255,-3.13626 38.4375,-5.52092 5.15625,-1.32714 10.46522,-2.41682 11.79771,-2.42153 1.33248,-0.005 4.88285,-1.73189 7.88971,-3.8382 3.00685,-2.10631 7.74788,-5.11689 10.53561,-6.6902 5.30713,-2.99516 11.85517,-9.35787 17.69003,-17.18937 1.89913,-2.54899 5.45356,-6.7439 7.89874,-9.32203 5.36618,-5.65792 8.14954,-10.05358 14.54398,-22.96875 3.86556,-7.80743 5.11051,-11.49219 6.01824,-17.8125 0.62945,-4.38281 2.55793,-16.82812 4.2855,-27.65625 2.82525,-17.70827 3.1135,-21.28973 2.86727,-35.625 -0.29725,-17.30511 -1.51932,-24.60602 -5.60002,-33.45555 -1.35191,-2.93181 -2.45802,-5.77274 -2.45802,-6.31319 0,-1.55486 -5.2224,-11.92369 -7.39959,-14.69154 -1.08647,-1.38123 -1.97541,-3.02952 -1.97541,-3.66286 0,-2.47647 -9.37621,-9.70214 -18.75,-14.44949 -5.41406,-2.74195 -10.89844,-5.56375 -12.1875,-6.27067 -1.28906,-0.70692 -3.40024,-1.29153 -4.69151,-1.29913 -1.29127,-0.007 -5.72096,-1.64262 -9.84375,-3.63339 -4.12279,-1.99076 -9.18349,-4.14601 -11.24599,-4.78946 -4.1367,-1.29053 -11.33603,-3.7544 -16.40625,-5.61482 -5.71751,-2.09791 -20.04616,-5.61536 -22.97494,-5.63997 -1.55028,-0.013 -4.29246,-0.46956 -6.09375,-1.01452 -1.80128,-0.54496 -6.65006,-1.37295 -10.77506,-1.83999 -4.125,-0.46702 -9.82031,-1.33575 -12.65625,-1.9305 -11.247966,-2.35888 -41.837308,0.36231 -57.464145,5.11194 C 43.411869,368.4515 37.5,372.55259 37.5,374.52537 c 0,1.80392 3.579348,7.70854 5.004353,8.25536 0.64237,0.24651 1.983373,-0.14806 2.980008,-0.87682 3.863232,-2.82487 14.482726,-5.21683 20.209864,-4.55213 6.176655,0.71688 16.018088,5.0135 19.85265,8.66738 3.195471,3.0449 3.232424,2.38515 0.192084,-3.42938 -3.12474,-5.97596 -4.232919,-6.83176 -12.848334,-9.92219 -8.09924,-2.90527 -9.653742,-5.16759 -3.550793,-5.16759 6.453991,0 13.901531,3.48769 19.797235,9.27107 4.892683,4.79946 5.629567,6.0813 8.413296,14.63518 2.280721,7.00823 3.157627,11.62343 3.473517,18.28125 0.48611,10.24544 -1.188333,18.06098 -3.987042,18.60974 -1.5162,0.29728 -1.613935,-0.2141 -1.029029,-5.38401 0.62145,-5.49283 0.502547,-5.95606 -3.092307,-12.04723 -2.056233,-3.48411 -4.037006,-7.55862 -4.401718,-9.05445 -0.799755,-3.28011 -12.519769,-15.8741 -16.110283,-17.31165 -4.469529,-1.78948 -13.50434,-2.77603 -16.572193,-1.8096 -4.831852,1.52213 -7.437762,2.9 -10.193803,5.38995 -2.640263,2.38535 -2.643427,2.4027 -2.401575,13.16975 0.157086,6.99337 -0.14924,11.50071 -0.87188,12.82899 -2.614988,4.80663 -0.05233,5.52148 4.101177,1.14403 3.674174,-3.87228 14.528741,-9.28552 18.619224,-9.28552 6.835089,0 21.165549,5.66539 21.165549,8.36757 0,0.4035 1.061565,1.87909 2.359034,3.27908 2.513743,2.71237 2.357004,4.29085 -0.426072,4.29085 -1.699825,0 -10.305115,-3.50379 -15.385416,-6.26443 -1.700516,-0.92407 -5.199843,-1.46784 -9.629689,-1.49638 -6.394725,-0.0412 -7.279647,0.19642 -10.922547,2.93308 -2.180233,1.63786 -5.546091,3.82458 -7.479685,4.85938 -1.933594,1.0348 -3.515625,2.29476 -3.515625,2.7999 0,1.51713 3.801573,1.03838 6.920593,-0.87153 4.712088,-2.88541 16.161485,-5.98954 19.590284,-5.31126 4.211376,0.83308 20.441267,9.10576 21.64086,11.03073 0.745293,1.19597 0.597758,2.01718 -0.600223,3.34094 -1.156301,1.2777 -1.307554,2.03603 -0.555994,2.7876 0.751561,0.75155 0.262166,1.43072 -1.79898,2.49659 -3.111711,1.60912 -5.82154,4.0332 -5.82154,5.20766 0,0.41434 1.160156,0.75962 2.578125,0.7673 2.762793,0.0149 8.19535,-4.98277 9.696348,-8.92021 0.671346,-1.76108 3.663027,-3.11352 3.663027,-1.65592 0,0.24939 -2.690503,5.6283 -5.978887,11.95312 -3.949206,7.59584 -7.0225,15.15964 -9.05309,22.28093 -1.690813,5.92969 -3.477803,11.30395 -3.971089,11.9428 C 76.383837,481.27781 75,480.36643 75,478.06967 75,476.66414 74.34587,476.25 72.125868,476.25 c -4.096945,0 -5.729338,1.15576 -8.269124,5.85466 -2.028667,3.75327 -2.115979,4.38754 -0.9375,6.81032 0.723921,1.48827 3.167244,3.65507 5.516325,4.89199 5.886234,3.09946 6.039372,3.3414 6.564431,10.37057 0.428433,5.73561 0.693337,6.3826 3.079925,7.52216 2.280749,1.08902 2.990239,1.02541 5.606709,-0.50269 1.945001,-1.13595 3.33073,-2.90864 3.951325,-5.05473 1.411263,-4.88031 3.694074,-7.85849 7.355391,-9.59589 5.7146,-2.71176 13.99091,-1.38617 15.2278,2.43898 0.29196,0.9029 1.34472,2.0772 2.33947,2.60957 2.43025,1.30063 5.53473,-0.40737 9.23936,-5.08322 4.02959,-5.08603 4.09458,-11.7516 0.16742,-17.17289 -3.10275,-4.28321 -6.28633,-5.32603 -13.38492,-4.38437 -2.48599,0.32978 -4.51352,0.22884 -4.50563,-0.22431 0.0497,-2.85385 5.02243,-5.07215 11.22946,-5.00943 4.4904,0.0454 6.85806,1.54894 11.84231,7.52038 l 4.25911,5.10265 -0.78199,9.84375 c -0.4301,5.41406 -0.77387,16.38281 -0.76395,24.375 0.0156,12.52105 0.29914,15.30939 2.04997,20.15625 2.30436,6.37916 1.44788,9.09738 -1.6658,5.28677 l -1.80846,-2.21324 0,2.33388 c 0,2.32676 2.36516,3.88506 7.02781,4.63031 2.53323,0.40489 6.02651,9.1767 6.08303,15.27478 0.0239,2.57812 0.65464,7.21875 1.40166,10.3125 2.195,9.09053 1.65556,14.1509 -1.12432,10.54687 -1.6961,-2.19896 -3.95346,-9.02402 -4.87287,-14.73305 -0.5049,-3.13511 -1.78364,-6.91589 -2.84165,-8.40174 -1.05801,-1.48584 -1.92366,-3.32955 -1.92366,-4.09712 0,-2.35827 -2.74203,-2.61268 -7.04279,-0.65345 -2.25739,1.02835 -5.11613,1.86974 -6.35276,1.86974 -1.23663,0 -4.74025,0.87803 -7.78581,1.95119 -4.46561,1.57353 -7.03441,1.86579 -13.271765,1.50999 C 92.13496,560.01678 90,560.20277 90,561.00999 c 0,2.07251 2.232585,3.36501 5.8125,3.36501 2.876428,0 3.5625,0.34342 3.5625,1.78328 0,2.21199 -4.626094,3.99463 -8.405041,3.23883 -1.478232,-0.29564 -4.78886,0.16036 -7.356949,1.01335 -4.237273,1.40739 -4.868189,2.00223 -6.819528,6.42958 -2.062265,4.67903 -3.735297,13.12688 -3.728436,18.82648 0.0032,2.62461 -0.04683,2.65245 -1.8434,1.02657 -1.015655,-0.91915 -1.846646,-2.67373 -1.846646,-3.89906 0,-1.22533 -0.68962,-2.49251 -1.53249,-2.81595 -2.838842,-1.08937 -9.044272,-17.1634 -11.060406,-28.64996 -0.469648,-2.67573 -0.304977,-3.51562 0.689283,-3.51562 1.637508,0 4.130979,5.79011 4.703526,10.9221 0.498386,4.46725 4.86991,16.07042 6.82183,18.10692 1.146039,1.19569 1.315757,1.09749 1.315757,-0.76135 0,-3.23467 2.903876,-11.5246 5.090028,-14.53092 1.067672,-1.46823 3.081453,-3.26172 4.475068,-3.98555 2.398082,-1.24554 2.463439,-1.45413 1.219795,-3.89301 -0.722728,-1.41732 -1.533312,-3.31522 -1.801297,-4.21757 -0.277462,-0.93424 -1.408113,-1.64657 -2.626046,-1.65444 -2.66028,-0.0172 -6.658186,-2.01694 -6.49207,-3.24732 0.230379,-1.70637 14.156019,-1.41332 18.806916,0.39577 6.855065,2.66647 10.459106,2.99226 16.035876,1.44961 2.82451,-0.78132 6.51682,-1.68301 8.20512,-2.00376 7.16024,-1.36036 3.1611,-2.20291 -9.80901,-2.0666 -11.289771,0.11865 -14.561011,-0.15351 -17.498342,-1.45587 -3.555747,-1.57655 -19.170111,-3.86893 -20.089633,-2.94941 -0.259101,0.25909 0.08924,1.14625 0.774092,1.97145 2.06913,2.49315 -0.593892,3.17934 -5.705071,1.47005 -4.579541,-1.5315 -5.545087,-2.81391 -5.572624,-7.40143 -0.0089,-1.4872 0.767413,-2.40749 2.565323,-3.04099 1.417969,-0.49964 5.02339,-2.21596 8.012047,-3.81406 5.381108,-2.87741 5.531456,-2.89986 15.46875,-2.3105 12.367395,0.73348 17.3326,1.96148 22.419358,5.54476 2.86012,2.01476 5.3653,2.89803 9.09733,3.20751 7.18692,0.596 9.76696,-0.22133 10.50478,-3.32779 0.33492,-1.41012 1.24462,-3.29566 2.02157,-4.19009 1.46614,-1.68788 1.4139,-2.94728 -0.69103,-16.65501 -0.51465,-3.35156 -0.94421,-7.88672 -0.95458,-10.07813 -0.0211,-4.45849 -0.0563,-4.48515 -3.58103,-2.70784 -1.39237,0.70209 -5.5207,1.51547 -9.17407,1.80751 -5.44351,0.43514 -7.10934,0.22473 -9.2289,-1.16567 -5.649559,-3.70607 -8.91339,-0.14496 -10.023465,10.93644 -0.959641,9.57968 -1.245969,10.58269 -3.021024,10.58269 -1.311262,0 -2.490361,-3.82841 -2.490361,-8.08594 0,-2.43003 -0.0874,-2.49393 -2.267075,-1.65751 -0.988229,0.37922 -1.482925,1.7444 -1.482925,4.09232 0,3.63319 -3.158254,8.94 -4.739045,7.96302 -0.461397,-0.28516 -0.594768,-2.29963 -0.296381,-4.47661 0.493444,-3.60006 0.206281,-4.36503 -3.174282,-8.45598 -2.044243,-2.47382 -4.270758,-6.26414 -4.947811,-8.42295 -1.303412,-4.15597 -2.438803,-5.98503 -3.226344,-5.19748 -1.892894,1.89288 -6.528675,17.63 -7.41453,25.17015 -0.814034,6.9288 -1.382302,8.96168 -2.568019,9.18664 -2.411069,0.45744 -2.905469,-2.5642 -1.420069,-8.67908 0.755573,-3.11043 1.884466,-7.97564 2.50865,-10.81158 0.624183,-2.83594 2.173028,-8.20448 3.441875,-11.93009 l 2.306997,-6.77384 -2.423021,-5.29257 c -2.819724,-6.1591 -2.978934,-8.72547 -0.916756,-14.77764 1.273271,-3.73683 2.179621,-4.75798 5.859375,-6.60152 2.394211,-1.19947 5.935142,-2.69305 7.868736,-3.31906 1.933594,-0.626 3.515625,-1.73908 3.515625,-2.4735 0,-1.15618 4.041544,-13.36601 6.150607,-18.58148 0.639994,-1.58263 0.415944,-1.70538 -2.012084,-1.10238 -1.50275,0.37322 -3.635027,1.52094 -4.738394,2.55049 -1.189144,1.1096 -4.475304,2.29488 -8.069318,2.91051 -5.89432,1.00965 -6.190959,0.96228 -10.65013,-1.70054 -2.522812,-1.50651 -5.744447,-3.3208 -7.159189,-4.03175 C 46.599164,446.34336 41.25,440.02116 41.25,437.44135 c 0,-2.51088 2.082844,-3.69584 5.053947,-2.87527 1.464614,0.4045 1.128484,-0.17865 -1.296363,-2.24906 -4.598261,-3.92614 -6.573734,-2.03163 -9.082348,8.71014 -2.524927,10.81161 -2.976118,15.12044 -3.044296,29.07265 -0.09517,19.47677 2.133399,31.65156 8.848124,48.33769 C 46.954202,531.422 52.5,549.73447 52.5,554.00361 c 0,7.62217 3.063208,21.99066 5.977272,28.03738 5.037655,10.4532 8.194885,15.43093 12.4522,19.63231 C 73.168263,603.88267 75,606.02273 75,606.42899 c 0,0.92156 7.695218,4.82101 9.513833,4.82101 0.736843,0 3.010947,0.90166 5.053565,2.00369 6.905365,3.72558 16.873012,4.31019 37.463852,2.19731 z M 90.569052,473.82957 c -1.143469,-2.97983 -0.515287,-8.55294 1.778786,-15.78105 1.291311,-4.06863 2.795578,-7.937 3.342815,-8.59638 1.262034,-1.52065 8.282167,-14.71324 12.554347,-23.59277 1.94247,-4.03732 3.85071,-6.79687 4.70008,-6.79687 0.78646,0 1.42992,0.13579 1.42992,0.30174 0,0.84602 -3.17326,9.67114 -3.76812,10.47951 -0.37945,0.51562 -1.01113,1.99219 -1.40374,3.28125 -0.39262,1.28906 -2.04183,4.45312 -3.66491,7.03125 -5.2987,8.41649 -10.009314,19.22195 -10.958861,25.13802 -1.410852,8.79022 -1.732242,10.01823 -2.621928,10.01823 -0.450636,0 -1.07541,-0.66731 -1.388389,-1.48293 z m 70.931778,-7.87509 c -9.36273,-1.04886 -15.64814,-2.53729 -22.48337,-5.32425 -4.73716,-1.93151 -6.98417,-3.6693 -12.02028,-9.29627 -5.50313,-6.14878 -6.77522,-8.83396 -4.18504,-8.83396 0.45457,0 3.93963,2.88654 7.74459,6.41454 3.80494,3.528 9.24101,7.51347 12.08014,8.85658 9.07468,4.29301 28.24664,5.65494 41.11313,2.92057 8.3349,-1.77132 21.16029,-1.16951 23.4375,1.09976 2.35193,2.34373 -0.0326,2.88028 -15.76232,3.54666 -8.08853,0.34266 -16.60487,0.79243 -18.92518,0.99949 -2.32031,0.20705 -7.26994,0.0347 -10.99917,-0.38312 z m 6.43997,-9.29285 c -1.07894,-0.68357 -1.07894,-0.88881 0,-1.31788 0.70287,-0.27953 -0.0683,-0.54153 -1.71359,-0.58223 -1.64535,-0.0407 -3.28478,0.40044 -3.64318,0.98032 -1.22542,1.98278 -12.51633,0.37514 -20.35551,-2.89829 -5.8457,-2.441 -8.44674,-4.23265 -13.03646,-8.97982 -4.20238,-4.34651 -6.85298,-6.25951 -9.92443,-7.16268 -3.86,-1.13505 -5.85159,-2.92959 -4.61911,-4.16207 0.27784,-0.27784 4.65418,-0.86756 9.7252,-1.31051 5.07449,-0.44325 10.90611,-1.55365 12.97003,-2.46964 2.80483,-1.24482 6.23107,-1.66912 13.59375,-1.68341 9.56444,-0.0186 10.10976,0.0962 19.21875,4.04652 5.15625,2.2361 11.48437,5.05071 14.0625,6.25467 2.57812,1.20396 5.95312,2.45797 7.5,2.78669 1.54687,0.32872 4.28906,1.15269 6.09375,1.83105 1.80469,0.67836 6.65625,1.6719 10.78125,2.20787 6.80036,0.88359 15.1398,3.74801 11.71875,4.02515 -0.77344,0.0626 -1.82813,0.21193 -2.34375,0.33173 -0.51563,0.11979 -2.31663,0.28207 -4.00223,0.36061 -2.77815,0.12944 -3.00974,0.36197 -2.4765,2.48654 0.60198,2.39847 -1.01441,3.25589 -2.94315,1.5612 -2.35625,-2.07031 -10.05796,-4.06538 -13.35955,-3.46068 -4.77275,0.87415 -17.12778,5.15378 -19.3803,6.71309 -2.08324,1.44215 -5.94494,1.65902 -7.86622,0.44177 z m 14.66015,-7.69019 c 6.60792,-1.23501 8.12415,-2.39187 4.23427,-3.23069 -1.43906,-0.31032 -4.09303,-1.14173 -5.89772,-1.84755 -1.80469,-0.70583 -8.91084,-3.05289 -15.79145,-5.21569 -11.83782,-3.72101 -12.9184,-3.89832 -20.10503,-3.29898 -9.69936,0.8089 -11.54111,2.09701 -6.59928,4.61549 1.97423,1.00611 4.77773,2.82167 6.22998,4.03457 3.31355,2.76742 10.4624,4.8743 19.98427,5.88969 7.80339,0.83213 8.67163,0.78632 17.94496,-0.94684 z M 140.625,445.78125 c -3.20927,-1.83458 -5.64189,-1.85707 -3.22606,-0.0298 1.00089,0.75703 2.66356,1.3749 3.69481,1.37302 1.65742,-0.003 1.60303,-0.15888 -0.46875,-1.34321 z m 52.5,-14.49459 c -1.28906,-0.41406 -5.08594,-1.51184 -8.4375,-2.43954 -3.35156,-0.92769 -8.34209,-2.65659 -11.09006,-3.84199 -2.74798,-1.18542 -8.55722,-2.77683 -12.90943,-3.5365 -4.35221,-0.75966 -8.22105,-1.55474 -8.59743,-1.76683 -1.26401,-0.71228 -14.06205,1.08801 -18.53846,2.60779 -2.43747,0.82754 -5.48604,2.33391 -6.77461,3.34751 -5.59569,4.40157 -6.73242,-0.17841 -1.68496,-6.78886 4.18537,-5.48143 8.70424,-6.84564 22.5637,-6.81183 9.52847,0.0232 10.63324,0.21839 14.53125,2.56683 2.32031,1.39793 4.79746,2.54676 5.50477,2.55296 0.70731,0.007 5.55887,2.07901 10.78125,4.60621 5.22238,2.5272 12.55382,5.31484 16.2921,6.19474 4.4169,1.03963 6.79688,2.05688 6.79688,2.90509 0,1.45311 -4.50096,1.66884 -8.4375,0.40442 z M 116.4375,417.9375 c -0.61875,-0.61875 -1.11574,-2.41172 -1.10441,-3.98438 0.0224,-3.11399 2.9082,-10.20992 4.5698,-11.23685 0.5696,-0.35203 1.51746,-2.55354 2.10635,-4.89225 1.23881,-4.91975 7.85812,-12.16822 14.21487,-15.56599 3.33102,-1.78047 5.36532,-2.09875 13.30714,-2.08196 8.37457,0.0177 10.19122,0.34659 17.02372,3.08198 7.3489,2.94214 10.62189,5.19009 9.37385,6.43813 -0.3236,0.3236 -4.28606,-0.63266 -8.80547,-2.12504 -6.66004,-2.19924 -9.82113,-2.70903 -16.6821,-2.69034 -9.10316,0.0248 -12.35305,1.24237 -17.26128,6.46694 -2.71737,2.8925 -2.41507,2.93563 3.69503,0.52726 5.87784,-2.31682 16.32238,-2.49487 23.38141,-0.39856 2.73445,0.81205 10.29931,4.17198 16.81079,7.46652 6.51147,3.29455 14.06003,6.4633 16.77457,7.04167 5.02432,1.07051 8.45784,3.35314 7.07788,4.7054 -1.46676,1.43731 -13.02714,-1.65512 -22.42483,-5.99871 -5.21067,-2.40835 -9.89194,-4.37882 -10.40284,-4.37882 -0.5109,0 -2.28621,-0.67711 -3.94512,-1.50469 -3.49185,-1.74196 -12.55712,-4.03828 -16.13411,-4.08692 -3.20153,-0.0435 -13.69837,3.32381 -16.7333,5.36797 -1.30526,0.87915 -3.95836,2.32459 -5.89579,3.21208 -3.77381,1.7287 -5.11421,4.105 -5.91627,10.48858 -0.5644,4.49204 -1.45989,5.71798 -3.02989,4.14798 z m -11.91092,-5.45222 c -0.32988,-1.03934 -0.0878,-3.44088 0.53785,-5.33673 0.62568,-1.89586 1.10944,-5.79158 1.07502,-8.65715 -0.10155,-8.45297 0.68709,-13.1789 2.19924,-13.1789 1.04692,0 1.34881,1.4916 1.34881,6.66413 0,6.64028 0.008,6.66203 2.34375,6.07589 3.29448,-0.82686 3.11375,1.84581 -0.44267,6.5461 -1.53253,2.02545 -2.79815,4.38641 -2.8125,5.24658 -0.0726,4.35423 -3.1071,6.23947 -4.2495,2.64008 z M 48.713613,562.96055 c -0.493096,-3.60487 -1.492762,-8.2418 -2.22148,-10.3043 -0.728718,-2.0625 -1.587671,-5.30569 -1.908784,-7.20708 -0.321114,-1.90139 -1.875723,-7.38576 -3.454688,-12.1875 -1.578965,-4.80173 -3.208129,-9.99605 -3.620363,-11.54292 -0.412235,-1.54688 -2.481181,-9.01812 -4.597658,-16.60276 -2.116477,-7.58465 -3.858204,-15.38933 -3.870506,-17.34375 -0.0123,-1.95442 -0.43546,-5.24099 -0.940355,-7.30349 -0.61449,-2.5102 -0.564236,-8.55421 0.152003,-18.28125 0.94426,-12.82373 1.479475,-15.68796 4.554764,-24.375 2.980838,-8.42024 3.589595,-11.5384 4.209632,-21.5625 1.204773,-19.47748 0.445899,-30.27457 -1.958831,-27.86985 -0.329398,0.3294 -1.973508,6.41846 -3.65358,13.53126 -1.680071,7.11278 -4.196431,16.94015 -5.591911,21.83859 -1.395481,4.89844 -2.896623,10.59375 -3.335872,12.65625 -0.439249,2.0625 -1.623262,6.49219 -2.631139,9.84375 -10.5631424,35.12633 -13.866242,53.31373 -12.924007,71.16168 0.9894472,18.74224 5.127317,28.10706 16.815618,38.05707 7.144501,6.08197 15.385454,11.71875 17.132762,11.71875 0.598785,0 1.592866,0.60748 2.209072,1.34997 1.202371,1.44877 4.77651,2.36382 5.86741,1.50219 0.365448,-0.28864 0.261009,-3.47425 -0.232087,-7.07911 z m 58.137657,-16.16368 c -0.013,-0.38671 -2.97957,-2.12861 -6.59228,-3.87087 -4.741109,-2.28644 -8.581649,-3.37211 -13.804398,-3.9023 -3.979713,-0.40401 -8.306997,-1.00583 -9.616185,-1.33738 -2.922501,-0.7401 -7.463407,0.86114 -7.463407,2.6318 0,1.40562 5.608277,2.49438 12.848731,2.49438 2.282243,0 5.071018,0.52734 6.197276,1.17187 4.709817,2.69533 18.497303,4.79932 18.430263,2.8125 z M 72.477203,447.19782 c 1.514863,-0.006 2.387344,-0.40853 2.054047,-0.94782 -0.318674,-0.51563 -2.512932,-0.9375 -4.876129,-0.9375 -4.202929,0 -16.671652,-3.17318 -18.592813,-4.7317 -0.532919,-0.43232 -1.514338,-0.44897 -2.180932,-0.037 -2.939428,1.81666 12.072487,7.84488 17.681124,7.10007 1.804687,-0.23966 4.466304,-0.44038 5.914703,-0.44606 z m -0.05533,-5.68461 c 5.747005,-1.59603 4.035765,-2.46983 -4.469278,-2.28212 -8.439009,0.18624 -10.884571,0.90934 -6.422596,1.89904 1.478812,0.32801 3.110624,0.7371 3.626249,0.90911 1.773817,0.59171 3.758117,0.44805 7.265625,-0.52603 z m 4.014487,-6.93412 c 1.788125,-0.74713 3.251138,-1.74283 3.251138,-2.21267 0,-1.6069 -11.605328,-5.14704 -16.875,-5.14762 -6.031067,-6.6e-4 -11.425665,1.27695 -11.942826,2.82843 -0.441202,1.3236 4.620729,4.10261 9.130326,5.01255 5.676798,1.14547 13.061288,0.92951 16.436362,-0.48069 z m 180.050158,-2.95848 c 1.08822,-5.80076 0.87408,-10.37389 -0.56807,-12.13097 -1.90297,-2.31852 -12.33375,-9.94934 -12.86874,-9.41434 -0.47848,0.47848 0.71473,2.92904 5.51721,11.33095 1.76837,3.09375 3.74524,7.41797 4.39303,9.60937 1.44089,4.87433 2.68558,5.08785 3.52657,0.60499 z M 237.1875,234.97018 c 0,-0.7039 -0.87959,-2.39804 -1.95464,-3.76475 -1.07505,-1.3667 -2.33777,-3.84937 -2.80605,-5.51704 -1.00922,-3.59416 -8.82937,-10.15053 -17.27056,-14.47956 -8.30755,-4.26049 -24.08566,-9.30108 -34.21875,-10.93176 -20.17414,-3.24657 -23.53883,-3.00164 -32.50767,2.36636 -5.5075,3.29632 -7.80483,6.78984 -7.80483,11.86865 0,5.14417 2.28862,6.03204 17.58785,6.82323 7.60012,0.39305 14.45121,0.95882 15.22465,1.25728 0.77344,0.29848 6.25781,1.35754 12.1875,2.35348 13.43485,2.25651 35.06035,6.91758 43.125,9.295 7.61356,2.24443 8.4375,2.31563 8.4375,0.72911 z m -9.26711,-33.65207 c 0.92208,-4.46104 2.3463,-9.40625 3.16494,-10.98933 0.81865,-1.5831 2.49835,-7.40235 3.73267,-12.93169 1.23432,-5.52934 4.19982,-15.73388 6.59001,-22.67675 2.3902,-6.94287 4.93002,-14.74756 5.64407,-17.34375 1.39294,-5.06452 13.03494,-40.043456 14.36418,-43.15784 1.6749,-3.92425 7.51505,-23.881133 10.01371,-34.21875 3.06583,-12.68412 3.15462,-16.496053 0.5459,-23.4375 -3.55811,-9.467671 -9.5036,-14.768039 -24.38609,-21.740036 -11.64345,-5.4546022 -21.11125,-7.6820381 -32.90228,-7.7407256 -8.77861,-0.043694 -10.42466,0.2231885 -15.21241,2.4664619 -5.24502,2.4575247 -5.46438,2.7165977 -9.52482,11.2492527 -2.2859,4.803589 -4.662,11.236675 -5.28025,14.295748 -0.61825,3.059073 -1.74182,7.277823 -2.49684,9.375 -0.75501,2.097177 -1.7264,5.711487 -2.15862,8.031799 -0.43223,2.320312 -1.22877,6.539062 -1.77009,9.375 -0.54134,2.835937 -2.22806,11.695312 -3.74829,19.6875 -1.52022,7.992187 -3.25783,15.796875 -3.86134,17.34375 -1.151,2.95017 -3.90222,18.46405 -5.60855,31.62626 -0.5525,4.2618 -1.80667,12.81124 -2.78703,18.99874 -2.22264,14.02796 -4.19218,32.11455 -4.2367,38.90625 l -0.0339,5.15625 7.5,0.55858 c 4.125,0.30722 8.68762,1.0455 10.13916,1.64063 1.45153,0.59512 5.01019,1.08204 7.90811,1.08204 3.66026,0 8.57918,1.12201 16.11084,3.67489 5.96305,2.02119 12.31845,3.96859 14.12314,4.32756 1.80469,0.35897 4.96875,1.65417 7.03125,2.8782 2.0625,1.22404 4.13534,2.10132 4.60632,1.9495 0.47098,-0.15182 1.61075,-3.92598 2.53282,-8.38704 z"
     id="path26600"
     inkscape:connector-curvature="0" />
</svg>
