<?xml version="1.0" encoding="UTF-8" standalone="no"?>
<!-- Created with Inkscape (http://www.inkscape.org/) -->

<svg
   xmlns:dc="http://purl.org/dc/elements/1.1/"
   xmlns:cc="http://creativecommons.org/ns#"
   xmlns:rdf="http://www.w3.org/1999/02/22-rdf-syntax-ns#"
   xmlns:svg="http://www.w3.org/2000/svg"
   xmlns="http://www.w3.org/2000/svg"
   xmlns:sodipodi="http://sodipodi.sourceforge.net/DTD/sodipodi-0.dtd"
   xmlns:inkscape="http://www.inkscape.org/namespaces/inkscape"
   id="svg26620"
   version="1.1"
   inkscape:version="0.91 r13725"
   width="311.25"
   height="708.75"
   viewBox="0 0 311.25 708.75"
   sodipodi:docname="JugHead.svg">
  <metadata
     id="metadata26626">
    <rdf:RDF>
      <cc:Work
         rdf:about="">
        <dc:format>image/svg+xml</dc:format>
        <dc:type
           rdf:resource="http://purl.org/dc/dcmitype/StillImage" />
        <dc:title></dc:title>
      </cc:Work>
    </rdf:RDF>
  </metadata>
  <defs
     id="defs26624" />
  <sodipodi:namedview
     pagecolor="#ffffff"
     bordercolor="#666666"
     borderopacity="1"
     objecttolerance="10"
     gridtolerance="10"
     guidetolerance="10"
     inkscape:pageopacity="0"
     inkscape:pageshadow="2"
     inkscape:window-width="1600"
     inkscape:window-height="837"
     id="namedview26622"
     showgrid="false"
     inkscape:zoom="0.94532628"
     inkscape:cx="155.625"
     inkscape:cy="354.375"
     inkscape:window-x="-8"
     inkscape:window-y="-8"
     inkscape:window-maximized="1"
     inkscape:current-layer="svg26620" />
  <path
     style="fill:#ffffff"
     d="m 150,703.65464 c -24.19821,-2.4043 -48.71233,-8.83101 -55.546875,-14.56236 -4.00316,-3.35699 -4.512219,-6.28697 -1.77174,-10.19756 3.174943,-4.53054 8.517505,-16.8119 10.543205,-24.23645 1.09762,-4.02299 2.53302,-8.36921 3.18979,-9.65827 0.65676,-1.28906 1.67155,-5.71875 2.25509,-9.84375 0.58353,-4.125 1.51313,-10.10739 2.0658,-13.29422 1.48909,-8.58661 -0.48446,-14.5608 -4.32346,-13.08764 -1.95413,0.74987 -14.698712,-5.51849 -17.798723,-8.75421 -1.557262,-1.62542 -3.444564,-5.63387 -4.928558,-10.46777 -2.209652,-7.19763 -2.427911,-9.47018 -2.688188,-27.98991 -0.32969,-23.45874 -0.689804,-27.1709 -3.133275,-32.29868 -9.307997,-19.53345 -16.241695,-46.3305 -18.811369,-72.70132 -0.427078,-4.38281 -1.274968,-10.71094 -1.884199,-14.0625 -1.891129,-10.40365 -0.468219,-30.84051 3.229652,-46.3866 6.499346,-27.32367 6.361698,-26.30239 5.258069,-39.01248 -0.553662,-6.37632 -0.975371,-16.03175 -0.93713,-21.4565 0.144674,-20.52312 -6.418184,-49.10132 -15.505535,-67.51942 -8.736715,-17.70743 -10.021327,-20.25069 -11.364847,-22.5 -0.769964,-1.28906 -2.884064,-5.50781 -4.698001,-9.375 -1.813936,-3.86719 -3.686561,-7.17188 -4.161387,-7.34375 -0.474826,-0.17188 -0.863319,-0.66162 -0.863319,-1.08831 0,-0.82473 -4.578032,-11.05992 -9.949548,-22.24437 C 13.973049,196.82342 7.6019077,177.39632 6.5656684,170.17263 6.1205775,167.06987 5.1073802,161.15625 4.314119,157.03125 0.98797987,139.73515 0.29652259,107.70383 2.8901134,91.065095 4.5045062,80.708234 12.402635,55.108432 14.932954,52.03125 15.780935,51 18.357765,46.419678 20.659243,41.852757 22.960722,37.285837 27.003264,31.109242 29.642672,28.126991 35.220609,21.824512 44.63387,13.125 45.875495,13.125 c 0.470605,0 2.113651,-1.058542 3.651213,-2.352315 1.537562,-1.2937734 5.683213,-3.4535482 9.212555,-4.7994988 5.439488,-2.0744037 7.98789,-2.458219 16.729487,-2.5196301 8.525552,-0.059893 11.368424,0.3037272 16.40625,2.0984594 8.019244,2.8568654 17.74096,9.2795545 22.19884,14.6657495 1.97032,2.380626 4.5657,5.450052 5.76749,6.820948 2.8575,3.25957 8.48268,15.415209 9.61333,20.773787 4.3008,20.382916 4.89842,25.239078 4.84565,39.375 -0.0324,8.686331 -0.65529,18.11362 -1.54851,23.4375 -0.82184,4.89844 -1.49596,12.40074 -1.49803,16.67179 -0.003,6.4652 0.39556,8.55358 2.381,12.47167 l 2.38478,4.70613 6.7487,-6.24825 c 7.96445,-7.37387 21.06767,-14.48226 26.66614,-14.4662 6.65953,0.0191 16.58194,3.96134 18.7637,7.45488 3.10986,4.97967 0.68821,13.29472 -6.04125,20.74342 -3.79871,4.20471 -3.48598,5.03151 2.2281,5.89062 3.48843,0.52447 4.1337,0.31228 5.90745,-1.94267 1.77644,-2.25838 1.92734,-3.29503 1.39881,-9.60955 -1.18065,-14.10575 3.06246,-23.09453 14.63984,-31.01358 10.05052,-6.87467 14.79706,-7.507 30.99473,-4.12908 l 8.10703,1.69067 7.36172,-2.19081 c 4.06027,-1.2083 10.95739,-2.38417 15.37947,-2.62198 6.79397,-0.36537 8.74742,-0.11728 12.79839,1.62539 5.27609,2.26972 8.05178,4.80154 10.425,9.50906 1.27965,2.53832 2.70233,3.51868 7.66339,5.28079 8.68569,3.08507 9.73599,4.41858 10.16456,12.90534 l 0.35467,7.02364 -5.04333,4.9634 c -3.89861,3.83681 -6.84776,5.67941 -12.99313,8.11796 -12.40291,4.92163 -21.48812,12.05886 -31.40632,24.67242 -4.24701,5.40116 -7.07834,9.89791 -9.57917,15.21369 -0.72772,1.54688 -2.17984,4.5 -3.22691,6.5625 -3.49497,6.88433 -10.03742,27.10256 -11.53047,35.63277 -0.8115,4.63635 -1.9599,13.54447 -2.55197,19.79581 -0.93943,9.91876 -0.87618,12.17784 0.49666,17.741 1.40468,5.69215 2.12465,6.8846 6.72238,11.13392 9.44608,8.73024 10.28268,9.54122 16.18287,15.68707 3.22815,3.36255 7.23596,8.02537 8.90625,10.36181 1.67029,2.33645 4.42813,5.88485 6.12854,7.88535 14.73998,17.3413 16.21845,19.70504 21.33251,34.10602 1.19021,3.35156 2.99893,8.41406 4.01938,11.25 1.02045,2.83594 2.08972,7.89844 2.37614,11.25 0.28644,3.35156 0.94366,9.04687 1.46051,12.65625 1.42453,9.94822 1.19081,17.83705 -0.86705,29.26543 -1.02746,5.70603 -1.80878,13.4956 -1.73628,17.31014 0.0725,3.81456 -0.35247,7.84047 -0.94439,8.94648 -0.59193,1.10602 -1.09074,3.6207 -1.10849,5.58819 -0.0177,1.9675 -1.31777,6.74132 -2.88894,10.60851 -2.73516,6.73218 -2.88848,7.84871 -3.6046,26.25 -0.64009,16.44803 -1.11351,20.57032 -3.2838,28.59375 -1.39472,5.15625 -2.85565,10.64062 -3.24649,12.1875 -0.59376,2.34995 -7.5335,17.1795 -10.3099,22.03125 -0.4426,0.77344 -1.71698,4.38887 -2.83197,8.03429 -1.86599,6.10081 -2.57371,7.12296 -8.89707,12.85 -4.7983,4.34581 -8.72641,6.96523 -13.02689,8.68682 -3.38638,1.35567 -6.6925,3.10999 -7.3469,3.8985 -2.48148,2.99 -0.84812,28.55863 2.58358,40.44353 3.25317,11.26655 11.07582,33.69838 13.69426,39.26899 1.50939,3.2111 4.25171,8.02971 6.09406,10.70803 l 3.34974,4.86965 -1.7428,3.23618 c -0.95854,1.77989 -2.59744,3.79147 -3.64203,4.47018 -4.88735,3.17552 -28.61986,10.11702 -40.07746,11.72221 -3.75197,0.52564 -11.25146,1.56357 -16.66552,2.30651 -14.56118,1.99813 -39.55253,2.44499 -54.375,0.97225 z m 55.3125,-8.89657 c 6.44531,-0.55174 13.82812,-1.40424 16.40625,-1.89441 17.25948,-3.28154 28.53775,-6.13681 31.40625,-7.95097 1.80469,-1.14137 4.07096,-2.36857 5.03618,-2.72714 2.15738,-0.80143 1.67495,-4.17093 -1.4931,-10.42861 -8.32674,-16.44735 -10.14976,-20.35887 -11.81508,-25.35069 -1.03211,-3.09375 -2.778,-8.15625 -3.87977,-11.25 -2.97433,-8.35185 -6.17463,-24.77394 -8.13007,-41.71875 -0.75758,-6.56477 -2.08328,-9.14456 -5.27012,-10.2555 -1.58118,-0.5512 -4.22819,-2.0344 -5.88222,-3.296 -1.65404,-1.26159 -5.39691,-3.42521 -8.31752,-4.80805 -9.24648,-4.378 -24.77158,-23.85934 -29.28409,-36.74652 -2.53546,-7.24099 -2.69478,-8.64393 -0.98159,-8.64393 1.24248,0 4.39238,5.60641 4.39238,7.81789 0,0.65548 2.74427,5.38726 6.09837,10.51507 8.16637,12.48486 12.4149,15.70262 31.95399,24.20138 4.17098,1.81422 9.65536,3.56636 12.1875,3.89364 5.63701,0.72859 16.17939,-0.88295 18.05662,-2.76018 1.95789,-1.95789 3.86034,-7.89001 3.8769,-12.08881 0.015,-3.80387 1.36468,-7.20399 2.8596,-7.20399 0.49749,0 0.91098,1.16016 0.91887,2.57812 0.0219,3.93546 1.31963,5.40551 2.49857,2.83039 2.595,-5.66811 7.31065,-16.81678 9.42545,-22.28351 1.29655,-3.35156 3.36844,-8.56775 4.60417,-11.59153 1.23574,-3.02378 3.13206,-9.56284 4.21404,-14.53125 1.70356,-7.82274 1.90885,-11.20243 1.53168,-25.21649 -0.23956,-8.90066 -0.65328,-16.40075 -0.91939,-16.66686 -0.26611,-0.26611 -1.49155,-0.11073 -2.72322,0.34529 -3.50697,1.29844 -4.94886,0.29199 -2.47901,-1.73035 l 2.11461,-1.73145 -3.28125,-1.38803 c -1.80469,-0.7634 -4.22768,-2.47956 -5.38443,-3.81367 -3.78957,-4.37064 -5.49459,-2.83157 -3.44703,3.11154 0.75891,2.20275 2.1879,7.86972 3.17553,12.59327 5.53651,26.47945 5.69518,31.12306 1.09683,32.0994 -5.38093,1.1425 -6.49008,2.05695 -7.13663,5.88392 -0.67512,3.99594 1.33666,8.57371 3.76784,8.57371 2.10663,0 4.17789,2.82187 4.17789,5.69197 0,2.51275 -0.2782,2.74553 -3.28125,2.74553 -2.16204,0 -3.28125,0.4405 -3.28125,1.29146 0,0.7103 -0.66918,1.84682 -1.48706,2.52561 -1.01147,0.83945 -1.31507,2.09414 -0.94929,3.92309 0.2998,1.49893 -0.0793,4.16595 -0.85668,6.02638 -0.76695,1.8356 -1.39447,4.34061 -1.39447,5.5667 0,2.69328 -0.56411,2.73672 -5.78165,0.44522 -4.84699,-2.12877 -10.91576,-7.11148 -9.9097,-8.13629 0.39319,-0.40051 2.25126,0.005 4.12903,0.89987 4.01723,1.91568 7.7028,0.91429 10.09995,-2.74421 1.75755,-2.68237 1.06327,-3.18999 -4.25667,-3.11225 -4.73797,0.0692 -7.92036,-1.00593 -12.80789,-4.3271 l -3.45615,-2.34851 -2.51149,2.94263 c -1.637,1.91801 -3.03274,2.74261 -4.00846,2.36819 -2.44617,-0.93869 -1.71887,-4.26569 1.89721,-8.67863 3.23032,-3.94217 3.63214,-4.14216 8.32271,-4.14216 3.06796,0 5.33751,-0.4928 6.0119,-1.30538 0.59586,-0.71797 2.33501,-1.82384 3.8648,-2.45749 2.10458,-0.87176 2.78141,-1.7632 2.78141,-3.66337 0,-1.38119 0.45742,-2.96869 1.0165,-3.52776 0.73034,-0.73034 0.40044,-1.44836 -1.17187,-2.55049 -1.6837,-1.18021 -3.38029,-1.39931 -7.35667,-0.95005 -4.21747,0.47649 -5.56264,0.26445 -7.31189,-1.15265 -2.33142,-1.88871 -4.19382,-8.1126 -3.32495,-11.11156 0.78374,-2.70516 6.04483,-7.96875 7.96496,-7.96875 2.99073,0 2.76358,1.73151 -0.57679,4.39679 -3.43022,2.73698 -4.13949,5.4112 -2.33131,8.78984 1.61092,3.01002 4.99836,2.24613 7.54858,-1.70226 1.24888,-1.93359 3.12064,-3.63767 4.15946,-3.78685 1.03881,-0.14917 3.86375,1.03696 6.27764,2.63586 4.84225,3.20737 6.87023,2.92797 9.66082,-1.33102 1.31208,-2.00248 1.1571,-3.40504 -1.88688,-17.07639 -1.824,-8.19209 -3.93995,-16.79316 -4.70213,-19.11347 -3.7011,-11.26735 -4.21547,-13.62007 -4.21547,-19.28163 0,-7.4807 1.36701,-10.85995 6.66992,-16.4881 4.86609,-5.16455 9.4647,-6.72221 18.48351,-6.26087 3.86489,0.1977 6.22234,-0.0659 6.4405,-0.72023 0.54356,-1.63022 -4.33569,-10.72685 -8.34708,-15.5619 -2.01071,-2.42356 -5.21617,-5.33947 -7.12322,-6.47978 -1.90706,-1.14032 -4.31113,-2.80064 -5.34238,-3.68962 -1.03125,-0.88898 -5.16598,-2.37948 -9.1883,-3.31225 -6.29671,-1.46018 -8.20721,-1.54264 -13.74416,-0.59315 -19.99641,3.429 -33.20675,13.98279 -42.77441,34.17263 -2.13327,4.50166 -1.30117,5.24669 2.59842,2.3265 5.90107,-4.41898 9.37143,-5.61365 17.50983,-6.02768 7.30284,-0.37155 8.31437,-0.19138 13.6187,2.42566 7.71879,3.80829 14.2848,11.50128 15.13625,17.73423 0.33152,2.42684 0.99894,5.889 1.48315,7.69369 2.12737,7.92888 5.23699,24.82376 6.12564,33.28125 0.43204,4.11183 0.32542,4.51479 -0.86812,3.28125 -1.4109,-1.4582 -3.24529,-8.88838 -4.39762,-17.8125 -1.11121,-8.60571 -7.28416,-27.11715 -10.12649,-30.36732 -4.40256,-5.03426 -14.55107,-8.9335 -23.3846,-8.98476 -4.4143,-0.0256 -12.99998,2.88882 -18.27669,6.2041 -2.47835,1.55711 -3.74644,3.19663 -4.41854,5.71279 -1.71629,6.42526 -3.81671,21.25379 -3.82054,26.97219 -0.007,11.7901 -2.77154,29.75687 -6.19998,40.30675 -1.84322,5.67187 -3.9386,10.97113 -4.65641,11.77612 -0.71781,0.80499 -2.47196,3.58668 -3.89812,6.18153 -3.02537,5.50456 -14.09479,15.45533 -20.09843,18.06731 -2.23139,0.9708 -6.48806,2.25816 -9.45924,2.86081 -4.34898,0.88209 -5.65704,1.58858 -6.70953,3.62388 -1.70159,3.29051 -3.38797,12.48214 -2.74276,14.94942 0.60667,2.31994 -3.87434,18.01007 -6.47228,22.66244 -3.06025,5.48029 -8.46885,12.49645 -11.94427,15.49439 -1.79906,1.55188 -4.82825,4.29816 -6.73154,6.10285 -3.66271,3.47295 -3.57605,3.14298 -8.00203,30.46875 -0.25054,1.54687 -1.46999,5.84001 -2.70986,9.5403 -1.23988,3.70028 -2.25432,7.34798 -2.25432,8.10598 0,1.29284 -2.5897,7.83951 -7.545891,19.07572 l -2.137968,4.847 3.980929,3.82487 c 3.15456,3.0309 4.68229,3.82488 7.35963,3.82488 2.17656,0 4.14912,0.72377 5.544,2.03419 1.19091,1.1188 3.53842,2.11069 5.21667,2.20419 4.82886,0.26903 24.9934,2.37109 31.17638,3.25 6.99759,0.9947 40.09942,0.48715 55.78125,-0.8553 z m 20.625,-221.00614 c -1.79511,-0.69521 -7.5,-6.06606 -7.5,-7.06084 0,-1.08514 3.54857,-0.92737 5.75989,0.2561 1.03764,0.55533 2.57057,0.74724 3.4065,0.42647 1.08223,-0.4153 0.0508,-1.26387 -3.58208,-2.94701 -2.80608,-1.30007 -6.50643,-3.43501 -8.223,-4.7443 -1.71658,-1.30929 -4.25088,-2.68075 -5.6318,-3.04768 -1.56472,-0.41576 -2.621,-1.41805 -2.80334,-2.66001 -0.23901,-1.62798 0.32458,-2.10864 3.07815,-2.62521 1.85391,-0.3478 5.36057,-2.27843 7.79259,-4.29028 9.49135,-7.85165 20.6703,-7.39747 25.02136,1.01655 0.73882,1.42873 2.62882,3.13016 4.20002,3.78097 2.45356,1.0163 2.85671,1.67116 2.85671,4.64036 0,1.90139 -0.63281,4.276 -1.40625,5.27689 -1.33171,1.72334 -1.47384,1.73284 -2.68147,0.17918 -0.70139,-0.90234 -1.67331,-1.64062 -2.15985,-1.64062 -1.34697,0 -6.59189,5.83158 -7.2667,8.07949 -1.19357,3.97602 -7.0154,6.84918 -10.86073,5.35994 z m 7.4512,-14.71735 c 0.9565,-2.51575 0.23199,-9.74821 -1.05627,-10.5444 -2.69722,-1.66696 -4.53708,4.88327 -2.99153,10.65044 0.73925,2.75855 2.98102,2.69983 4.0478,-0.10604 z m 7.46823,-1.76896 c 0.8336,-2.2076 -0.24544,-5.39062 -1.82741,-5.39062 -0.49749,0 -0.90452,1.6875 -0.90452,3.75 0,4.09841 1.47042,4.98145 2.73193,1.64062 z M 223.125,454.55405 c 0,-3.00278 -1.46613,-3.27766 -3.15991,-0.59246 -0.67113,1.06396 -0.59078,1.9392 0.27363,2.98076 1.67463,2.0178 2.88628,1.0152 2.88628,-2.3883 z m -100.93357,135.9171 c 6.76868,-7.25706 8.29244,-10.20537 11.88105,-22.98867 1.56542,-5.5763 3.96627,-14.14654 5.33521,-19.04498 1.36895,-4.89844 3.26339,-10.48293 4.20989,-12.40998 2.43618,-4.96006 1.47179,-9.53 -4.53083,-21.47012 -6.18154,-12.29603 -7.45049,-19.14081 -7.16198,-38.63215 l 0.20601,-13.9185 -1.84664,2.34762 c -1.01565,1.29119 -1.85198,2.91389 -1.85852,3.606 -0.007,0.69211 -1.31049,3.78963 -2.89769,6.88338 -3.48868,6.80009 -5.77158,14.5659 -4.0925,13.92157 0.6124,-0.23499 1.65396,-1.4372 2.31457,-2.67157 1.09574,-2.04742 3.57107,-3.77269 4.32752,-3.01623 1.06601,1.066 -2.5858,9.16175 -8.15769,18.08489 -3.56528,5.70964 -6.48233,10.87761 -6.48233,11.48438 0,1.9796 1.7445,1.16103 2.99572,-1.40569 1.90112,-3.89993 12.00428,-6.57474 12.00428,-3.17814 0,1.43355 -5.66609,7.56204 -6.99147,7.56204 -0.64473,0 -2.30206,1.04709 -3.68297,2.32687 -1.3809,1.27977 -3.36657,2.7849 -4.41261,3.34471 -3.14288,1.68203 -1.50548,3.22282 3.61428,3.40107 2.62872,0.0915 5.65266,0.6337 6.71988,1.20485 4.7398,2.53667 -0.097,6.89884 -7.76341,7.00156 -4.8807,0.0654 -7.1712,0.85233 -7.1712,2.46377 0,0.48519 0.94922,0.89143 2.10938,0.90276 3.84244,0.0375 10.07812,3.46573 10.07812,5.54072 0,2.38035 -3.29768,3.32154 -8.93194,2.54928 -2.31298,-0.31703 -4.35858,-0.16373 -4.67635,0.35043 -0.31068,0.50269 -1.8056,0.91398 -3.32204,0.91398 -1.51645,0 -2.75717,0.40703 -2.75717,0.90452 0,1.59017 3.50629,2.84735 6.35325,2.27795 2.41993,-0.48398 3.01715,-0.12998 4.88823,2.8975 1.86809,3.02263 1.96246,3.61788 0.76363,4.81671 -1.82383,1.82383 -5.49868,0.43032 -10.29696,-3.90464 -1.9737,-1.78312 -4.020044,-3.24204 -4.547425,-3.24204 -1.190128,0 1.216078,4.82634 3.246205,6.5112 1.68782,1.40076 1.98278,7.95045 0.53011,11.77125 -0.7484,1.96845 -1.45886,2.40707 -3.515624,2.17041 -2.21116,-0.25444 -2.819157,-1.02974 -4.276116,-5.45286 -1.537706,-4.66826 -7.257221,-12.1875 -9.270433,-12.1875 -0.409534,0 -0.583316,3.90234 -0.386185,8.67188 0.888832,21.50491 3.680147,28.64123 13.230068,33.82417 10.53012,5.71492 15.82176,4.79468 24.22268,-4.2124 z M 90.961779,538.32094 c 1.10288,-2.94371 2.042924,-7.25063 2.088989,-9.57094 0.09347,-4.70807 -1.580601,-18.06717 -2.437869,-19.45426 -0.916347,-1.48268 1.624333,-4.14515 3.330704,-3.49035 1.785113,0.68501 3.556397,5.15091 3.556397,8.96668 0,3.02185 1.678809,4.50314 2.96215,2.61367 1.06942,-1.57452 0.26261,-10.30154 -1.026006,-11.09795 -2.751188,-1.70032 -4.958447,-12.34306 -2.832413,-13.65702 2.640957,-1.63221 9.319779,7.50564 9.344089,12.78441 0.006,1.23259 0.28747,3.91958 0.62621,5.97109 l 0.61589,3.73003 1.17747,-3.26128 c 1.78789,-4.95199 1.54765,-7.40768 -1.02364,-10.46349 -1.28906,-1.53196 -2.35164,-3.28036 -2.36129,-3.88534 -0.01,-0.60497 -1.4862,-3.99839 -3.28125,-7.54093 -1.795041,-3.54255 -3.26371,-7.44489 -3.26371,-8.67188 0,-1.86116 0.473184,-2.23088 2.85511,-2.23088 3.75482,0 7.04028,3.35753 8.38024,8.56411 1.52897,5.94097 1.98887,6.56159 1.29562,1.74839 -0.3342,-2.32031 -0.68551,-5.15886 -0.78068,-6.30788 -0.0952,-1.14902 -0.87949,-2.86975 -1.74292,-3.82382 -0.86343,-0.95408 -1.56987,-2.25727 -1.56987,-2.89598 0,-0.6387 -1.89844,-3.49181 -4.21875,-6.34024 -4.477059,-5.49605 -5.559647,-9.69458 -2.49974,-9.69458 1.88243,0 7.71466,5.15012 11.67834,10.3125 l 2.51936,3.28125 -0.012,-2.8125 c -0.0232,-5.45138 -1.59649,-9.41459 -5.21575,-13.1388 -2.01176,-2.07009 -4.50149,-5.20182 -5.53274,-6.9594 -1.03125,-1.75758 -2.50781,-4.17351 -3.28125,-5.36873 -1.543554,-2.38533 -0.536961,-5.23241 2.02901,-5.73885 1.69134,-0.33383 12.03352,9.54761 12.03352,11.49739 0,0.78492 0.42188,1.42714 0.9375,1.42714 1.74614,0 0.94991,-5.32223 -1.48685,-9.93849 -1.33338,-2.52602 -4.25445,-7.33495 -6.49126,-10.68651 -4.24937,-6.36715 -5.99314,-11.55383 -4.24718,-12.6329 2.3065,-1.42549 13.07376,7.92169 14.57546,12.65313 1.08528,3.41942 2.21096,0.28005 1.30199,-3.63107 -0.43721,-1.88122 -0.80499,-5.00244 -0.81729,-6.93604 -0.0123,-1.93359 -0.38037,-3.51562 -0.81792,-3.51562 -0.43756,0 -2.96726,-3.22818 -5.62154,-7.17373 -3.61498,-5.3736 -4.57374,-7.47768 -3.82076,-8.38497 2.28725,-2.75596 10.69919,3.64934 14.22358,10.83059 l 2.0904,4.25936 0.51112,-3.28125 c 0.28112,-1.80469 -0.0668,-5.58192 -0.77335,-8.39386 -0.70647,-2.81194 -1.03512,-6.35943 -0.73033,-7.88332 0.48541,-2.42714 -0.0279,-3.31432 -4.13971,-7.15439 -3.68521,-3.44167 -4.69386,-5.00942 -4.69386,-7.29572 0,-1.60163 0.44586,-3.18761 0.99079,-3.52439 1.98759,-1.2284 5.62727,0.62076 7.94206,4.03502 1.30431,1.92385 3.44434,4.97447 4.75561,6.77916 2.06115,2.83674 2.34321,4.07528 2.0822,9.14259 -0.16605,3.22374 -3.4e-4,5.86046 0.36823,5.85938 1.63963,-0.005 2.64472,-4.2871 2.79618,-11.91339 0.1879,-9.46056 -1.15694,-14.3531 -5.13391,-18.67717 -2.70132,-2.93708 -4.35972,-7.81828 -3.70188,-10.89578 0.56394,-2.63817 4.26729,-1.92879 7.34141,1.40625 3.86457,4.19258 4.86926,6.68712 5.75816,14.29687 0.69164,5.92104 0.88084,6.35746 1.93557,4.46483 1.77733,-3.18922 1.75713,-14.12305 -0.0343,-18.58046 -0.84068,-2.09172 -1.82327,-6.40859 -2.18355,-9.59304 -0.5691,-5.03023 -0.43818,-5.87313 0.99787,-6.42419 2.38522,-0.9153 4.36779,0.68124 6.86018,5.52442 2.568,4.99012 3.65033,11.41557 2.21436,13.14582 -0.55305,0.66636 -1.43368,2.3377 -1.95698,3.71409 -0.78125,2.05484 -0.70709,2.40876 0.41453,1.97836 0.75129,-0.2883 1.36598,-1.11339 1.36598,-1.83353 0,-0.72014 0.84375,-2.8836 1.875,-4.80769 1.03125,-1.92409 1.875,-4.31839 1.875,-5.32066 0,-1.00228 0.51791,-3.25459 1.15091,-5.00513 1.04905,-2.90107 0.96726,-3.32188 -0.92402,-4.75406 -2.73321,-2.06974 -3.50356,-10.6832 -1.00172,-11.20048 2.17084,-0.44885 6.23066,6.72703 7.00593,12.38327 0.46838,3.41717 0.81898,4.11037 1.48078,2.92778 1.29292,-2.31031 1.21344,-12.86355 -0.11558,-15.34619 -1.05326,-1.96755 -0.90875,-4.76545 0.50561,-9.78876 0.25407,-0.90235 1.0566,-1.64063 1.7834,-1.64063 2.21355,0 4.019,3.90665 4.72076,10.21481 0.66629,5.9893 0.66862,5.99307 2.0556,3.34591 1.05197,-2.00776 1.27702,-4.78255 0.92842,-11.44719 -0.35893,-6.8621 -0.16414,-9.09305 0.8856,-10.14279 1.71338,-1.71338 2.60393,-1.69469 4.39076,0.0922 1.4805,1.4805 3.31852,6.96691 3.44422,10.28087 0.0712,1.875 0.0712,1.875 0.87683,0 0.44315,-1.03125 0.83537,-3.25933 0.8716,-4.95129 0.039,-1.82163 0.63944,-3.2964 1.47215,-3.61593 1.57686,-0.6051 1.93686,-3.15153 0.44555,-3.15153 -0.52839,0 -1.38121,-1.10601 -1.89516,-2.45779 -1.08362,-2.85015 0.1935,-5.04221 2.93767,-5.04221 2.32332,0 3.71343,2.87572 4.34414,8.9867 0.28813,2.79169 0.83752,5.0758 1.22087,5.0758 1.22493,0 1.72172,-3.71103 1.18847,-8.87782 -0.68527,-6.63961 0.16702,-9.8722 2.60283,-9.8722 1.24964,0 2.35679,1.04545 3.22669,3.04687 0.72836,1.67579 1.40328,2.41407 1.4998,1.64063 0.0965,-0.77344 0.26152,-2.03906 0.36664,-2.8125 0.10512,-0.77344 0.2536,-2.14453 0.32994,-3.04688 0.22516,-2.66131 3.02555,-1.87542 4.17578,1.17188 1.35118,3.57967 2.52553,3.60805 2.52553,0.061 0,-6.23289 2.93587,-9.39498 5.66723,-6.10389 1.05908,1.2761 1.35891,1.10139 2.41329,-1.40625 1.39649,-3.32127 4.59103,-3.89397 5.51323,-0.98839 0.8562,2.69766 1.8907,2.32896 4.13418,-1.47344 1.28412,-2.17644 2.54706,-3.23994 3.60822,-3.03845 2.23932,0.42521 2.68153,7.87104 0.74302,12.51057 -0.79979,1.91416 -1.45417,3.84499 -1.45417,4.29073 0,2.30337 11.74956,4.39853 13.70435,2.44375 0.37292,-0.37293 -0.20641,-1.62561 -1.28741,-2.78373 -1.90838,-2.04455 -3.82769,-7.26193 -2.67142,-7.26193 0.31557,0 2.15428,0.85405 4.086,1.8979 l 3.51223,1.89791 1.28622,-1.89791 c 1.76204,-2.59999 3.52554,-2.37948 5.43968,0.68022 0.88707,1.41797 1.70875,2.72212 1.82596,2.89811 0.42919,0.64447 4.10439,-0.94146 4.10439,-1.77114 0,-0.86243 -14.79204,-15.44589 -20.31764,-20.03115 -5.06108,-4.19978 -6.22676,-15.64612 -4.08336,-40.09614 0.88287,-10.0709 6.41561,-35.20068 8.29807,-37.68992 0.43429,-0.57427 2.2312,-4.63007 3.99314,-9.01288 1.76195,-4.38281 4.14744,-9.65625 5.3011,-11.71875 1.15366,-2.0625 2.61169,-4.80469 3.24006,-6.09375 2.04319,-4.19146 10.30488,-14.92853 11.87899,-15.4382 0.84336,-0.27306 2.53699,-1.97368 3.76361,-3.77913 1.22662,-1.80547 2.52848,-3.28267 2.89302,-3.28267 0.36455,0 2.52501,-1.42423 4.80103,-3.16496 2.27603,-1.74073 7.67425,-4.50959 11.99604,-6.15302 9.91531,-3.77044 12.29844,-5.33171 12.29844,-8.05713 0,-3.31992 -5.6451,-6.43232 -10.48836,-5.78271 -4.15551,0.55738 -7.70721,3.4328 -14.1025,11.41723 -2.05537,2.56611 -4.85155,5.34913 -6.21372,6.18449 -1.36217,0.83535 -3.82323,2.78448 -5.46903,4.33142 -3.94052,3.7038 -6.39787,5.20959 -11.78453,7.22118 -5.04365,1.8835 -8.42486,6.0603 -12.90549,15.94212 -4.7168,10.40267 -12.30105,33.57413 -14.04444,42.9087 -0.93129,4.98632 -1.98008,9.96977 -2.33065,11.07432 -0.35056,1.10455 -1.38231,7.27764 -2.29276,13.71799 -2.35721,16.67432 -4.57837,17.42364 -3.84721,1.29787 0.14481,-3.19392 3.32135,-20.52983 6.01239,-32.8125 2.7898,-12.73346 10.28898,-33.4413 16.41452,-45.32622 8.341,-16.18343 8.26781,-16.06206 14.45722,-23.9724 2.9839,-3.81355 5.30163,-7.54028 5.15053,-8.28163 -0.15109,-0.74137 -2.76234,-2.35853 -5.80276,-3.5937 -3.04043,-1.23518 -7.83178,-3.98512 -10.64745,-6.11097 -6.20039,-4.68135 -13.49229,-7.37535 -21.73194,-8.0289 -5.76316,-0.45712 -6.44071,-0.29648 -10.64106,2.52293 -7.81367,5.24476 -8.91226,10.21068 -4.78815,21.64368 2.18015,6.0439 2.32422,7.19088 1.33173,10.60274 -0.61207,2.10415 -2.05482,5.30228 -3.20609,7.10697 -4.92778,7.72462 -6.24897,36.85232 -3.46565,76.40625 1.58202,22.48231 1.59916,23.24212 0.5323,23.59904 -0.86532,0.28949 -2.15064,-4.73149 -4.24121,-16.56779 -0.40982,-2.32031 -1.22197,-18.5625 -1.80477,-36.09375 -0.5828,-17.53125 -1.2579,-33.189 -1.50021,-34.79499 -0.41838,-2.77296 -0.70363,-2.95092 -5.66478,-3.534 -6.24206,-0.73364 -10.47094,-3.61926 -13.91401,-9.49442 -3.03371,-5.17663 -3.04337,-9.78963 -0.034,-16.25406 3.34648,-7.18861 3.19686,-7.64128 -2.52567,-7.64128 -6.26818,0 -11.80645,2.70525 -14.82724,7.24258 -1.28906,1.93622 -3.50391,4.51123 -4.92187,5.72225 -1.41797,1.21101 -2.57813,2.63137 -2.57813,3.15635 0,0.52498 -1.22243,3.54607 -2.71652,6.71354 -1.49408,3.16746 -3.69902,8.07934 -4.89986,10.91528 -2.81759,6.65407 -10.14959,16.51017 -15.16534,20.38611 -7.15624,5.53003 -13.41974,7.88167 -22.46696,8.43527 l -8.217426,0.50282 -7.894163,-4.09738 c -4.34179,-2.25356 -8.204204,-3.78735 -8.583144,-3.40841 -0.912849,0.91285 2.745991,4.74082 8.537164,8.93177 14.891297,10.77653 25.549509,18.96356 27.237549,20.92231 9.56607,11.10021 14.82355,29.32586 14.57187,50.51501 -0.14481,12.1909 -2.25976,20.63858 -6.57193,26.25 -1.38685,1.80469 -3.45811,4.82231 -4.60283,6.70583 -1.14471,1.88353 -5.49754,6.31321 -9.67293,9.84375 C 94.811053,329.59601 91.248473,333.26409 84.547122,342.1875 77.978536,350.93411 75,356.15145 75,358.91066 c 0,0.98882 -0.692556,3.43141 -1.539011,5.42798 -1.966854,4.63927 -5.559341,16.96062 -8.438684,28.94261 -5.691439,23.68414 -5.366217,20.55885 -4.174493,40.11549 1.108276,18.18725 1.609988,21.84239 6.714755,48.91944 2.371232,12.57763 3.86459,17.58212 9.336614,31.2885 5.569284,13.95 6.594863,17.42077 7.072209,23.93383 0.751283,10.25074 1.034612,10.97663 3.232781,8.28243 0.963805,-1.1813 2.654729,-4.5563 3.757608,-7.5 z m 62.913831,-1.28184 c 3.87109,-1.15981 4.34348,-1.83772 2.40286,-3.4483 -0.89969,-0.74666 -2.01128,-0.53352 -4.21875,0.80892 -1.64848,1.0025 -2.99722,2.2508 -2.99722,2.774 0,1.20235 0.38681,1.19153 4.81311,-0.13462 z m 108.07896,-4.17065 c 0.81562,-0.31298 1.48293,-1.18708 1.48293,-1.94247 0,-1.12275 -0.98382,-1.25412 -5.39063,-0.71982 -6.10595,0.74032 -6.8494,1.09428 -4.89472,2.33046 1.56912,0.99234 6.5881,1.18154 8.80242,0.33183 z M 165,529.7878 c 0,-2.75776 -1.35187,-3.8503 -4.76418,-3.8503 -0.98907,0 -1.79832,0.42187 -1.79832,0.9375 0,0.51562 0.43092,0.9375 0.9576,0.9375 0.52668,0 1.43814,1.05469 2.02548,2.34375 C 162.8908,533.38302 165,533.16592 165,529.7878 Z m -8.34785,-2.97663 c 1.49757,-1.06637 2.72285,-2.545 2.72285,-3.28586 0,-0.74085 1.06908,-3.55978 2.37574,-6.26428 1.30665,-2.70451 3.05458,-7.44853 3.88428,-10.54228 3.51064,-13.09019 3.96852,-18.31111 3.53542,-40.3125 -0.471,-23.92689 0.47554,-37.27986 3.88767,-54.84375 1.94066,-9.9895 3.05652,-13.24049 7.56202,-22.03125 10.53516,-20.55539 15.84738,-26.91623 29.0668,-34.80455 10.28917,-6.13976 18.75672,-9.20621 29.53887,-10.69724 15.22633,-2.10559 27.1569,0.37042 39.00958,8.09585 9.29784,6.06021 10.89645,6.46662 8.60664,2.18806 -0.53377,-0.99735 -1.48299,-1.81519 -2.10938,-1.8174 -0.62639,-0.002 -3.37905,-1.70241 -6.11701,-3.77818 -2.73797,-2.07579 -5.48016,-3.71148 -6.09375,-3.6349 -2.34888,0.29321 -3.44339,-0.15759 -5.89172,-2.42664 -1.41213,-1.30871 -3.65791,-2.34375 -5.08538,-2.34375 -3.73752,0 -11.3823,-3.65242 -11.91592,-5.69302 -0.29595,-1.13169 -2.00336,-2.19212 -4.80247,-2.9827 -4.61144,-1.30246 -6.31798,-4.00876 -3.51646,-5.57657 0.82642,-0.46249 1.50257,-1.39579 1.50257,-2.07403 0,-1.93829 -11.11282,-5.23618 -17.64422,-5.23618 -5.87241,0 -7.70969,1.19075 -3.47659,2.25319 2.76673,0.6944 4.45405,3.39297 3.29455,5.26908 -0.94624,1.53105 -10.0822,1.50677 -11.61986,-0.0308 -0.51088,-0.51092 -1.26638,-0.92892 -1.67888,-0.92892 -1.36088,0 -0.78064,1.41387 0.9668,2.35582 0.94424,0.50898 3.26455,1.74185 5.15625,2.73969 7.03904,3.713 3.22112,5.92298 -7.3002,4.22572 -3.83292,-0.61832 -7.73059,-0.82866 -8.66151,-0.46742 -1.51933,0.58954 -1.45267,0.79038 0.65116,1.96202 1.28906,0.71788 3.3207,1.32018 4.51476,1.33845 3.20957,0.0491 5.81221,1.71718 5.19377,3.32877 -0.63262,1.6486 -10.61209,1.97782 -13.47695,0.4446 -2.7844,-1.49018 -13.5481,-2.40049 -12.72989,-1.07661 0.36931,0.59755 1.97561,1.08646 3.56958,1.08646 3.59379,0 12.92873,4.45549 12.92873,6.17078 0,3.06994 -5.35715,3.75164 -13.01614,1.6563 -3.13056,-0.85645 -2.21115,1.47832 1.36203,3.45874 1.55482,0.86176 2.74786,2.30396 2.74786,3.32171 0,1.5583 -0.81452,1.83848 -6.09375,2.0962 -3.35156,0.16362 -8.52908,-0.1759 -11.50559,-0.75447 -4.96593,-0.96528 -5.61775,-0.89 -7.91075,0.91367 l -2.49889,1.96563 3.74378,-0.59866 c 2.82621,-0.45192 4.82547,-0.0902 8.15707,1.47583 2.42731,1.14098 4.67289,2.49455 4.99019,3.00795 0.82782,1.33943 -1.52728,2.56777 -4.95518,2.58447 -3.74997,0.0183 -13.99722,3.16891 -19.78099,6.08192 -2.45211,1.23501 -5.91225,3.75004 -7.68917,5.58896 -2.9184,3.02019 -3.03819,3.34347 -1.23884,3.34347 1.09557,0 2.57754,-0.58559 3.29326,-1.30132 1.78995,-1.78996 8.96005,-5.29133 12.7069,-6.20517 3.64653,-0.88937 9.56321,0.50207 9.56321,2.24901 0,2.43623 -7.99538,7.13248 -12.14311,7.13248 -0.88088,0 -3.6548,1.03945 -6.16423,2.30989 -2.50943,1.27044 -5.74448,2.56947 -7.18898,2.88673 -1.44449,0.31727 -3.15421,1.32024 -3.79939,2.22883 -0.64517,0.9086 -2.12226,2.15566 -3.28242,2.77125 -1.16015,0.6156 -2.10937,1.76567 -2.10937,2.55571 0,1.84552 3.61748,0.88526 5.625,-1.49315 0.77344,-0.91633 3.09375,-2.38574 5.15625,-3.26536 2.0625,-0.87962 4.86978,-2.19434 6.2384,-2.9216 2.863,-1.52136 7.91494,-1.75472 8.74963,-0.40418 1.19145,1.92781 -1.63232,4.69627 -8.08039,7.9221 -3.67994,1.84101 -7.65645,3.34728 -8.83667,3.34728 -2.12365,0 -7.91472,4.12543 -7.91472,5.63828 0,1.14808 10.38396,-1.95492 13.125,-3.92208 2.83177,-2.03229 6.67582,-2.60279 7.22088,-1.07167 0.47757,1.34154 -1.27662,3.10522 -8.91572,8.96387 -5.79526,4.44455 -7.53004,7.07959 -3.93016,5.96969 1.03125,-0.31795 2.71875,-0.83823 3.75,-1.15618 1.59226,-0.49092 1.875,-0.14579 1.875,2.28877 0,2.54221 -0.62985,3.20257 -5.56192,5.83134 -7.41876,3.95416 -8.07445,5.66624 -1.8895,4.93372 3.69922,-0.43812 4.63892,-0.2712 4.63892,0.82401 0,1.88316 -3.53514,4.98911 -7.56818,6.64936 -4.00024,1.64675 -10.24432,6.93114 -10.24432,8.66983 0,0.68046 -1.05469,2.49063 -2.34375,4.02259 -2.11051,2.50819 -3.03888,4.85847 -1.91911,4.85847 2.31021,0 5.34418,-2.86636 7.17784,-6.78129 2.60456,-5.56085 4.93969,-7.31993 9.98404,-7.52108 5.0703,-0.20219 8.02224,1.98144 12.7608,9.43951 4.33937,6.82981 5.7166,12.55075 6.8436,28.42814 0.64282,9.05604 -1.12131,18.20939 -4.24011,22.0002 -3.9135,4.75675 -9.68321,5.43571 -14.16255,1.66659 -4.23901,-3.56688 -5.33268,-6.30655 -6.62896,-16.60565 -0.91837,-7.29656 -0.92005,-10.03165 -0.008,-13.125 3.16152,-10.72379 12.70362,-11.09489 14.95829,-0.58175 2.0443,9.53222 0.68783,15.17195 -3.2827,13.64831 -1.25186,-0.48038 -1.40285,-1.49898 -0.88434,-5.96639 0.73569,-6.33581 -0.50961,-10.53909 -3.12207,-10.53909 -3.22935,0 -3.95225,9.20412 -1.52988,19.47856 2.48317,10.53232 5.70465,12.92087 10.69545,7.93006 2.10445,-2.10445 2.81769,-4.0462 3.79582,-10.3339 1.32622,-8.5253 0.84356,-14.64585 -1.78788,-22.67224 -0.93471,-2.85105 -1.95299,-6.27388 -2.26283,-7.60629 -0.67985,-2.92352 -5.771,-9.54254 -7.94775,-10.33289 -0.86032,-0.31236 -2.70313,-0.17303 -4.09514,0.30964 -6.15716,2.13494 -9.05496,16.90949 -7.5107,38.29374 1.00803,13.95879 2.94191,21.45809 7.08866,27.48875 2.6225,3.81392 6.18547,12.771 6.21195,15.61644 0.0192,2.06362 1.487,4.64063 2.64316,4.64063 0.204,0 1.59619,-0.87248 3.09375,-1.93883 z m 15.80453,-0.82706 c 1.09115,-0.69024 1.14752,-1.29495 0.28269,-3.03251 -0.59412,-1.19369 -1.20743,-2.97914 -1.36292,-3.96766 -0.36408,-2.31474 -1.79943,-2.76413 -3.9068,-1.22317 -1.58597,1.15968 -1.59091,1.42943 -0.0947,5.16888 1.59951,3.99758 2.62061,4.61133 5.08171,3.05446 z m 89.26819,0.30085 c 2.54588,-0.42098 3.30345,-0.93465 2.90599,-1.97043 -0.40956,-1.06731 -1.62549,-1.29648 -5.10485,-0.96216 -4.9647,0.47705 -5.98239,0.98712 -5.03331,2.52276 0.7014,1.13488 2.29956,1.22544 7.23217,0.40983 z m -83.71961,-14.38424 c -1.22321,-1.66154 -3.38417,-3.6235 -4.80214,-4.35992 -2.47094,-1.28329 -2.57812,-1.24468 -2.57812,0.92857 0,1.24714 0.63164,2.50991 1.40365,2.80616 0.77202,0.29625 2.34576,2.47775 3.49721,4.84778 l 2.09355,4.30915 1.30493,-2.75538 c 1.19765,-2.52886 1.12208,-3.00377 -0.91908,-5.77636 z m 84.48039,3.4899 c -0.007,-0.64453 -0.37704,-1.74425 -0.82032,-2.44383 -1.04109,-1.64306 -2.19264,0.0901 -1.41182,2.12486 0.67863,1.76849 2.25265,1.99342 2.23214,0.31897 z m -80.25938,-10.30529 c -0.76274,-1.47499 -2.10303,-2.93857 -2.97842,-3.25241 -0.87538,-0.31384 -2.34632,-1.34682 -3.26875,-2.29551 -2.08715,-2.14659 -3.4791,-2.21009 -3.4791,-0.15874 0,2.08345 9.63948,10.72673 10.47842,9.39553 0.34907,-0.55389 0.0106,-2.21389 -0.75215,-3.68888 z m 3.39873,-7.0053 c 0,-3.05608 -4.21507,-8.70503 -6.49542,-8.70503 -0.94187,0 -2.23383,-0.62817 -2.87101,-1.39593 -1.50369,-1.81182 -2.82107,-0.95277 -2.82107,1.83959 0,1.63482 1.19561,2.94368 4.60557,5.04185 2.53307,1.55861 4.88376,3.7103 5.22375,4.78153 0.81216,2.55889 2.35818,1.53484 2.35818,-1.56201 z m -0.8206,-14.60964 c -2.02131,-3.27054 -8.24265,-7.2712 -10.19503,-6.55596 -2.8988,1.06198 0.33331,5.31806 5.81892,7.66241 1.52463,0.65157 3.41651,2.10318 4.20419,3.22579 2.33285,3.32485 2.488,-0.58473 0.17192,-4.33224 z m 3.6331,-9.09956 c 0,-1.77491 -1.68039,-2.96301 -9.21835,-6.51774 -5.01316,-2.36409 -5.78165,-2.38382 -5.78165,-0.14841 0,1.88049 2.7132,4.05432 6.5625,5.25791 1.28906,0.40306 3.34255,1.51281 4.56332,2.4661 2.49365,1.9473 3.87418,1.57034 3.87418,-1.05786 z m 0.37149,-9.92418 c 0.81762,-2.13067 -0.12714,-3.19665 -2.83312,-3.19665 -2.2739,0 -8.47625,-3.91881 -10.00683,-6.32258 -1.38001,-2.1673 -2.6534,-1.20821 -2.35656,1.77491 0.17677,1.77647 1.04055,3.35503 2.16877,3.96343 1.03125,0.5561 2.92969,1.65334 4.21875,2.4383 1.9658,1.19704 4.76089,2.19385 7.63407,2.72252 0.33156,0.061 0.86027,-0.55996 1.17492,-1.37993 z m 100.87851,-8.3529 c 0,-1.28906 -0.16176,-2.34375 -0.35946,-2.34375 -0.19771,0 -0.56107,1.05469 -0.80749,2.34375 -0.24643,1.28906 -0.0847,2.34375 0.35945,2.34375 0.44412,0 0.8075,-1.05469 0.8075,-2.34375 z m -5.60704,-1.88066 c 0.74239,-3.71263 -0.23415,-7.49434 -1.93522,-7.49434 -1.00537,0 -1.43853,1.43787 -1.64748,5.46882 -0.24888,4.80106 -0.0817,5.42997 1.36897,5.1506 0.96689,-0.18621 1.88533,-1.48276 2.21373,-3.12508 z m -94.41882,0.41706 c 0.33539,-1.28254 -0.0219,-2.11639 -1.06253,-2.47967 -0.86233,-0.30102 -2.22368,-1.358 -3.02524,-2.34884 -0.80155,-0.99083 -2.61324,-1.9284 -4.02595,-2.08348 -1.41272,-0.15507 -3.59355,-1.24486 -4.84629,-2.42174 -2.09487,-1.96803 -2.32872,-2.00683 -2.91331,-0.4834 -1.11442,2.90413 0.85848,6.51606 4.1429,7.58469 1.67598,0.5453 3.76124,1.70546 4.6339,2.57813 2.27894,2.27893 6.46346,2.0751 7.09652,-0.34569 z M 275.625,453.75 c 0,-1.54688 -0.42188,-2.8125 -0.9375,-2.8125 -0.51563,0 -0.9375,1.26562 -0.9375,2.8125 0,1.54687 0.42187,2.8125 0.9375,2.8125 0.51562,0 0.9375,-1.26563 0.9375,-2.8125 z m -3.75471,-9.54925 c 1.48481,-2.41615 3.85307,-5.14875 5.26281,-6.07244 3.52525,-2.30984 9.00397,-2.1515 12.39871,0.35834 1.51594,1.12079 3.01488,1.77917 3.33097,1.46307 0.31609,-0.3161 0.57472,-2.84486 0.57472,-5.61949 0,-4.25916 -0.38877,-5.40506 -2.49651,-7.35844 -1.37307,-1.27252 -3.16604,-2.13297 -3.98437,-1.91209 -0.81833,0.22086 -3.17537,0.67772 -5.23787,1.01522 -10.11538,1.65529 -16.50839,11.48312 -15.56328,23.92508 0.17456,2.29807 0.20569,2.3072 1.5966,0.46875 0.78022,-1.03125 2.63341,-3.85185 4.11822,-6.268 z m -80.78946,0.39904 c 0.22084,-1.54787 -0.1722,-2.09979 -1.49532,-2.09979 -0.9872,0 -2.55849,-0.84375 -3.49176,-1.875 -0.93327,-1.03125 -2.70533,-1.875 -3.93791,-1.875 -1.23259,0 -3.32835,-1.08728 -4.65726,-2.41619 -1.67535,-1.67535 -2.71565,-2.11674 -3.39283,-1.43956 -0.67718,0.67718 0.13289,1.99294 2.64201,4.2912 1.99025,1.823 4.10742,3.31455 4.70479,3.31455 0.59739,0 2.24808,1.07683 3.66821,2.39296 3.02109,2.79986 5.53644,2.67613 5.96007,-0.29317 z m 2.04417,-9.13104 c 0,-0.77344 -0.40014,-1.40625 -0.8892,-1.40625 -0.48906,0 -2.02722,-1.05469 -3.41814,-2.34375 -1.39093,-1.28906 -3.41657,-2.35021 -4.50143,-2.3581 -2.5135,-0.0183 -3.75808,-0.86502 -5.14637,-3.50128 -0.61096,-1.16015 -1.72879,-2.10937 -2.48409,-2.10937 -1.90256,0 -1.71576,1.27446 0.4778,3.25959 1.01808,0.92136 2.08715,2.41905 2.37571,3.32821 0.30718,0.96782 1.8668,1.90482 3.76254,2.26046 1.79446,0.33663 3.67561,1.42531 4.21977,2.44208 1.1755,2.19646 5.60341,2.53499 5.60341,0.42841 z M 195,426.18636 c 0,-0.72252 -1.47656,-2.18485 -3.28125,-3.24964 -1.80469,-1.0648 -3.28125,-2.53789 -3.28125,-3.27355 0,-1.41494 -1.92904,-2.47174 -4.5298,-2.48159 -0.86017,-0.003 -2.3027,-1.30389 -3.20562,-2.89029 -1.71289,-3.00951 -3.76129,-3.24972 -4.29381,-0.5035 -0.3442,1.77503 5.96727,8.08721 8.0863,8.08721 0.72361,0 2.49793,1.26562 3.94293,2.8125 2.72431,2.91638 6.5625,3.79301 6.5625,1.49886 z m 3.75,-6.99169 c 0,-0.8977 0.46949,-2.10166 1.04332,-2.67549 1.54389,-1.54389 0.24378,-2.93114 -3.38505,-3.6119 -2.3043,-0.43229 -3.73232,-1.48226 -5.0474,-3.71116 -1.07587,-1.82345 -2.73729,-3.23625 -4.01928,-3.41784 -1.4115,-0.19993 -2.66311,-1.39517 -3.53457,-3.37541 -1.55127,-3.52499 -2.95536,-3.48937 -4.22646,0.10721 -0.7843,2.21922 -0.51018,2.83625 2.34375,5.27593 1.77757,1.51953 3.7758,2.77994 4.44053,2.80089 1.43439,0.0452 10.51016,9.06319 10.51016,10.44322 0,0.52555 0.42187,0.6948 0.9375,0.37613 0.51562,-0.31868 0.9375,-1.31389 0.9375,-2.21158 z m 6.04426,-11.3021 c 0.29146,-0.47158 -0.95949,-1.77794 -2.77989,-2.903 -1.8204,-1.12508 -3.93956,-3.26335 -4.70922,-4.75171 -0.76967,-1.48837 -2.69111,-3.37409 -4.26987,-4.19051 -1.61835,-0.83688 -3.45718,-2.88855 -4.21547,-4.70337 -1.55615,-3.72441 -2.68829,-4.04216 -4.21803,-1.18383 -0.8923,1.66729 -0.80319,2.24428 0.493,3.19208 0.8702,0.63631 1.89774,2.33684 2.28342,3.77897 0.50137,1.87468 1.52115,2.8345 3.5778,3.36743 1.9455,0.50413 3.25442,1.65765 4.044,3.56387 1.39044,3.35683 8.39408,6.09562 9.79426,3.83007 z m 3.91108,-4.25155 c 0.28682,-0.74744 -0.73169,-2.96229 -2.26335,-4.92188 -1.53166,-1.95959 -3.0334,-4.61758 -3.33721,-5.90664 -0.3038,-1.28906 -1.80425,-3.04775 -3.3343,-3.90818 -1.99281,-1.12067 -2.9642,-2.53603 -3.42449,-4.98959 -0.79764,-4.25174 -4.52867,-6.2593 -6.58822,-3.54493 -1.7561,2.31445 -1.61925,3.78396 0.41246,4.42879 0.953,0.30248 2.20958,1.59653 2.79239,2.87568 0.58283,1.27915 1.56285,2.32573 2.17784,2.32573 1.81128,0 4.54704,2.95582 4.54704,4.9128 0,0.99533 1.47656,3.11695 3.28125,4.7147 1.80469,1.59775 3.28125,3.46019 3.28125,4.13875 0,1.6639 1.80409,1.57189 2.45534,-0.12523 z M 296.25,401.60396 c 0,-2.91241 -0.20027,-3.22983 -1.40625,-2.22896 -0.77344,0.6419 -1.40625,2.17012 -1.40625,3.39604 0,1.3563 0.55057,2.22896 1.40625,2.22896 0.9912,0 1.40625,-1.00234 1.40625,-3.39604 z m -83.1499,-3.50119 c 0.26851,-0.69974 -0.29557,-2.46703 -1.2535,-3.92731 -0.95793,-1.46029 -2.00555,-4.21678 -2.32803,-6.12553 -0.32249,-1.90876 -1.61172,-4.43376 -2.86495,-5.61112 -1.56191,-1.46734 -2.27862,-3.16122 -2.27862,-5.38535 0,-2.31726 -0.72026,-3.91222 -2.51989,-5.58005 -2.74423,-2.54327 -4.20518,-2.22081 -6.65506,1.46891 -1.28423,1.93416 -1.22558,2.05768 0.97706,2.05768 2.69437,0 3.93299,1.27083 4.80804,4.93306 0.34027,1.42412 1.86776,3.70224 3.39442,5.06249 1.66632,1.4847 3.01788,3.82212 3.3816,5.8482 0.62981,3.50844 3.11179,8.53125 4.21566,8.53125 0.34929,0 0.85476,-0.5725 1.12327,-1.27223 z m 78.10808,-3.1809 c 0.28839,-0.90234 0.95698,-2.54823 1.48577,-3.65755 0.52879,-1.1093 0.75059,-2.58587 0.49289,-3.28125 -0.32711,-0.88268 -0.666,-0.69835 -1.12271,0.61068 -0.56515,1.61983 -1.99265,4.93582 -3.1278,7.26562 -0.18842,0.38672 0.12769,0.70313 0.70247,0.70313 0.57478,0 1.281,-0.73828 1.56938,-1.64063 z m -70.89568,-3.51562 c 0.94085,-1.13365 0.91766,-1.41072 -0.11959,-1.42931 -1.78252,-0.032 -4.56791,-5.96674 -4.56791,-9.73279 0,-1.71396 -0.84375,-4.18895 -1.875,-5.49997 -1.03125,-1.31101 -1.875,-2.88618 -1.875,-3.50037 0,-0.61418 -0.58764,-2.44608 -1.30588,-4.07088 -0.71823,-1.6248 -1.55812,-3.71688 -1.8664,-4.64908 -0.51249,-1.54963 -0.84668,-1.47662 -3.89946,0.85184 -3.37994,2.57801 -3.12098,4.07574 0.71063,4.10996 1.9072,0.0171 3.54861,2.74661 3.54861,5.90117 0,1.24305 0.88263,3.05884 1.9614,4.03512 1.47887,1.33836 1.84181,2.51193 1.47531,4.77042 -0.37346,2.30136 0.041,3.56408 1.78861,5.44982 1.25107,1.34993 2.27468,3.0655 2.27468,3.81237 0,1.77285 2.26277,1.7437 3.75,-0.0483 z m 67.73437,-7.94409 c 3.95789,-8.40947 4.18212,-9.81069 1.92746,-12.04475 -1.46979,-1.45637 -1.54416,-1.45735 -0.99769,-0.0132 0.32477,0.85825 -0.27163,3.17857 -1.32533,5.15625 -1.05371,1.97769 -2.25951,5.07236 -2.67957,6.87705 -0.42005,1.80469 -1.05662,4.23047 -1.41458,5.39063 -1.48573,4.8152 1.21991,1.5815 4.48971,-5.36597 z m -60.8866,4.66284 c 0.58819,0 0.1318,-0.65674 -1.01417,-1.45941 -1.33421,-0.93451 -2.0836,-2.43194 -2.0836,-4.16342 0,-1.48721 -0.42188,-2.96475 -0.9375,-3.28342 -0.51563,-0.31867 -0.9375,-1.84787 -0.9375,-3.39821 0,-1.55035 -0.46957,-3.69619 -1.04348,-4.76856 -0.5739,-1.07236 -1.18045,-3.25947 -1.34787,-4.86024 -0.16741,-1.60077 -0.59433,-4.28158 -0.94871,-5.95736 -0.5026,-2.37676 -0.33297,-3.04688 0.7713,-3.04688 1.7062,0 4.44376,3.93297 4.44376,6.38422 0,0.96947 0.80358,2.48991 1.78573,3.37875 0.98215,0.88883 2.02321,3.37999 2.31347,5.53591 1.85891,13.80724 1.78905,13.60434 4.3383,12.59902 1.36788,-0.53944 1.85581,-1.10746 1.17188,-1.36421 -0.64454,-0.24197 -1.17188,-1.15466 -1.17188,-2.02822 0,-0.87355 -0.65044,-2.51689 -1.44541,-3.65188 -0.86322,-1.23242 -1.35323,-3.6257 -1.21657,-5.94186 0.15596,-2.64319 -0.23833,-4.21984 -1.23811,-4.95091 -0.96406,-0.70493 -1.61316,-3.09392 -1.89344,-6.96873 -0.42475,-5.87214 -0.4167,-5.89495 1.9804,-5.61597 2.05626,0.23932 2.7019,1.16781 4.43217,6.37388 1.2251,3.68611 1.83177,7.29921 1.53551,9.14476 -0.32118,2.00073 0.0641,3.89634 1.11921,5.50664 1.28508,1.96128 1.40061,2.91297 0.57386,4.72747 -1.4127,3.10055 -1.3419,3.29511 1.07425,2.95196 1.73721,-0.24672 2.05513,-0.7958 1.80188,-3.11208 -0.16912,-1.54688 -0.42174,-4.71094 -0.56138,-7.03125 -0.13963,-2.32031 -0.80714,-5.37866 -1.48335,-6.79633 -1.01621,-2.13044 -1.01315,-3.23309 0.0176,-6.35628 0.95217,-2.8851 0.98769,-4.03808 0.15023,-4.87554 -2.16099,-2.16097 -1.29144,-4.47185 1.68265,-4.47185 3.72974,0 5.10227,2.69289 4.33201,8.49937 -0.35223,2.65524 -0.21161,4.72351 0.34453,5.06722 0.55132,0.34074 0.8197,4.05035 0.64938,8.97583 l -0.29031,8.39508 2.65494,0 c 3.12598,0 3.07192,0.18645 1.09499,-3.7764 -1.45535,-2.91731 -1.45508,-3.30968 0.004,-5.85199 1.4566,-2.53798 1.45738,-2.9054 0.0113,-5.35329 -1.44818,-2.45158 -1.44496,-2.89722 0.048,-6.62855 1.31568,-3.28819 1.40198,-4.47972 0.48487,-6.69382 -1.37707,-3.32457 -0.63914,-4.18376 2.61146,-3.04059 3.09999,1.09021 4.60278,5.83899 3.15871,9.98144 -0.67912,1.94812 -0.67484,3.35991 0.0141,4.64715 0.69625,1.30095 0.69135,2.70429 -0.0165,4.73489 -0.55333,1.58728 -1.00605,4.68435 -1.00605,6.88241 0,3.92482 0.0665,4.00768 3.71047,4.62332 7.08221,1.19654 8.61285,-0.63872 8.86998,-10.63524 0.0892,-3.47001 0.60659,-5.36611 1.67782,-6.1494 1.18372,-0.86556 1.42456,-2.05844 1.0218,-5.06121 -0.42794,-3.19277 -0.24628,-3.92872 0.97006,-3.92872 1.80096,0 2.97419,2.08065 3.82197,6.77806 0.47131,2.61144 0.005,5.22249 -1.843,10.3125 -2.78056,7.6599 -3.18669,9.93462 -1.82255,10.20815 1.38116,0.27693 4.04728,-5.62813 4.53715,-10.04914 0.23428,-2.1143 1.10222,-5.15194 1.92878,-6.75032 3.10553,-6.00545 1.93124,-9.0159 -5.05968,-12.97105 -4.6513,-2.6315 -18.11361,-5.9657 -24.08737,-5.9657 -8.62292,0 -22.25769,4.12131 -30.93813,9.35149 l -5.80676,3.49871 2.79398,2.06567 c 1.59002,1.17556 3.03871,3.28938 3.36192,4.90548 0.31239,1.56189 1.14079,3.05961 1.84091,3.32828 0.80143,0.30754 1.27295,1.99415 1.27295,4.55334 0,2.43227 0.78294,5.39185 1.9494,7.36884 1.07216,1.81718 1.68008,3.73974 1.35092,4.27234 -0.89328,1.44536 0.43918,3.04799 2.02744,2.43851 0.76345,-0.29296 1.86933,-0.53266 2.45751,-0.53266 z M 256.875,377.38786 c 0,-1.2648 0.49143,-3.3782 1.09206,-4.69643 0.80566,-1.76825 0.82424,-3.26939 0.0709,-5.72418 -0.78564,-2.55986 -0.72809,-4.02892 0.24948,-6.36858 0.81295,-1.94567 0.96146,-3.52996 0.41226,-4.39805 -0.47214,-0.74628 -0.8649,-2.09515 -0.87279,-2.9975 -0.0219,-2.51023 3.45444,-2.00384 5.27043,0.76772 1.37664,2.10103 1.43922,3.16161 0.49037,8.31122 -0.59824,3.24658 -1.08768,7.16237 -1.08768,8.70176 0,4.54334 -1.83633,8.70368 -3.84172,8.70368 -1.26804,0 -1.78328,-0.66443 -1.78328,-2.29964 z m 22.5232,6.45736 c 0.50287,-1.32263 0.9143,-3.38035 0.9143,-4.5727 0,-1.19237 0.63281,-2.69312 1.40625,-3.33502 0.77344,-0.6419 1.40625,-2.36121 1.40625,-3.82068 0,-1.45948 0.4839,-3.71564 1.07533,-5.01369 0.82853,-1.81841 0.80415,-2.68687 -0.10622,-3.7838 -1.88004,-2.2653 -2.6506,-0.92844 -3.36106,5.83116 -0.36524,3.47504 -1.3885,7.37295 -2.27391,8.66201 -0.88542,1.28906 -2.07431,3.71484 -2.64198,5.39062 -0.93381,2.75664 -0.85595,3.04688 0.81731,3.04688 1.12263,0 2.20875,-0.94506 2.76373,-2.40478 z M 74.373551,354.05905 c 1.166547,-3.18787 0.750153,-22.56422 -0.718491,-33.43405 -1.39372,-10.31529 -4.662641,-24.89712 -7.145665,-31.875 -3.958791,-11.12513 -5.411846,-14.57867 -9.861177,-23.4375 -2.719202,-5.41406 -5.817772,-11.74219 -6.885712,-14.0625 -1.911629,-4.1534 -4.252507,-8.43982 -9.193662,-16.83473 -3.164822,-5.37695 -5.9944,-11.16606 -11.246259,-23.00902 -7.844602,-17.6896 -9.726207,-22.9191 -16.191315,-45 -0.816983,-2.79033 -1.757338,-7.99868 -3.7237856,-20.625 C 8.1029072,137.40473 8.7972036,114.05769 10.731758,101.25 13.9986,79.621932 20.055142,61.689101 28.167615,49.624123 36.13723,37.771604 41.292641,32.826791 50.093833,28.593589 c 10.089974,-4.853083 19.650483,-6.044785 26.852472,-3.347116 2.79672,1.047575 7.760323,4.127703 11.03023,6.84473 7.207924,5.9892 10.279418,11.576534 13.859245,25.211315 2.26925,8.643098 2.54878,11.350282 2.5049,24.259982 -0.0562,16.530206 -1.62269,24.6358 -7.287493,37.70778 -3.040359,7.01585 -3.125625,7.45225 -1.080834,5.53127 9.280467,-8.71855 13.739867,-23.22241 13.994737,-45.51684 0.10233,-8.950915 -0.29781,-16.18981 -1.0919,-19.75346 C 107.62342,53.913614 100.23902,37.867283 98.089434,36.09375 97.464478,35.578125 96.021909,33.630548 94.883728,31.765803 92.501464,27.862812 87.435953,24.256734 80.389211,21.447328 73.799569,18.820159 62.581245,19.517647 54.090165,23.082446 38.763563,29.516992 29.546421,34.758429 26.25,38.914085 18.223176,49.033155 10.48598,70.189237 7.4975599,90.189533 6.5500851,96.530606 5.2739704,102.98438 4.6617496,104.53125 c -2.4119624,6.09421 1.1937106,52.83537 5.062397,65.625 0.7798474,2.57812 2.2509504,7.85156 3.2691184,11.71875 2.68479,10.19732 7.736468,23.60585 12.53874,33.28125 2.303321,4.64062 4.763432,9.91406 5.466914,11.71875 0.703482,1.80469 2.414301,4.97109 3.801821,7.03645 4.650225,6.92199 21.16061,38.72252 24.631984,47.44348 1.35706,3.40928 3.316154,9.94834 4.353544,14.53125 4.258727,18.81394 4.868528,24.06599 4.994935,43.02007 0.06877,10.3125 0.475087,19.29148 0.902913,19.95329 0.588848,0.91088 1.176549,0.68308 2.418548,-0.9375 0.902374,-1.17743 1.924273,-2.91578 2.270887,-3.86299 z m 13.472833,-21.7153 c 7.6917,-9.63097 8.039063,-10.80358 5.331281,-17.99749 -1.228943,-3.26499 -3.117652,-9.41061 -4.197132,-13.65694 -2.667146,-10.49166 -9.634541,-29.8035 -12.086913,-33.50182 -0.51287,-0.77344 -1.969474,-3.72656 -3.236898,-6.5625 -2.168512,-4.85217 -4.517844,-9.14348 -12.953597,-23.66116 -1.933594,-3.32765 -3.515625,-6.56523 -3.515625,-7.19461 0,-0.62938 -1.054688,-2.5271 -2.34375,-4.21715 C 53.554687,223.86203 52.5,222.20732 52.5,221.87495 c 0,-0.33238 -2.908823,-6.66802 -6.464051,-14.0792 C 40.293671,195.82548 37.445673,187.93764 30.922518,165.9375 28.867812,159.00775 26.565927,143.65924 25.676601,130.95876 24.711063,117.1699 27.7485,94.118747 32.283857,80.816185 35.041688,72.72725 43.003905,54.324777 44.53545,52.5 c 0.649151,-0.773438 1.495963,-2.438721 1.881806,-3.700629 1.147947,-3.754393 9.643099,-11.96534 16.287553,-15.742655 L 68.90625,29.53125 65.104531,29.251896 c -4.817979,-0.35403 -11.723719,2.541453 -15.733522,6.596852 -1.662719,1.681626 -5.238878,4.953526 -7.947022,7.27089 -5.326805,4.558156 -7.002336,6.830804 -13.481976,18.286612 -8.164678,14.434903 -12.708822,32.014927 -13.588193,52.56893 -0.593783,13.87878 0.218492,23.43954 3.618188,42.58732 1.052819,5.92969 2.311141,13.10156 2.796273,15.9375 0.99717,5.82917 6.66645,23.15989 9.200339,28.125 0.921003,1.80469 2.41146,5.60156 3.312128,8.4375 0.900667,2.83594 2.377146,6.42187 3.281065,7.96875 3.029048,5.18361 11.639093,21.51289 13.841007,26.25 1.19837,2.57812 2.595644,5.32031 3.105055,6.09375 0.897861,1.36322 5.035506,9.89128 11.826267,24.375 3.21124,6.84911 5.062681,12.32873 8.710913,25.78125 0.978838,3.60937 2.491609,8.46094 3.361713,10.78125 1.884382,5.0251 2.692764,19.10088 1.524743,26.54926 -0.961276,6.12998 -0.415807,7.29728 1.974988,4.22647 0.934335,-1.20009 4.057284,-5.13511 6.939887,-8.74448 z m 171.372366,0.46875 c -0.31867,-0.51563 -1.5843,-0.9375 -2.8125,-0.9375 -1.2282,0 -2.49382,0.42187 -2.8125,0.9375 -0.34549,0.55901 0.78996,0.9375 2.8125,0.9375 2.02254,0 3.15799,-0.37849 2.8125,-0.9375 z M 266.25,321.78618 c 0,-1.57754 -5.37848,-7.72368 -6.75899,-7.72368 -1.01473,0 1.73605,6.51296 3.63879,8.61546 1.6753,1.85118 3.1202,1.43821 3.1202,-0.89178 z m -16.16605,-0.45806 c -0.21163,-0.64453 -1.59386,-1.31322 -3.07159,-1.48598 -2.35949,-0.27584 -2.53656,-0.13309 -1.45353,1.17188 1.46501,1.76523 5.0841,2.01645 4.52512,0.3141 z M 110.67731,309.58494 c 14.30962,-15.58425 16.90679,-43.77153 6.18999,-67.18013 -2.53499,-5.53714 -14.2867,-18.55538 -18.853475,-20.88541 -4.264214,-2.17566 -19.820135,-15.01323 -21.697828,-17.90619 -0.899394,-1.3857 -3.266626,-4.24097 -5.260518,-6.34505 -5.283359,-5.57531 -6.395203,-7.41823 -8.346722,-13.83498 -2.461592,-8.0939 -2.299783,-17.5091 0.414283,-24.10604 2.710002,-6.58706 9.229771,-15.74397 17.563511,-24.66766 3.575522,-3.82864 6.500949,-7.35411 6.500949,-7.8344 0,-0.48029 1.000385,-1.81306 2.223077,-2.96172 2.959747,-2.78053 5.740685,-8.54194 8.878779,-18.39461 C 101.2505,96.171647 101.43367,94.724353 101.32387,81.491024 101.20155,66.748978 99.653728,57.322558 96.216553,50.386937 92.921084,43.737236 83.530871,34.29877 78.17608,32.253757 74.221786,30.743598 73.747097,30.740632 70.672363,32.20687 66.172247,34.352827 58.090369,40.422615 54.012185,44.71928 48.566416,50.456794 39.290319,69.058717 35.172324,82.5 c -3.998809,13.052259 -4.681035,18.9153 -4.690779,40.3125 -0.01004,22.04379 -0.154651,20.83638 5.277374,44.0625 3.581595,15.3141 11.263028,36.49895 19.545914,53.90625 0.981396,2.0625 2.021041,4.38281 2.310322,5.15625 0.289281,0.77344 1.309757,2.67187 2.267723,4.21875 4.870513,7.86465 16.81564,29.58668 18.301636,33.28125 0.933256,2.32031 2.30321,5.27344 3.044341,6.5625 3.983752,6.929 8.515961,19.25617 11.046992,30.04673 1.422388,6.06408 4.651734,13.70436 6.79215,16.0695 1.420883,1.57005 1.636943,1.57178 4.281973,0.0342 1.53207,-0.89058 4.82938,-3.84507 7.32734,-6.56553 z m -0.32933,-114.07607 c 6.29706,-2.27697 7.14067,-2.95867 15.07132,-12.17878 2.73061,-3.17458 6.68711,-10.15627 16.49725,-29.11134 1.60115,-3.09375 5.66601,-8.43042 9.033,-11.85928 6.96486,-7.09283 10.55042,-8.55765 19.84301,-8.10657 4.88676,0.23721 5.99782,0.63235 7.51726,2.67344 1.43679,1.93008 1.59644,2.88565 0.82227,4.92187 -1.05477,2.77427 -0.46822,3.12559 2.03978,1.22174 2.20051,-1.67043 2.10655,-6.82557 -0.19316,-10.59721 -1.33513,-2.18967 -2.78499,-3.18113 -5.38712,-3.68386 -6.47538,-1.25105 -9.13307,-0.76437 -17.167,3.1437 -11.67788,5.68065 -15.12261,9.68109 -25.0205,29.05695 -6.80244,13.31629 -9.27326,17.20548 -14.09914,22.19272 -8.01148,8.27934 -13.7423,10.97666 -24.641797,11.59812 -6.96751,0.39728 -8.242965,0.70133 -7.367421,1.75629 1.890104,2.27744 15.602248,1.66608 23.052248,-1.02779 z m -11.607771,-4.71974 c 1.971181,-0.32297 6.326441,-2.09468 9.678351,-3.93713 7.91119,-4.34854 14.06622,-11.74086 19.60772,-23.54933 2.34462,-4.99615 4.87286,-10.27827 5.61833,-11.73802 1.82364,-3.57101 1.70738,-6.01408 -0.31676,-6.65652 -2.31774,-0.73562 -6.87258,-12.80244 -6.88259,-18.23356 -0.005,-2.38195 0.45698,-8.12769 1.02526,-12.76832 3.00545,-24.542558 3.63999,-36.703361 2.38079,-45.627413 -1.50866,-10.691922 -1.8924,-12.40622 -4.89614,-21.872587 -1.3089,-4.125 -3.10609,-8.34375 -3.99377,-9.375 C 120.07372,36 118.01243,32.775377 116.38076,29.865422 111.59122,21.323653 103.70188,14.293804 94.055063,9.9719409 88.139299,7.321624 86.840489,7.1024223 76.850076,7.068232 65.417693,7.029107 61.263369,8.0999437 54.84375,12.740678 53.296875,13.858913 50.128077,15.600188 47.801977,16.61018 43.199824,18.608432 37.5,23.722453 37.5,25.853365 c 0,1.800568 0.275937,1.740568 6.394469,-1.390402 15.152561,-7.753858 22.786807,-9.501244 33.584068,-7.686985 11.217429,1.884861 18.825635,7.306485 27.345103,19.486176 1.14679,1.639497 3.56687,7.756685 5.37793,13.59375 2.61317,8.422223 3.46886,13.140134 4.14558,22.856723 1.30846,18.787559 -0.29077,30.058973 -6.41008,45.178543 -0.99115,2.44892 -2.31958,5.82367 -2.95206,7.49946 -0.63249,1.67578 -1.66153,3.04687 -2.28676,3.04687 -0.62522,0 -3.947063,2.68853 -7.381866,5.97453 -3.434808,3.28598 -7.441469,6.55551 -8.903694,7.26562 -3.630666,1.76317 -8.315006,5.32881 -12.165087,9.25985 -3.956875,4.04008 -9.560103,15.32827 -9.560103,19.25967 0,5.21995 2.772461,11.42348 6.685129,14.95834 4.41836,3.99172 7.034265,5.13449 13.939871,6.08969 5.13532,0.71033 6.615929,0.66005 13.427709,-0.45607 z m 92.886131,-24.28385 c 4.34889,-1.81708 6.18616,-4.83201 6.18616,-10.15138 0,-5.0365 -1.39583,-5.98227 -2.35872,-1.59822 -0.81782,3.72348 -5.28177,6.48618 -10.4878,6.49081 -4.06647,0.004 -8.71598,-1.5751 -8.71598,-2.95948 0,-0.43285 -0.63281,-0.78701 -1.40625,-0.78701 -1.70798,0 -1.84353,2.83087 -0.23438,4.89441 1.77427,2.27526 8.30938,5.41809 11.26623,5.41809 1.44217,0 4.03,-0.58824 5.75074,-1.30722 z m 64.33693,-8.66957 c 3.00755,-1.99721 16.84923,-15.54017 16.84923,-16.48559 0,-0.39881 -1.01924,-0.72512 -2.26497,-0.72512 -1.55999,0 -3.21679,1.24016 -5.32298,3.98437 -1.68189,2.19141 -5.5737,6.41016 -8.64845,9.375 -5.3033,5.11373 -5.63288,7.185 -0.61283,3.85134 z m 47.77017,-24.26602 c -3.16213,-4.596 -6.80721,-6.23619 -11.50459,-5.17676 -6.63422,1.49626 -6.86191,3.79229 -0.37664,3.79808 4.66124,0.004 9.60141,2.73345 11.16692,6.16936 1.01301,2.22332 1.20489,2.29183 2.28433,0.81561 0.99274,-1.35767 0.74536,-2.241 -1.57002,-5.60629 z m -23.14168,-2.69957 c 3.95267,-3.02362 5.74878,-5.70953 4.82144,-7.21 -0.38663,-0.62557 -1.3493,-0.29518 -2.62148,0.89971 -3.68588,3.46197 -14.64008,4.86579 -22.4547,2.87762 -2.16192,-0.55002 -5.61827,-2.23975 -7.68077,-3.75496 -11.07003,-8.13252 -26.25613,-11.91256 -36.09375,-8.98425 -2.83594,0.84415 -5.77685,1.93757 -6.53535,2.42982 -2.39201,1.55234 -0.3596,2.10931 3.48919,0.95619 2.03438,-0.60952 7.03881,-0.95517 11.12095,-0.76811 8.12459,0.3723 13.80977,2.6831 26.98121,10.96681 8.93756,5.62095 9.45531,5.78084 17.91275,5.53172 6.65751,-0.1961 7.89996,-0.52687 11.06051,-2.94455 z m -0.84796,-8.37467 c 5.04231,-3.30385 2.23184,-10.18422 -4.69046,-11.48286 -5.53656,-1.03866 -24.59404,3.39075 -25.4343,5.91155 -0.15344,0.46031 1.09998,1.54941 2.78537,2.42023 1.68538,0.87081 4.5409,2.45744 6.34559,3.52582 2.7733,1.64183 4.46308,1.88711 10.91568,1.58448 5.11834,-0.24005 8.4398,-0.88576 10.07812,-1.95922 z"
     id="path27170"
     inkscape:connector-curvature="0" />
</svg>
