<?xml version="1.0" encoding="UTF-8" standalone="no"?>
<!-- Created with Inkscape (http://www.inkscape.org/) -->

<svg
   xmlns:dc="http://purl.org/dc/elements/1.1/"
   xmlns:cc="http://creativecommons.org/ns#"
   xmlns:rdf="http://www.w3.org/1999/02/22-rdf-syntax-ns#"
   xmlns:svg="http://www.w3.org/2000/svg"
   xmlns="http://www.w3.org/2000/svg"
   xmlns:sodipodi="http://sodipodi.sourceforge.net/DTD/sodipodi-0.dtd"
   xmlns:inkscape="http://www.inkscape.org/namespaces/inkscape"
   id="svg27180"
   version="1.1"
   inkscape:version="0.91 r13725"
   width="335.625"
   height="618.75"
   viewBox="0 0 335.625 618.75"
   sodipodi:docname="JugHead2.svg">
  <metadata
     id="metadata27186">
    <rdf:RDF>
      <cc:Work
         rdf:about="">
        <dc:format>image/svg+xml</dc:format>
        <dc:type
           rdf:resource="http://purl.org/dc/dcmitype/StillImage" />
        <dc:title></dc:title>
      </cc:Work>
    </rdf:RDF>
  </metadata>
  <defs
     id="defs27184" />
  <sodipodi:namedview
     pagecolor="#ffffff"
     bordercolor="#666666"
     borderopacity="1"
     objecttolerance="10"
     gridtolerance="10"
     guidetolerance="10"
     inkscape:pageopacity="0"
     inkscape:pageshadow="2"
     inkscape:window-width="1600"
     inkscape:window-height="837"
     id="namedview27182"
     showgrid="false"
     inkscape:zoom="1.0828283"
     inkscape:cx="167.8125"
     inkscape:cy="309.375"
     inkscape:window-x="-8"
     inkscape:window-y="-8"
     inkscape:window-maximized="1"
     inkscape:current-layer="svg27180" />
  <path
     style="fill:#ffffff"
     d="M 133.125,613.97219 C 108.83221,612.88668 96.446841,611.53692 91.562902,609.44276 89.070935,608.37425 86.483306,607.5 85.812616,607.5 c -1.396233,0 -8.000116,-7.00559 -8.000116,-8.48676 0,-1.82852 2.763968,-6.33889 4.945975,-8.07108 3.529423,-2.80184 9.126152,-12.75936 12.032169,-21.40724 2.721853,-8.09982 3.564665,-16.70815 1.745906,-17.83221 -0.529894,-0.32749 -2.175722,0.7023 -3.657384,2.28843 -3.259931,3.48976 -3.815582,3.53503 -6.629166,0.54011 -2.23031,-2.37406 -5.970767,-3.12215 -7.03125,-1.40625 -1.054104,1.70558 -4.994562,1.04884 -5.625,-0.9375 -0.799164,-2.51795 -2.622488,-2.36202 -5.292225,0.45255 -2.900558,3.05793 -3.999451,2.95596 -6.536129,-0.60648 l -2.112281,-2.96642 -1.347157,2.02892 c -1.5802,2.37991 -4.951757,2.63185 -8.050371,0.60156 -1.950722,-1.27816 -2.302277,-1.27816 -3.363058,0 -1.890068,2.27739 -4.526296,1.67989 -6.111279,-1.38513 -1.497111,-2.89509 -2.736542,-3.51481 -3.75,-1.875 -1.120865,1.81359 -3.83193,0.90797 -5.442171,-1.81795 -0.895226,-1.5155 -2.486914,-3.02816 -3.537086,-3.36148 -1.050171,-0.3333 -2.288483,-1.60307 -2.751807,-2.82171 -1.236593,-3.25249 -0.181591,-24.43785 1.519666,-30.51623 1.39606,-4.98794 1.376755,-5.38206 -0.407337,-8.31577 l -1.872856,-3.07966 -1.642198,3.15952 c -1.811059,3.48441 -2.292209,13.74583 -0.930819,19.85142 0.555135,2.48968 0.426271,4.25647 -0.426702,5.85026 -1.035558,1.93496 -0.996929,2.53511 0.253153,3.93311 2.315045,2.58898 2.432031,5.35902 0.238157,5.63917 -5.659234,0.72266 -10.173592,-7.62146 -11.274649,-20.83949 -0.537134,-6.44822 -0.332824,-8.7763 1.166839,-13.29595 1.827796,-5.50856 2.166428,-16.98659 0.679869,-23.04443 -0.38588,-1.5725 -0.04012,-4.03857 0.893341,-6.37151 1.101244,-2.75228 1.260615,-4.29612 0.575617,-5.57605 -2.418965,-4.51988 -0.437749,-16.54459 3.4301,-20.81852 1.242734,-1.37321 1.384521,-3.0414 0.844847,-9.94008 -0.425934,-5.44475 -0.262269,-9.82384 0.476867,-12.75922 0.87529,-3.47609 0.87544,-5.64984 6.72e-4,-9.78172 -0.618587,-2.92185 -1.593757,-7.54856 -2.167044,-10.28158 -0.573286,-2.733 -2.446422,-7.14846 -4.162523,-9.81212 C 10.779083,391.77384 9.375,388.7076 9.375,387.62364 9.375,386.53969 8.7197423,383.44632 7.9188717,380.7495 7.1180011,378.05268 5.8841248,370.62488 5.1769243,364.24328 4.4697238,357.86169 3.4374815,351.79279 2.8830526,350.75683 1.289558,347.77936 1.6902805,344.36469 4.21875,339.375 c 1.2890625,-2.54384 2.34375,-5.42101 2.34375,-6.39371 0,-0.9727 1.0946913,-4.67813 2.4326473,-8.23429 1.3379557,-3.55616 2.7547257,-8.03058 3.1483767,-9.94314 0.39365,-1.91257 1.376059,-4.44382 2.183129,-5.625 2.848609,-4.16908 21.8044,-23.0472 24.579597,-24.47889 1.546875,-0.79802 3.909271,-2.63899 5.249768,-4.09108 1.340498,-1.45207 4.715498,-3.43148 7.5,-4.39868 2.784503,-0.9672 6.328357,-2.46271 7.875232,-3.32337 1.546875,-0.86065 6.1875,-2.74304 10.3125,-4.18308 14.999249,-5.23629 27.599963,-11.1096 28.2357,-13.16093 0.332222,-1.07199 1.341244,-3.00377 2.24227,-4.29283 1.81343,-2.59442 4.05315,-9.23119 5.53663,-16.40625 0.8762,-4.23788 2.45634,-30.35122 2.18406,-36.09375 -0.65687,-13.85369 -6.42816,-31.752 -13.776307,-42.72393 -5.794449,-8.65204 -14.956214,-13.7954 -29.004089,-16.28272 -6.427923,-1.13814 -8.074514,-2.23698 -8.074514,-5.38853 0,-6.06199 5.282554,-10.5277 15.950311,-13.48388 3.756338,-1.04094 7.907255,-2.74021 9.224257,-3.77617 1.317004,-1.03595 3.468844,-1.79337 4.781867,-1.68316 1.313023,0.11022 5.129502,-0.0652 8.481065,-0.38964 3.351562,-0.32452 24.65625,-0.84764 47.34375,-1.16248 22.6875,-0.31484 43.35937,-0.85499 45.9375,-1.20034 l 4.6875,-0.6279 0.5925,-12.1875 c 0.34843,-7.166989 1.22503,-14.118466 2.12798,-16.875 0.84451,-2.578125 1.96269,-8.0625 2.48484,-12.1875 2.52997,-19.987015 11.192,-38.151919 24.32593,-51.013268 10.16173,-9.9508298 26.58607,-15.8442526 46.4961,-16.683841 19.77567,-0.8339231 30.32489,3.2756867 43.83038,17.074795 6.53813,6.680271 12.76058,16.114319 14.52946,22.028564 5.06003,16.91811 5.30031,18.639382 5.30031,37.96875 0,16.413066 -0.32561,20.56112 -2.61253,33.28125 -1.43689,7.99219 -3.20924,16.64062 -3.93855,19.21875 -0.72932,2.57812 -2.02009,7.85156 -2.86839,11.71875 -0.84829,3.86719 -2.78575,11.25 -4.30545,16.40625 -3.45367,11.71809 -10.98033,39.8585 -12.02069,44.94249 -0.42853,2.09414 -1.42025,6.97157 -2.20383,10.83876 -0.78359,3.86719 -1.90858,8.28896 -2.49998,9.82617 -2.77433,7.2112 -4.08465,19.1615 -4.21651,38.45508 -0.14565,21.31277 -1.50051,30.20401 -6.42272,42.14882 l -2.302,5.58632 2.00782,2.85118 c 1.1043,1.56815 2.10385,3.27305 2.2212,3.78868 0.11735,0.51562 1.68948,4.54693 3.49364,8.95846 3.15604,7.7172 3.99689,11.61247 6.26223,29.01029 1.34677,10.3431 0.75198,19.64204 -4.40743,68.90625 -1.46734,14.01083 -4.70467,28.93537 -7.41215,34.17106 -2.05291,3.9699 -16.03782,18.50059 -23.06768,23.96794 -7.53329,5.85887 -12.07169,7.95971 -18.8182,8.71096 l -5.95128,0.66269 0.28642,8.43118 c 0.56263,16.56131 7.31751,42.05436 16.0207,60.46242 3.80814,8.05459 11.72296,20.43714 15.1612,23.7194 3.61429,3.4503 3.47031,5.20193 -0.7652,9.30951 -13.20301,12.80426 -78.35324,21.27824 -141.79687,18.44328 z m 40.78125,-11.24233 c 8.25,-0.5001 22.38281,-1.3037 31.40625,-1.78578 20.34612,-1.087 26.14814,-1.81509 48.75,-6.11761 3.86719,-0.73616 8.53999,-1.56614 10.384,-1.8444 1.84401,-0.27826 4.08086,-1.03833 4.97077,-1.68904 1.50756,-1.10236 1.45737,-1.40556 -0.73512,-4.4412 -9.57231,-13.25343 -18.76704,-27.82222 -20.74875,-32.87582 -5.39504,-13.75797 -9.88814,-31.28618 -14.03388,-54.74821 -1.57917,-8.937 -2.92776,-13.94125 -4.23265,-15.7062 -10.82212,-14.63772 -18.66629,-33.37612 -20.11561,-48.05285 -1.31369,-13.30317 -1.41853,-13.73542 -2.95816,-12.19578 -0.77799,0.778 -2.00236,1.41453 -2.72083,1.41453 -1.60283,0 -3.24727,2.8987 -3.24727,5.72408 0,1.27106 -1.71268,3.73836 -4.34734,6.2628 -4.04867,3.87932 -4.62484,4.1342 -8.38688,3.71016 -3.74003,-0.42155 -4.0607,-0.28354 -4.32455,1.8613 -0.27824,2.26183 -3.48371,4.07281 -9.91055,5.59913 -2.57504,0.61155 -5.50535,4.55255 -7.76162,10.43866 -1.2658,3.30219 -2.09677,4.29422 -3.39447,4.05237 -0.94508,-0.17615 -1.85984,-0.70612 -2.03279,-1.17772 -0.574,-1.56525 -2.0293,0.16653 -2.0293,2.41483 0,1.21684 -0.73504,3.49318 -1.63343,5.05852 -1.5529,2.70578 -1.5529,2.98239 0,5.61125 0.89839,1.52084 1.63343,3.64929 1.63343,4.72989 0,2.20069 1.17525,2.56399 2.56484,0.79285 C 162.57337,477.76324 165,469.51083 165,466.17051 c 0,-2.51878 0.34012,-3.11749 1.62986,-2.86911 2.14296,0.4127 2.44784,2.42736 1.65222,10.9178 -0.61803,6.59537 -0.90153,7.293 -4.35192,10.70907 -2.02995,2.00975 -4.35946,5.32521 -5.17669,7.36769 -0.88688,2.21652 -2.55895,4.26847 -4.14773,5.09007 -1.7997,0.93067 -2.97078,2.52379 -3.61567,4.91877 -0.52462,1.94825 -2.39511,4.9392 -4.15665,6.64657 -2.01884,1.95673 -3.61821,4.71708 -4.3265,7.46708 -0.61802,2.39954 -1.5725,5.62842 -2.12106,7.1753 -1.14576,3.23092 -5.21165,7.96875 -6.8386,7.96875 -0.60607,0 -2.6933,1.26466 -4.6383,2.81034 -1.945,1.5457 -5.10069,3.23158 -7.01266,3.74642 -1.91197,0.51484 -4.99832,2.41425 -6.85858,4.22091 -1.92564,1.87016 -4.3345,3.28483 -5.59331,3.28483 -1.21607,0 -2.86777,0.52734 -3.67044,1.17187 -2.42134,1.94432 -5.16702,8.3103 -6.368482,14.76563 -0.623785,3.35156 -1.446,6.51562 -1.827141,7.03125 -0.381141,0.51562 -1.465219,3.04687 -2.409066,5.625 -0.943847,2.57812 -1.971399,4.89844 -2.283453,5.15625 -0.312054,0.25781 -1.580266,2.47857 -2.81825,4.93502 -1.237983,2.45645 -2.814324,4.93388 -3.502978,5.50541 -1.580711,1.31187 -1.634912,6.0829 -0.08022,7.06171 0.644531,0.40579 3.368653,1.48433 6.053604,2.39677 13.951928,4.74133 41.124388,5.89542 81.368268,3.45595 z M 92.867485,542.34375 c 2.328665,-3.61243 2.343843,-9.76473 0.03399,-13.77454 -0.982316,-1.70525 -2.058181,-4.78796 -2.390813,-6.85046 -0.833126,-5.16584 -3.643718,-8.77032 -5.799265,-7.43735 -3.345947,2.06912 -3.464646,3.56255 -0.924574,11.63266 1.644088,5.22346 2.463182,9.93232 2.463182,14.16045 0,3.48405 0.275805,7.05338 0.6129,7.93183 0.542329,1.41328 0.818933,1.34115 2.402241,-0.62644 0.984136,-1.22301 2.605191,-3.48928 3.602344,-5.03615 z m -38.49837,4.69459 c 0.789106,-0.95081 0.965791,-2.97859 0.551385,-6.32813 -0.411292,-3.32435 -0.144851,-6.45496 0.818444,-9.61646 2.597581,-8.52518 1.622568,-12.65625 -2.987117,-12.65625 -2.760354,0 -2.795785,0.11931 -3.986121,13.42228 -0.946313,10.5758 -0.902449,11.2033 0.966587,13.82813 2.218085,3.11501 2.986595,3.33883 4.636822,1.35043 z m 12.550673,-0.43347 c 3.067461,-1.16624 4.190545,-6.44338 2.385923,-11.21094 -0.700064,-1.84947 -1.498208,-5.88002 -1.773652,-8.95677 -0.438464,-4.8977 -0.824682,-5.773 -3.102467,-7.03125 -2.308966,-1.27548 -2.703374,-1.27896 -3.505778,-0.0309 -0.497265,0.77344 -0.752448,1.82813 -0.567074,2.34375 0.185375,0.51563 0.0054,4.92925 -0.399933,9.80805 -0.601544,7.2404 -0.468967,9.39397 0.721419,11.71875 1.197591,2.33886 2.796317,4.1641 3.713868,4.2401 0.09534,0.007 1.232802,-0.38845 2.527694,-0.88077 z m 15.4625,-3.75096 3.010567,-4.6461 -1.815418,-3.55703 c -0.998481,-1.95637 -2.70406,-4.36069 -3.790178,-5.34296 -1.541692,-1.39427 -1.974759,-2.89129 -1.974759,-6.82629 0,-6.02763 -1.684075,-7.30597 -5.232821,-3.9721 -2.037499,1.91414 -2.252274,2.71111 -1.737301,6.44673 0.32319,2.34443 1.390868,6.94375 2.37262,10.22072 0.981751,3.27697 1.785002,7.109 1.785002,8.51562 0,5.53806 3.508617,5.1395 7.382288,-0.83859 z m -38.715607,-4.01536 c -0.322237,-2.01516 0.0077,-5.94989 0.750527,-8.95148 0.729025,-2.9457 1.580307,-7.11787 1.891738,-9.27149 0.52683,-3.64315 0.373209,-4.01195 -2.207347,-5.29931 -3.158631,-1.57573 -3.820991,-1.10401 -5.515459,3.92806 -0.771945,2.29245 -0.785505,4.24431 -0.04978,7.16612 0.727084,2.88751 0.72354,4.55289 -0.01262,5.92841 -1.528338,2.85573 -1.240107,5.8885 0.892001,9.38565 1.627747,2.66989 2.123451,2.95256 3.367323,1.92025 1.071657,-0.8894 1.306062,-2.16438 0.883618,-4.80621 z m 60.750749,-0.53325 c 1.21141,-1.91899 2.89275,-4.06188 3.73631,-4.76198 1.36432,-1.13228 1.53376,-0.94951 1.53376,1.65439 0,1.61001 0.43117,2.92729 0.95814,2.92729 1.61742,0 6.54186,-8.64175 6.54186,-11.4801 0,-4.21213 -2.49097,-8.2074 -5.11715,-8.2074 -2.88786,0 -3.80829,2.73626 -2.31216,6.87371 0.79378,2.19517 0.84435,3.64541 0.16918,4.85187 -0.87887,1.57046 -1.0899,1.47546 -2.4151,-1.08721 -0.79865,-1.54441 -3.1672,-3.94303 -5.26343,-5.33024 -3.222431,-2.13251 -3.81134,-3.01775 -3.81134,-5.72915 0,-1.7638 -0.422081,-4.31707 -0.937959,-5.67393 -0.748397,-1.96845 -1.458863,-2.40707 -3.515625,-2.17041 -1.643593,0.18913 -2.510757,0.8062 -2.393022,1.70286 0.533487,4.06301 2.20434,8.49986 4.929006,13.0887 2.809931,4.73242 3.014241,5.63074 2.699269,11.86813 -0.314691,6.2318 -0.213113,6.67986 1.327461,5.85536 0.91753,-0.49104 2.65939,-2.46289 3.8708,-4.38189 z m -70.272723,-4.96599 c -0.474851,-4.819 -0.267425,-7.5129 0.805534,-10.46166 2.659594,-7.30922 2.863709,-10.7907 0.711451,-12.1348 C 34.610261,510.08621 33.75,508.8067 33.75,507.89948 c 0,-2.26642 -1.475545,-2.06799 -3.22809,0.43412 -1.748929,2.49695 -1.872758,7.59403 -0.325072,13.38066 0.983476,3.6771 0.917366,4.60847 -0.497089,7.00295 -1.908202,3.23033 -1.357893,6.9364 1.497063,10.08202 2.870653,3.16292 3.65451,1.7111 2.947895,-5.45992 z m 89.109393,-3.41744 c 6.13851,-6.61482 6.314,-15.87819 0.34026,-17.96065 -4.22478,-1.47276 -4.87508,-0.59625 -4.03053,5.43262 0.40546,2.89432 0.6812,7.47725 0.61278,10.18428 -0.0684,2.70704 0.0577,4.92188 0.2803,4.92188 0.22259,0 1.48132,-1.16016 2.79719,-2.57813 z M 17.821425,523.49542 c -0.728102,-4.2977 -0.491573,-17.41544 0.374347,-20.76105 0.644607,-2.49052 0.516451,-3.04687 -0.70185,-3.04687 -4.328883,0 -5.429532,14.79431 -1.941279,26.09359 0.760464,2.46332 2.736137,0.47294 2.268782,-2.28567 z M 137.31685,516.0497 c 1.71912,-5.05756 1.73014,-5.47117 0.21608,-8.10927 -0.87748,-1.52894 -1.59543,-3.80038 -1.59543,-5.04766 0,-2.6581 -2.59878,-3.13969 -3.38421,-0.62715 -0.28207,0.90235 -1.14401,2.81361 -1.91541,4.24725 -1.2832,2.3848 -1.23704,2.94852 0.54229,6.62412 1.06965,2.20962 1.94483,5.41251 1.94483,7.11754 0,4.42106 1.91161,2.50352 4.19185,-4.20483 z m -30.89624,0.49693 c 1.58212,-1.74821 1.60756,-2.22565 0.33728,-6.32813 -1.03146,-3.33118 -1.89022,-4.51206 -3.44511,-4.73738 -1.26306,-0.18303 -2.30231,0.30223 -2.66358,1.2437 -0.60767,1.58354 2.3864,11.71268 3.46214,11.71268 0.32893,0 1.36811,-0.85089 2.30927,-1.89087 z m -48.202513,-9.15028 c 0.309015,-3.22509 0.804711,-6.10666 1.101546,-6.40349 0.641023,-0.64103 1.727804,6.7851 1.386756,9.47589 -0.195472,1.54223 0.386285,1.92664 3.277976,2.16597 l 3.515625,0.29096 0,-4.27533 c 0,-5.12295 1.499543,-5.54484 4.238127,-1.19236 1.441977,2.29175 2.561408,3.01076 4.6875,3.01076 3.03511,0 3.116107,-0.37304 1.781128,-8.20312 -0.329665,-1.9336 -0.329409,-3.51563 5.68e-4,-3.51563 0.329979,0 1.8964,1.47656 3.480937,3.28125 1.992236,2.26903 3.68322,3.28125 5.481565,3.28125 4.40422,0 4.934475,-1.87781 1.833905,-6.49445 -2.823932,-4.20473 -3.732743,-8.96951 -1.581855,-8.29347 1.005344,0.31599 3.786181,4.83761 4.756588,7.73419 0.168601,0.50326 1.751331,0.80269 3.517168,0.6654 8.480949,-0.65936 14.179249,2.56465 15.324709,8.6705 0.58676,3.12765 2.78444,5.02391 3.84107,3.31425 1.12602,-1.82193 0.67592,-13.59789 -0.60806,-15.90892 -4.39152,-7.90424 -7.97291,-13.125 -9.00363,-13.125 -2.00861,0 -1.31572,4.39093 1.15653,7.32903 3.87868,4.60955 2.80481,6.73347 -3.40448,6.73347 -4.322226,0 -8.071608,-2.38597 -8.77387,-5.58337 -0.338663,-1.54189 -1.927144,-3.90691 -3.529963,-5.25559 -3.650801,-3.07196 -7.492495,-2.56524 -11.301597,1.49066 -3.167503,3.37273 -9.275843,6.6615 -13.77134,7.41458 -2.712875,0.45446 -3.332634,0.99433 -3.577896,3.1167 -0.163156,1.41186 -0.736233,2.56702 -1.273507,2.56702 -0.54739,0 -0.742091,-0.9354 -0.442863,-2.12762 0.438412,-1.74677 -0.200492,-2.5923 -3.569208,-4.72351 -2.416271,-1.52865 -4.49334,-3.71502 -5.052144,-5.318 -0.733046,-2.10283 -1.833564,-2.96033 -4.837258,-3.76915 -5.420518,-1.45959 -6.970527,-0.96319 -7.345704,2.35255 -0.174531,1.54246 -0.71985,3.29124 -1.211819,3.88617 -1.194288,1.44423 -3.965631,12.48603 -3.300711,13.15095 0.288085,0.28808 1.544297,0.26766 2.79158,-0.0454 1.544275,-0.38759 2.440473,-1.43259 2.809047,-3.27545 0.297691,-1.48846 1.239954,-2.9744 2.093918,-3.3021 1.628623,-0.62496 1.622367,0.007 -0.09692,9.78117 -0.519338,2.95262 -0.306743,3.45534 1.88314,4.45312 3.746481,1.70701 4.25426,1.42258 4.268147,-2.39087 0.01736,-4.76813 0.943316,-7.88476 2.21594,-7.45855 0.613694,0.20554 1.053529,2.5816 1.054957,5.69905 0.0025,5.47645 1.194242,7.42786 4.216301,6.90403 0.99971,-0.17329 1.568678,-1.93896 1.968097,-6.10755 z m 66.110333,-2.58842 c 1.87777,-2.86585 1.27629,-13.00872 -1.11012,-18.72024 -2.58457,-6.18572 0.46536,-10.85956 3.78267,-5.79672 2.02264,3.08695 4.22697,10.82916 4.23888,14.88807 0.006,1.90317 0.38421,3.69149 0.84141,3.97406 1.7678,1.09255 3.18518,-2.60766 3.97185,-10.3689 0.77135,-7.60997 0.67661,-8.40468 -1.60895,-13.4976 -2.65356,-5.91293 -3.37157,-11.26523 -1.59525,-11.89155 1.54997,-0.54652 6.4872,7.56413 8.25327,13.55807 1.43372,4.86597 2.52434,5.95389 3.83793,3.82845 0.7558,-1.22291 0.60709,-17.2095 -0.18387,-19.76595 -1.0819,-3.4968 1.5055,-1.41572 3.30906,2.66153 2.90915,6.57661 4.32403,5.03942 4.04955,-4.3996 -0.26233,-9.02096 -2.7947,-15.93203 -6.44774,-17.59647 -1.89126,-0.86172 -3.24098,-3.86858 -1.73652,-3.86858 1.88915,0 10.04302,7.57045 11.76961,10.92747 1.15201,2.2399 2.45012,4.07253 2.88468,4.07253 1.53843,0 0.67886,-4.31742 -2.42647,-12.1875 -1.86748,-4.73291 -2.80555,-8.32937 -2.31013,-8.85682 1.10802,-1.17971 5.38254,2.03124 8.16116,6.13052 1.19113,1.75728 2.62627,3.35702 3.18918,3.55498 3.03057,1.06579 -4.54777,-16.95489 -7.88014,-18.73832 -1.39855,-0.74848 -1.52609,-1.27641 -0.68708,-2.84412 0.8404,-1.57029 0.66984,-2.26079 -0.92559,-3.74716 -2.76181,-2.57301 -2.58905,-7.77315 0.38793,-11.67616 2.87359,-3.76746 2.87397,-3.79467 0.075,-5.27735 -1.2478,-0.661 -3.56812,-2.84186 -5.15625,-4.84635 -2.4465,-3.0879 -2.8884,-4.44818 -2.89329,-8.90625 -0.004,-3.06345 -0.64143,-6.43675 -1.52725,-8.07422 -0.83681,-1.54688 -2.04537,-4.5 -2.68569,-6.5625 -1.10279,-3.55217 -1.34042,-3.73414 -4.50439,-3.4494 -1.83709,0.16534 -4.19244,-0.15551 -5.23411,-0.713 -2.27945,-1.21993 -7.79897,-12.40002 -7.56447,-15.32229 0.34017,-4.23934 0.0697,-4.46144 -3.08769,-2.53628 -4.56509,2.78339 -9.35806,2.43966 -13.21615,-0.94778 -2.06298,-1.81133 -4.22209,-2.8125 -6.06534,-2.8125 -4.300051,0 -7.569142,-1.56183 -8.765626,-4.18782 -0.94275,-2.0691 -1.485572,-2.28417 -4.534561,-1.79662 -3.818461,0.6106 -7.811617,-1.00204 -10.534151,-4.25422 -1.002345,-1.19737 -2.74323,-1.94884 -4.514739,-1.94884 -3.236005,0 -6.440916,-1.45153 -8.062538,-3.65159 -0.913188,-1.23892 -1.703629,-1.30486 -5.022567,-0.41899 -2.670566,0.71282 -4.996759,0.75923 -7.224467,0.14412 -3.044129,-0.84052 -3.468793,-0.68783 -5.777159,2.07722 -1.807406,2.16498 -3.360294,3.02813 -5.655623,3.14356 -2.423853,0.1219 -3.36266,0.69585 -4.012766,2.45326 -1.163322,3.14476 -4.108427,5.71206 -8.144306,7.09953 -2.343908,0.80579 -4.001619,2.275 -5.37993,4.76815 -1.095681,1.98192 -3.757193,4.80757 -5.914471,6.27921 -3.400274,2.31959 -3.84772,3.01539 -3.361801,5.22776 0.738962,3.36447 -0.577832,6.60696 -4.12274,10.15186 C 10.604753,372.68852 9.4783875,375 10.812416,375 c 1.088031,0 9.716232,-4.71065 10.270316,-5.60717 0.908926,-1.47067 6.789759,-1.13252 10.135699,0.58282 5.412808,2.77494 10.127358,7.42439 17.021933,16.78685 0.777139,1.05532 1.866303,5.17803 2.420364,9.16158 1.105682,7.94956 -0.275024,18.31838 -3.857391,28.96822 C 45.811502,427.84088 45,431.76735 45,433.61778 c 0,1.85044 -0.464442,5.2089 -1.032095,7.46325 -0.769214,3.05482 -0.749974,4.95364 0.07553,7.45496 2.236777,6.77751 5.791897,7.86221 10.943543,3.33901 1.761793,-1.54688 3.842344,-2.8125 4.623445,-2.8125 1.731673,0 6.855074,2.58157 8.613822,4.34032 1.665373,1.66537 3.064535,1.62195 5.629652,-0.17473 4.179314,-2.9273 1.865126,-7.99346 -4.244526,-9.29199 -2.155068,-0.45803 -3.046875,-1.17458 -3.046875,-2.44809 0,-2.34687 3.618062,-2.41334 6.670445,-0.12255 1.229693,0.92287 3.373202,2.16908 4.763356,2.76935 1.8255,0.78826 2.701591,2.01912 3.15414,4.43142 0.63986,3.41075 -0.776994,8.37331 -2.757756,9.65911 -0.576914,0.3745 -1.851296,1.62868 -2.83196,2.78708 -1.774377,2.09596 -1.768236,2.1203 1.266223,5.02019 2.495559,2.3849 3.564094,2.81106 5.884587,2.34696 1.559437,-0.31189 3.927695,-0.56707 5.262796,-0.56707 2.311987,0 2.349399,-0.078 0.786499,-1.64063 -1.178524,-1.17828 -3.145279,-1.64062 -6.97912,-1.64062 -4.33639,0 -5.398549,-0.30788 -5.659929,-1.64063 -0.274462,-1.39944 0.411895,-1.63733 4.668853,-1.61825 8.409023,0.0377 11.879702,1.31748 16.913666,6.23685 2.545059,2.48711 5.198329,5.78765 5.896149,7.33453 1.24211,2.75336 1.28252,2.76734 1.92228,0.66479 0.8941,-2.93841 2.50332,-2.13598 3.49498,1.74273 0.45243,1.76961 1.59028,4.06123 2.52856,5.09248 2.6391,2.9006 7.13305,13.595 7.82053,18.6108 0.95645,6.97802 2.254,7.98575 4.96163,3.85338 z m -8.11165,-24.57356 c -0.0183,-2.96484 -0.63614,-6.44531 -1.37303,-7.73437 -1.89639,-3.31739 -1.73763,-4.59862 0.49743,-4.01414 3.04419,0.79608 4.65882,4.02001 4.65882,9.30231 0,5.7389 -0.65427,7.83683 -2.44405,7.83683 -0.961,0 -1.31472,-1.42387 -1.33917,-5.39063 z m 6.14079,-10.3125 c -0.29694,-1.93359 -1.11024,-6.36328 -1.80734,-9.84375 -1.5652,-7.81472 -0.10127,-8.62661 3.73902,-2.07364 2.45881,4.19564 3.14168,9.34496 1.79989,13.57256 -0.99015,3.11967 -3.14509,2.16384 -3.73157,-1.65517 z m 5.67041,-19.91189 c -3.66404,-11.59874 -3.02451,-14.5644 1.6132,-7.48088 2.9859,4.56057 4.2857,9.0171 3.5259,12.08889 -1.11072,4.49039 -2.72105,3.04646 -5.1391,-4.60801 z m 13.1922,5.54698 c -1.3586,-1.06868 -2.47018,-2.75618 -2.47018,-3.75 0,-3.52229 2.80178,-1.61051 4.61007,3.14564 1.1628,3.05838 1.02821,3.09639 -2.13989,0.60436 z M 135,443.20014 c 0,-0.13054 -0.86052,-3.18914 -1.91227,-6.79687 -2.46749,-8.46406 -3.64358,-14.52827 -2.81761,-14.52827 2.35105,0 8.1699,9.97376 8.48535,14.54426 0.3972,5.75509 0.0588,7.01824 -1.88047,7.01824 -1.03125,0 -1.875,-0.10681 -1.875,-0.23736 z M 57.263643,429.23995 C 56.996021,420.52764 60.19404,401.57633 63.885357,390 c 2.179893,-6.83636 7.196854,-13.56465 12.520185,-16.79093 7.223969,-4.37818 11.297886,-5.57569 21.379149,-6.28434 8.127209,-0.57128 9.226949,-0.43674 13.880299,1.69807 5.52678,2.53551 21.74567,15.11169 22.23187,17.23867 0.52034,2.27629 -3.9787,1.5157 -7.91919,-1.33878 -2.02327,-1.46564 -7.52473,-4.55897 -12.22549,-6.87405 l -8.54683,-4.20925 -6.89955,0.81926 c -15.790426,1.87497 -30.249311,12.87745 -32.721665,24.89952 -0.607739,2.95519 -2.11279,8.53858 -3.344557,12.40753 -1.231768,3.86894 -2.258606,8.7205 -2.281863,10.78125 -0.02326,2.06073 -0.621805,5.01242 -1.330107,6.5593 l -1.287822,2.8125 -0.07614,-2.4788 z m 81.152867,-4.79344 c -3.33009,-12.99745 -3.04207,-14.6459 1.59588,-9.13401 1.30161,1.54687 2.66672,2.8125 3.03357,2.8125 0.36686,0 0.42766,-4.01197 0.13511,-8.91548 -0.33413,-5.60068 -0.19694,-8.70847 0.369,-8.3587 2.10989,1.30398 5.50932,8.09345 5.47128,10.92743 -0.0538,4.0074 -2.29779,10.22595 -4.04239,11.20228 -0.75726,0.42378 -1.66189,2.45778 -2.01029,4.51999 -0.34842,2.06221 -1.12374,3.7465 -1.72295,3.74286 -0.5992,-0.004 -1.87235,-3.06223 -2.82921,-6.79687 z m 10.88036,5.1926 c -1.59809,-0.57325 -1.489,-3.07661 0.13408,-3.07661 1.41439,0 2.78311,2.51581 1.69998,3.12472 -0.3642,0.20474 -1.18952,0.18309 -1.83406,-0.0481 z M 89.53125,409.08298 c -1.546875,-0.80682 -4.289063,-2.43209 -6.09375,-3.61172 -1.804688,-1.17963 -4.889445,-2.65333 -6.855017,-3.27491 -3.691727,-1.16744 -5.790578,-4.28672 -4.735104,-7.03724 0.299629,-0.78083 2.234712,-1.68991 4.300184,-2.02019 2.103424,-0.33635 5.597566,-2.00667 7.943149,-3.79709 4.956929,-3.78371 7.782209,-4.96869 11.829694,-4.9616 5.205664,0.009 9.706154,1.79272 15.749964,6.24191 3.22925,2.37724 6.95181,4.60873 8.27237,4.95886 5.49671,1.45742 2.32903,8.4815 -3.82495,8.4815 -1.39012,0 -5.60857,1.47656 -9.37432,3.28125 -7.572095,3.62883 -12.612854,4.13817 -17.21222,1.73923 z m 18.4673,-6.78857 c 5.89737,-2.29663 6.27536,-3.76975 1.42203,-5.542 -1.65788,-0.60539 -4.2401,-2.16141 -5.73827,-3.45781 -1.49818,-1.2964 -3.700982,-2.3571 -4.895151,-2.3571 -2.909156,0 -11.548316,3.95664 -14.198572,6.50279 -2.431495,2.33598 -2.127192,3.22075 1.998079,5.80952 3.876961,2.43293 13.854344,1.98774 21.411884,-0.9554 z m 38.32181,99.13663 c 0.65347,-1.22103 0.84085,-3.76267 0.47867,-6.49292 -0.71237,-5.37015 0.74446,-6.9546 3.39022,-3.68721 3.0004,3.70533 3.92065,0.62669 3.64334,-12.18841 l -0.0913,-4.21875 -3.19106,6.0851 c -2.09714,3.99906 -4.03608,6.4305 -5.65603,7.09265 -1.66316,0.67981 -3.31174,2.80743 -5.06818,6.54089 l -2.60323,5.53333 2.87298,1.55601 c 3.9514,2.14008 4.98066,2.10358 6.22458,-0.22069 z M 36.5625,489.66744 c 0,-1.61744 -0.996788,-1.55284 -3.541401,0.22947 -1.145979,0.80267 -2.083599,2.29186 -2.083599,3.30932 0,1.79055 0.09024,1.78319 2.8125,-0.22947 1.546875,-1.14365 2.8125,-2.63284 2.8125,-3.30932 z m 35.9415,-1.76999 c 1.328816,-0.50991 2.889277,-3.12917 2.246934,-3.77151 -0.16126,-0.16126 -4.819691,-0.0369 -10.352069,0.27642 l -10.058867,0.56962 3.533126,2.23027 c 2.932487,1.85111 4.356296,2.14588 8.375237,1.73394 2.663162,-0.27298 5.478198,-0.74041 6.255639,-1.03874 z m -46.254,-5.1956 c 0,-0.51563 -0.421875,-0.67677 -0.9375,-0.3581 -0.515625,0.31867 -0.9375,1.00128 -0.9375,1.5169 0,0.51563 0.421875,0.67677 0.9375,0.3581 0.515625,-0.31867 0.9375,-1.00128 0.9375,-1.5169 z m 228.71185,-2.21338 c 1.47469,-0.76259 2.82483,-1.74148 3.00032,-2.1753 0.17549,-0.43384 1.87115,-1.83238 3.76812,-3.10786 1.89699,-1.27549 7.11435,-5.8379 11.59417,-10.1387 9.43372,-9.05676 12.08863,-13.89776 14.05134,-25.62153 0.71142,-4.24948 1.94389,-11.31227 2.73882,-15.69508 0.79492,-4.38281 1.44589,-11.55747 1.4466,-15.94369 7e-4,-4.38621 0.4257,-9.44871 0.94443,-11.25 0.51874,-1.80128 1.17947,-8.12662 1.4683,-14.05631 0.28882,-5.92969 0.92173,-12.67969 1.40645,-15 1.31758,-6.30702 -1.19832,-31.00624 -3.7628,-36.94034 -1.09256,-2.52813 -2.41902,-6.52675 -2.9477,-8.88583 -0.52868,-2.35908 -2.02575,-5.68489 -3.32683,-7.39068 -1.30107,-1.7058 -4.54724,-6.61015 -7.21371,-10.89856 -4.57141,-7.35209 -12.22595,-15.3283 -22.71367,-23.66815 -5.11853,-4.07026 -3.35882,-5.03569 2.51885,-1.38192 2.65619,1.65117 5.46224,2.87716 6.23568,2.72443 0.77345,-0.15273 1.9184,-2.17614 2.54435,-4.49645 0.62596,-2.32031 2.10365,-7.59375 3.28378,-11.71875 2.45491,-8.58087 3.45874,-13.77493 4.71083,-24.375 0.48725,-4.125 1.51981,-10.66406 2.29459,-14.53125 0.77478,-3.86719 2.07387,-10.61719 2.88687,-15 0.813,-4.38281 2.46767,-11.13281 3.67706,-15 3.10685,-9.93468 6.78105,-22.85984 8.528,-30 2.9752,-12.16028 3.97893,-15.85868 6.77347,-24.95783 2.71644,-8.84488 3.78441,-13.72005 7.88187,-35.97967 0.99659,-5.414063 2.03696,-15.75 2.31194,-22.96875 0.99159,-26.031974 -5.06236,-41.833194 -18.73686,-48.904555 -3.6305,-1.877409 -16.37849,-1.289101 -21.26362,0.981296 -5.4503,2.533063 -14.1547,9.413308 -16.28111,12.869116 -1.10007,1.787836 -3.08378,4.711092 -4.40821,6.496127 -6.00074,8.087583 -7.97908,19.790557 -7.02213,41.539832 0.36646,8.328754 0.9835,15.471334 1.37122,15.872414 0.38771,0.40107 3.3651,1.15763 6.61644,1.68124 7.58066,1.22083 10.19116,2.62017 14.92895,8.00259 2.86561,3.2555 3.85734,5.18338 3.85734,7.49845 0,3.95699 -1.28828,4.64904 -11.8542,6.36788 -4.56612,0.7428 -9.4823,1.96723 -10.92482,2.72092 -2.74706,1.4353 -13.53349,13.50075 -15.66672,17.52443 -0.68153,1.28548 -2.04995,4.87142 -3.04094,7.96875 -5.17625,16.17824 -5.47534,57.06527 -0.57611,78.75651 2.28605,10.12145 7.25659,18.52642 13.81476,23.36018 2.38798,1.76009 5.60741,4.55153 7.15428,6.20321 2.79034,2.97937 2.79403,2.99758 0.46875,2.31064 -8.77626,-2.59268 -17.14606,-9.09638 -22.25126,-17.2902 -1.78497,-2.86485 -4.08434,-6.40145 -5.10972,-7.8591 -1.02538,-1.45764 -2.22925,-5.04358 -2.67525,-7.96875 -0.44602,-2.92516 -1.28987,-8.06067 -1.87525,-11.41223 -1.24989,-7.15635 -0.37455,-54.47833 1.11853,-60.46875 1.80394,-7.23759 9.42523,-21.04472 14.57442,-26.40377 2.73486,-2.84633 4.73479,-5.55972 4.4443,-6.02975 -0.60275,-0.97527 -4.96182,-0.13145 -6.79427,1.31521 -0.67361,0.5318 -4.68142,1.03707 -8.90625,1.12281 -4.22482,0.0858 -20.97056,0.75263 -37.21275,1.48195 -16.24219,0.72933 -44.19151,1.32605 -62.10961,1.32605 -17.9181,0 -32.578252,0.21064 -32.578123,0.46809 1.28e-4,0.25745 1.289746,1.73401 2.865816,3.28125 4.496051,4.4138 9.273467,10.7468 11.626637,15.41242 3.08226,6.1112 5.9667,20.21034 6.91631,33.80699 1.06308,15.22122 -0.10091,39.36158 -2.16978,45 -0.85138,2.32031 -2.18177,6.32813 -2.95642,8.90625 -0.77465,2.57813 -1.64022,5.42578 -1.92349,6.32813 -0.4452,1.41819 0.14592,1.64062 4.35994,1.64062 7.69578,0 5.54392,2.21884 -2.85646,2.94536 -5.370917,0.46452 -8.809564,1.47407 -15.08968,4.43018 -8.472707,3.98817 -9.706498,4.97874 -8.880912,7.13018 0.395728,1.03125 1.159678,1.08705 3.797805,0.27738 4.569915,-1.40255 22.802487,0.39083 34.562047,3.39956 12.77488,3.2685 28.24407,9.08788 39.45602,14.84304 11.18585,5.74174 34.95439,21.42537 40.76163,26.89649 2.23465,2.10529 4.34402,3.83444 4.6875,3.84255 0.34349,0.008 4.26924,3.51177 8.72389,7.78593 10.00848,9.60294 13.5123,16.26525 15.03848,28.59481 1.241,10.02569 1.25242,6.70085 -0.11607,33.79136 -1.16925,23.14674 -0.79559,47.74164 0.84229,55.43816 0.49378,2.32031 1.41086,7.30438 2.03795,11.0757 0.89985,5.41174 2.08829,8.37565 5.63864,14.0625 6.44369,10.32131 12.7219,13.5506 19.51494,10.03777 z M 73.125,479.38993 c 1.133797,-0.3763 1.005888,-0.79348 -0.660195,-2.15321 -1.651353,-1.34772 -3.316592,-1.6135 -8.290023,-1.32309 -6.669384,0.38944 -9.799782,1.51798 -9.799782,3.5329 0,0.98906 1.84068,1.16584 8.671875,0.83285 4.769531,-0.2325 9.304687,-0.63274 10.078125,-0.88945 z m -18.740275,-5.71806 c 2.816174,-2.54591 2.836374,-2.63071 1.616792,-6.78788 -0.994773,-3.39085 -1.774598,-4.36626 -4.008889,-5.01428 -2.703311,-0.78407 -3.676007,-1.25199 -10.977003,-5.28049 -4.324003,-2.38587 -4.452183,-4.07215 -1.147481,-15.09588 1.302478,-4.34478 2.817607,-10.85272 3.366952,-14.46209 0.549346,-3.60938 1.802897,-9.50318 2.785669,-13.09735 2.262571,-8.27463 1.816636,-9.8714 -2.756809,-9.8714 -2.902448,0 -3.771457,0.48546 -5.200964,2.90542 -1.927294,3.26265 -6.472558,5.53208 -11.079755,5.53208 -3.520366,0 -3.317414,-1.04908 -3.672671,18.98437 -0.17696,9.97902 -0.0056,11.05165 3.183056,19.92188 1.853548,5.15625 3.870504,12.32812 4.482124,15.9375 1.324679,7.81736 2.379766,9.38017 3.725852,5.51879 2.141381,-6.14277 4.233901,-9.18108 6.778298,-9.84199 1.443581,-0.37496 2.82301,-0.26502 3.141555,0.2504 0.312349,0.50539 1.896396,0.8475 3.520104,0.76024 4.651586,-0.24999 5.295945,-0.0659 5.295945,1.51298 0,0.85484 -1.565784,2.09672 -3.701178,2.93553 -3.488517,1.37033 -6.479547,5.71458 -4.972271,7.22185 1.527422,1.52742 6.951849,0.38303 9.620674,-2.02968 z M 84.375,474.4477 c 0,-0.47563 -1.582031,-1.38415 -3.515625,-2.01892 -1.933594,-0.63477 -5.113349,-2.15925 -7.066124,-3.38773 -1.952774,-1.22848 -3.95668,-1.98256 -4.453125,-1.67575 -2.011577,1.24322 -0.662679,3.34867 3.550499,5.54183 4.381247,2.28065 11.484375,3.2335 11.484375,1.54057 z M 26.25,471.5625 c 0,-0.51563 -0.186039,-0.9375 -0.413422,-0.9375 -0.227382,0 -0.674154,0.42187 -0.992828,0.9375 -0.318674,0.51562 -0.132634,0.9375 0.413422,0.9375 0.546055,0 0.992828,-0.42188 0.992828,-0.9375 z m 38.499132,-0.97048 c 2.186059,-1.16995 2.286546,-2.8951 0.383043,-6.57608 -1.592492,-3.07953 -3.83192,-3.63793 -4.513113,-1.12532 -1.503443,5.54551 -1.592123,7.13418 -0.439053,7.86547 1.617663,1.02594 2.397907,0.99792 4.569123,-0.16407 z M 228.75,470.1189 c 0,-0.27835 -0.90201,-2.27417 -2.00445,-4.43514 -7.40888,-14.5226 -8.97473,-29.91489 -7.31779,-71.93376 1.61329,-40.91206 0.52137,-51.12531 -6.45356,-60.36354 -2.0505,-2.71587 -7.21304,-7.64744 -11.47233,-10.95907 -4.25929,-3.31162 -9.2576,-7.41954 -11.10739,-9.12871 -1.84978,-1.70915 -5.89448,-4.74915 -8.98823,-6.75554 -3.09375,-2.00639 -6.67969,-4.44901 -7.96875,-5.42805 -1.28906,-0.97904 -5.50781,-3.33834 -9.375,-5.24288 -3.86719,-1.90455 -9.77344,-4.86445 -13.125,-6.57756 -3.35156,-1.71311 -7.32758,-3.40675 -8.83559,-3.76365 -4.9758,-1.1776 -0.89115,2.09855 7.48837,6.00616 4.22339,1.96948 7.97038,4.05253 8.32665,4.629 0.35628,0.57648 2.2012,1.89027 4.0998,2.91955 13.64995,7.39997 29.36794,20.29245 39.40388,32.32054 8.19461,9.82125 9.39181,12.98738 5.76689,15.25118 -2.21026,1.38033 -2.6122,4.46649 -0.46875,3.59912 0.77344,-0.31298 1.97431,-0.80028 2.66861,-1.08288 1.4391,-0.58578 2.50153,19.47199 3.0067,56.76383 0.39649,29.27019 1.54351,40.02512 5.07316,47.56778 4.48846,9.59164 11.28278,19.5961 11.28278,16.61362 z M 25.3125,461.13935 c 0,-0.51563 -0.421875,-0.67677 -0.9375,-0.3581 -0.515625,0.31867 -0.9375,1.00128 -0.9375,1.5169 0,0.51563 0.421875,0.67677 0.9375,0.3581 0.515625,-0.31867 0.9375,-1.00128 0.9375,-1.5169 z m -3.75,-7.83576 c 0,-2.34477 -1.631737,-2.40824 -3.129907,-0.12174 -0.803002,1.22552 -1.215554,2.47269 -0.916783,2.77146 0.872226,0.87222 4.04669,-1.20637 4.04669,-2.64972 z m 149.97186,-24.92617 c -1.9524,-4.16846 -4.81842,-6.50242 -7.98472,-6.50242 -1.68479,0 -1.79584,1.50797 -0.15736,2.13671 1.1063,0.42453 3.05635,3.06307 7.77462,10.51954 1.77837,2.81043 1.77993,2.81082 2.11113,0.54456 0.18229,-1.24738 -0.60236,-4.26165 -1.74367,-6.69839 z m 19.05065,-0.66059 c 1.23327,-1.36274 1.33374,-2.40091 0.56391,-5.82718 -0.74882,-3.33274 -0.61864,-5.00191 0.64897,-8.32111 2.34863,-6.14978 3.05022,-10.01055 2.12091,-11.67112 -0.47997,-0.85766 -0.47093,-3.06399 0.0216,-5.25588 1.04212,-4.6381 -0.23306,-23.45739 -1.7949,-26.48956 -1.83859,-3.56945 -5.80566,-7.33948 -7.72309,-7.33948 -5.97824,0 -10.22816,6.94689 -8.42168,13.76604 0.52127,1.96774 1.10702,4.20051 1.30166,4.9617 0.22017,0.86103 -0.45054,1.50658 -1.775,1.70839 -1.70253,0.25943 -2.42183,-0.37668 -3.59153,-3.17617 -1.65967,-3.97216 -1.26059,-7.5158 1.56611,-13.90603 3.31225,-7.48788 7.44043,-8.73657 16.14968,-4.88492 3.60151,1.59275 5.32035,2.98182 6.09039,4.92187 2.47059,6.22438 3.25842,12.02765 2.73327,20.1334 -0.30176,4.65769 -0.17212,8.35072 0.29312,8.35072 1.26083,0 2.17821,-6.10763 2.25305,-15 0.0581,-6.91019 -0.26706,-8.60264 -2.44822,-12.74064 -9.75678,-18.51006 -27.52704,-14.06984 -30.35358,7.58439 -0.67688,5.18553 1.45024,13.01006 3.65138,13.43149 4.02577,0.77075 7.75709,-1.97577 7.4215,-5.46274 -0.17268,-1.79416 2.09357,-3.75 4.34517,-3.75 4.47345,0 5.93739,2.6757 6.00186,10.96984 0.0595,7.65303 -0.78237,10.29428 -4.5829,14.37835 -2.68432,2.88459 -5.03271,10.21712 -5.04651,15.75709 -0.0191,7.6627 6.42163,12.45085 10.57487,7.86155 z m 17.07124,-8.65433 c -0.31868,-0.51563 -0.97639,-0.9375 -1.46158,-0.9375 -0.4852,0 -0.88217,0.42187 -0.88217,0.9375 0,0.51562 0.65771,0.9375 1.46158,0.9375 0.80387,0 1.20085,-0.42188 0.88217,-0.9375 z m -45.40712,-0.97048 c 2.19648,-1.17552 2.35603,-4.24579 0.32611,-6.2757 -0.84783,-0.84784 -1.30678,-2.4313 -1.0675,-3.68304 0.49612,-2.59528 0.34435,-2.66395 -1.59702,-0.72256 -1.50358,1.50357 -1.89684,5.75675 -0.88232,9.5424 0.64675,2.41335 0.76274,2.45437 3.22073,1.1389 z m 6.29828,-11.84575 c -1.55551,-1.55551 -3.01055,-2.23064 -3.99409,-1.85322 -2.15488,0.82692 -0.86278,2.48195 1.93768,2.48195 1.27481,0 2.56766,0.65101 2.87299,1.44668 0.30533,0.79568 0.79706,1.20477 1.09274,0.9091 0.29568,-0.29568 -0.56352,-1.63871 -1.90932,-2.98451 z M 34.408493,403.87859 c 1.700329,-1.64802 3.08884,-3.44099 3.085579,-3.98437 -0.009,-1.49966 -5.433814,-4.26922 -8.362246,-4.26922 -4.873887,0 -8.02156,6.11027 -4.804781,9.32705 2.821639,2.82164 6.462736,2.43393 10.081448,-1.07346 z m 173.547337,-1.45672 c 0.32924,-2.31825 -1.52233,-2.85537 -3.39333,-0.98437 -1.871,1.871 -1.33388,3.72257 0.98437,3.39333 1.35559,-0.19253 2.21643,-1.05337 2.40896,-2.40896 z M 174.375,401.30316 c 0,-1.27572 -3.8768,-3.80316 -5.8336,-3.80316 -2.59465,0 -1.96819,1.38463 1.38047,3.05121 3.60901,1.79614 4.45313,1.93868 4.45313,0.75195 z M 44.986179,392.10937 c -0.02195,-4.09437 -1.996065,-6.94263 -6.743594,-9.72967 -10.45575,-6.13807 -17.032821,-6.35488 -21.776076,-0.71784 -3.220339,3.82715 -3.393319,9.27442 -0.294634,9.27825 1.160156,0.002 3.878495,-0.93442 6.040751,-2.07966 3.611225,-1.91268 4.361395,-1.99205 9.211885,-0.97465 3.441719,0.72191 6.409657,2.099 8.52312,3.95465 4.006974,3.51817 5.056267,3.57418 5.038548,0.26893 z M 159.375,390.9375 c 0,-0.51563 -0.86865,-0.9375 -1.93033,-0.9375 -1.06168,0 -1.6696,0.42187 -1.35092,0.9375 0.31868,0.51562 1.18732,0.9375 1.93033,0.9375 0.74301,0 1.35092,-0.42188 1.35092,-0.9375 z m 27.81016,-0.53177 c 1.00575,-2.62094 -1.14966,-3.45863 -2.31549,-0.89991 -0.89507,1.96448 -0.83766,2.36918 0.3361,2.36918 0.77856,0 1.66929,-0.66117 1.97939,-1.46927 z M 161.25,383.5828 c 0,-1.7772 -3.66265,-4.04938 -5.55782,-3.44788 -2.49751,0.79269 -2.66056,3.70913 -0.17096,3.05808 0.97417,-0.25476 2.34527,-0.0995 3.04687,0.34506 1.63239,1.03425 2.68191,1.05176 2.68191,0.0447 z m -11.72044,-16.56407 c 0.002,-1.56764 0.66101,-1.87399 4.16655,-1.93519 4.68809,-0.0819 5.76613,-1.45982 3.28604,-4.20028 -2.30226,-2.54398 -3.15735,-2.32036 -7.68528,2.00984 -4.03421,3.85804 -4.51216,4.70411 -3.32696,5.88931 1.24332,1.24332 3.55797,0.0965 3.55965,-1.76368 z M 11.25,361.0378 c 0,-1.88728 -2.4111455,-3.38316 -3.2542681,-2.01896 -0.788324,1.27553 0.5049159,3.79366 1.9483203,3.79366 0.7182708,0 1.3059478,-0.79862 1.3059478,-1.7747 z m 130.69792,-2.98473 c 2.80662,-3.33548 3.07482,-6.511 0.86575,-10.25065 -2.73454,-4.6292 -8.4982,-4.18979 -10.56737,0.80563 -1.54408,3.72774 -0.5857,5.30483 2.08634,3.43325 1.11213,-0.77896 2.98287,-1.4163 4.15721,-1.4163 1.75076,0 2.13515,0.50995 2.13515,2.8326 0,2.11167 -0.59651,3.10439 -2.34375,3.90048 -1.28906,0.58734 -2.34375,1.63298 -2.34375,2.32366 0,2.27014 3.53602,1.31198 6.01042,-1.62867 z m 63.93099,-1.54917 c -0.95299,-0.95298 -1.7393,0.48178 -0.95739,1.74692 0.59065,0.95571 0.81148,0.95645 1.12903,0.004 0.21712,-0.65136 0.13988,-1.43918 -0.17164,-1.7507 z m -39.47266,0.6836 c 0.32992,-0.53381 -0.47746,-0.9375 -1.875,-0.9375 -1.39754,0 -2.20492,0.40369 -1.875,0.9375 0.31868,0.51562 1.16243,0.9375 1.875,0.9375 0.71257,0 1.55632,-0.42188 1.875,-0.9375 z m 8.8791,-6.52588 c 0.7585,-0.47969 1.13453,-1.11674 0.83561,-1.41565 -0.85998,-0.85999 -11.13215,0.60246 -10.57409,1.50542 0.66789,1.08068 7.99453,1.01313 9.73848,-0.0898 z M 160.3125,345.0728 c 3.69255,-2.59589 5.09291,-6.20573 3.70614,-9.55367 -1.94779,-4.70241 -7.26361,-6.08761 -11.18282,-2.91403 l -2.05938,1.66758 3.59615,1.88746 c 4.75189,2.49404 5.49725,6.38589 1.54829,8.08426 -3.47514,1.49458 -3.3921,1.41307 -2.65461,2.60637 0.77201,1.24914 3.8423,0.47442 7.04623,-1.77797 z M 10.757175,344.10906 c 1.706738,-3.30047 1.845649,-5.67156 0.33227,-5.67156 -2.0855882,0 -4.526945,3.11189 -4.526945,5.7703 0,3.55239 2.335024,3.49742 4.194675,-0.0987 z M 121.6891,342.95423 c 0.22309,-1.1771 -0.48809,-1.65257 -2.80448,-1.875 -2.74834,-0.26389 -3.13721,-0.64967 -3.39918,-3.3722 -0.26106,-2.71294 0.0503,-3.19488 2.64915,-4.10085 1.91318,-0.66694 2.62468,-1.34691 2.03081,-1.94078 -1.45173,-1.45172 -4.302,-0.0386 -6.11593,3.0321 -1.79685,3.04183 -1.44932,5.81609 1.09062,8.70625 1.81635,2.06679 6.1282,1.77083 6.54901,-0.44952 z m -19.6703,-7.12169 c -0.26394,-3.46377 0.7448,-4.89504 3.44995,-4.89504 3.21483,0 3.70719,-1.55269 1.04542,-3.29675 -1.89362,-1.24075 -2.62588,-1.29784 -4.18191,-0.32609 -2.918204,1.82245 -3.987873,4.95095 -2.829207,8.2747 1.242407,3.56395 2.780097,3.71259 2.515747,0.24318 z m -71.254949,-0.44192 c 0.404497,-2.13294 -0.67598,-2.04657 -3.576351,0.28591 l -2.34375,1.88486 2.804483,-0.26507 c 1.791521,-0.16933 2.916864,-0.85765 3.115618,-1.90569 z m 153.209729,-1.44225 c 3.48593,-3.26345 3.91841,-5.18271 2.05345,-9.1128 -2.00087,-4.21652 -4.05206,-5.37515 -6.93188,-3.91552 -5.21051,2.64096 -4.9529,7.20495 0.40668,7.20495 3.02632,0 3.31067,0.23295 3.31067,2.7122 0,3.11947 -1.29578,3.8503 -6.82668,3.8503 -3.85905,0 -3.97864,1.24711 -0.20457,2.13324 2.83957,0.66673 5.35348,-0.21469 8.19233,-2.87237 z m -44.6931,1.57674 c 0.35264,-0.57057 -0.46621,-2.06421 -1.81966,-3.31919 -2.8566,-2.6488 -3.00235,-3.40191 -0.98266,-5.07809 1.23314,-1.02342 2.02104,-0.9344 4.75337,0.53706 2.80457,1.51036 3.39842,1.56911 4.1325,0.40884 1.43283,-2.26472 0.99518,-4.45342 -1.19763,-5.98932 -5.44459,-3.81355 -13.8539,0.36397 -13.8539,6.88224 0,3.61813 1.32932,6.08011 3.75,6.94524 2.3961,0.85634 4.54829,0.69681 5.21798,-0.38678 z m -46.155033,-8.87557 c 1.855087,-3.89014 2.011228,-7.3224 0.390178,-8.57672 -1.965825,-1.52109 -4.091412,-2.00078 -5.368462,-1.21152 -0.896881,0.55431 -0.393893,1.48315 1.925296,3.55534 2.867058,2.56172 3.042464,3.01766 2.022296,5.25668 -0.935082,2.05229 -1.73123,2.45168 -4.887156,2.45168 -3.93164,0 -4.888043,1.1562 -2.200521,2.66021 2.562094,1.43382 6.393122,-0.51779 8.118369,-4.13567 z m -76.384164,-1.26043 c 1.354192,-4.51988 1.343498,-4.76411 -0.208603,-4.76411 -2.091297,0 -6.22018,3.74805 -6.22018,5.64646 0,1.93014 2.530234,3.77801 4.262784,3.11317 0.60213,-0.23106 1.576829,-2.02905 2.165999,-3.99552 z m 10.446217,3.08985 c 0,-1.302 -0.236267,-1.3402 -1.640625,-0.26528 -0.902344,0.69066 -1.816406,1.37513 -2.03125,1.52104 -0.214843,0.1459 0.523438,0.26528 1.640625,0.26528 1.248688,0 2.03125,-0.586 2.03125,-1.52104 z m 53.549934,-5.48801 2.419803,-1.8528 -1.833983,-4.41306 c -1.889101,-4.54568 -3.411741,-5.81399 -5.854504,-4.87662 -2.042047,0.78361 -1.722726,2.03654 0.60738,2.3832 4.873949,0.72513 4.338172,8.26833 -0.587281,8.26833 -2.157145,0 -3.178751,1.6851 -1.835789,3.02806 0.808855,0.80886 4.388962,-0.47328 7.084374,-2.53711 z m -16.547755,-3.25642 c 0.638609,-1.03328 -2.714206,-3.085 -3.597664,-2.20155 C 60.266407,317.8586 60,318.6875 60,319.375 c 0,1.4235 3.354215,1.71134 4.189679,0.35953 z M 45.341542,314.3223 c -1.936174,-1.41577 -4.230165,-1.25346 -4.759584,0.33676 -0.195066,0.58593 0.93013,1.5132 2.500438,2.06061 1.570307,0.54741 2.912556,1.54458 2.982775,2.21594 0.07022,0.67135 0.321222,0.18959 0.557784,-1.07058 0.282701,-1.50596 -0.156475,-2.72015 -1.281413,-3.54273 z m 75.851818,2.03345 c -1.97817,-4.14826 -0.86658,-6.38607 3.38166,-6.80781 2.60233,-0.25836 3.10844,0.0735 3.99639,2.62073 0.55919,1.6041 1.4961,2.75885 2.08203,2.56613 1.70831,-0.56192 1.80706,-4.33477 0.1785,-6.82026 -1.22466,-1.86906 -2.2788,-2.28954 -5.73992,-2.28954 -5.82616,0 -9.3098,3.31668 -8.53012,8.12128 0.64472,3.97292 2.12733,5.94122 4.47523,5.94122 1.6724,0 1.67891,-0.13867 0.15623,-3.33175 z m -86.671946,-2.40073 c -0.35892,-3.74546 -2.921908,-4.75622 -4.514521,-1.7804 -0.880032,1.64435 -0.694321,2.35244 1.108621,4.22696 2.602478,2.7058 3.816102,1.83402 3.4059,-2.44656 z M 67.5,314.09051 c 0,-2.12206 -5.849711,-7.32262 -6.395364,-5.68567 -0.205029,0.61509 0.469036,1.70797 1.49792,2.42863 1.028886,0.72065 2.14221,2.39207 2.474057,3.71425 C 65.73935,317.18827 67.5,316.8561 67.5,314.09051 Z m -12.700362,0.759 c 2.560828,-1.16678 3.380164,-3.24339 0.904937,-2.29356 -0.81561,0.31298 -2.081235,0.56905 -2.8125,0.56905 -0.731266,0 -1.329575,0.63281 -1.329575,1.40625 0,1.6909 0.184684,1.70906 3.237138,0.31826 z M 155.625,315.11479 c 0,-0.45249 -0.63802,-1.35222 -1.41781,-1.99938 -2.08477,-1.73021 -0.0176,-3.74041 3.84641,-3.74041 2.46601,0 3.42808,0.55114 4.50042,2.57812 1.22785,2.32097 1.43206,2.40354 2.04734,0.82781 0.37589,-0.96268 0.29543,-2.8536 -0.17879,-4.20206 -1.8056,-5.1342 -11.39457,-5.18828 -13.51206,-0.0762 -1.4728,3.55565 -0.002,7.43483 2.81939,7.43483 1.0423,10e-6 1.8951,-0.37021 1.8951,-0.8227 z m -135,-5.38169 c 0,-0.77344 -0.421875,-1.14552 -0.9375,-0.82685 -0.515625,0.31867 -0.9375,1.21222 -0.9375,1.98565 0,0.77344 0.421875,1.14552 0.9375,0.82685 0.515625,-0.31867 0.9375,-1.21222 0.9375,-1.98565 z m 89.0625,-0.3581 c 0,-3.40114 -3.10162,-6.79053 -5.84359,-6.38577 -3.01886,0.44562 -2.91714,2.03498 0.21908,3.42321 1.61374,0.71431 3.05884,2.21336 3.38448,3.51082 0.79734,3.17682 2.24003,2.82372 2.24003,-0.54826 z m -62.651945,-2.48905 c 2.601631,-2.35444 2.052524,-3.1609 -1.086115,-1.59514 -3.231624,1.61215 -4.145237,1.23058 -6.740101,-2.81498 l -1.888688,-2.94458 0.571053,3.28125 c 0.921071,5.29243 5.528742,7.34508 9.143851,4.07345 z M 94.6875,302.63332 c 0,-2.68947 -3.521824,-5.599 -6.376899,-5.26824 -3.718125,0.43075 -3.878571,3.36302 -0.253168,4.62685 1.884601,0.65697 3.100937,1.84291 3.493234,3.40595 0.569016,2.26714 0.671045,2.30342 1.869349,0.66464 0.697118,-0.95336 1.267484,-2.4965 1.267484,-3.4292 z m 194.85672,-11.53957 c 0.55485,-2.57813 1.44852,-6.16406 1.98594,-7.96875 0.53741,-1.80469 1.18328,-11.29688 1.43527,-21.09375 0.78264,-30.42737 2.96696,-41.62091 19.83235,-101.63108 12.02296,-42.7799 15.3934,-59.70898 15.97587,-80.24392 0.26545,-9.358287 -0.0105,-13.384475 -1.18872,-17.34375 -0.84394,-2.835938 -1.60093,-6.437675 -1.6822,-8.00386 -0.21227,-4.090665 -8.00271,-16.054669 -14.36325,-22.058038 -3.10755,-2.933049 -8.62713,-6.739343 -12.85534,-8.865027 -7.125,-3.58201 -7.81926,-3.738096 -18.07502,-4.063658 -11.26884,-0.357721 -11.81944,-0.240857 -22.79662,4.838516 -8.55271,3.95752 -13.16292,8.263436 -19.26758,17.995817 -7.16133,11.417012 -8.27372,13.794619 -10.52687,22.5 -3.25843,12.589449 -3.91054,24.401952 -2.09607,37.96875 1.23739,9.25196 3.19711,13.125 6.64114,13.125 2.0361,0 3.01613,-2.43734 1.85351,-4.60972 -0.48903,-0.91376 -1.59588,-5.80752 -2.45967,-10.87503 -3.67489,-21.559097 1.39637,-43.667928 13.39554,-58.399666 5.12339,-6.290141 10.10971,-10.242634 18.20702,-14.432111 5.79874,-3.000222 6.29761,-3.08867 17.22173,-3.053393 9.45413,0.03053 12.04609,0.369168 16.23698,2.121358 12.89689,5.392111 21.88735,17.675776 26.03891,35.576968 3.05133,13.157056 1.16419,40.821524 -3.86165,56.609914 -0.76065,2.38952 -1.38299,5.28603 -1.38299,6.43668 0,1.15065 -0.67793,4.2581 -1.50653,6.90543 -0.82858,2.64732 -1.83937,6.07894 -2.24621,7.62582 -1.35978,5.17022 -5.86532,20.52012 -8.94326,30.46875 -1.67503,5.41406 -3.57174,12.49282 -4.21493,15.73057 -0.64319,3.23775 -1.53104,6.1103 -1.973,6.38345 -0.44196,0.27315 -0.80357,1.69236 -0.80357,3.15379 0,1.46144 -1.26644,7.6592 -2.81431,13.7728 -4.66772,18.43604 -6.72411,31.02643 -6.7537,41.35001 -0.0229,7.99439 -0.26896,9.60938 -1.46397,9.60938 -2.932,0 0.53535,-30.89146 5.42595,-48.34105 1.02081,-3.64227 1.85603,-7.55048 1.85603,-8.68491 0,-2.59676 3.01927,-14.18064 11.28237,-43.28654 3.21612,-11.32841 6.4234,-22.93464 8.29025,-30 2.98934,-11.3136 4.84062,-18.07919 5.79013,-21.16031 0.48799,-1.58349 0.88725,-4.82812 0.88725,-7.2103 0,-2.382174 0.42187,-4.591965 0.9375,-4.91064 0.53554,-0.330975 0.9375,-5.123054 0.9375,-11.176535 0,-16.831475 -4.77448,-33.323617 -12.09887,-41.792215 -2.0068,-2.320313 -3.88799,-3.987065 -4.18041,-3.703894 -0.29243,0.28317 0.6835,3.65817 2.16872,7.5 3.32516,8.601203 4.74168,16.207905 4.71561,25.322827 -0.0323,11.278905 -4.08402,41.789167 -6.34202,47.756067 -0.48781,1.28906 -1.18931,4.80634 -1.5589,7.81615 -0.36959,3.00983 -1.52145,8.06003 -2.5597,11.22268 -3.19966,9.74664 -6.39443,21.21835 -6.39443,22.96095 0,0.91243 -0.86675,4.125 -1.9261,7.13907 -1.05936,3.01406 -2.28641,7.21818 -2.72678,9.3425 -1.27617,6.15622 -8.28848,36.56552 -11.26755,48.8624 -1.499,6.1875 -3.15767,14.41406 -3.68593,18.28125 -2.2962,16.8095 -3.95082,25.2235 -6.21514,31.6049 l -2.41935,6.81835 6.58282,7.4704 c 3.62055,4.10872 7.75626,9.24358 9.19047,11.41082 l 2.60765,3.94044 1.07266,-6.01308 c 0.58996,-3.30719 1.52662,-8.12246 2.08147,-10.70058 z M 77.34375,305.625 c -0.318674,-0.51563 -1.187321,-0.9375 -1.930328,-0.9375 -0.743008,0 -1.350922,0.42187 -1.350922,0.9375 0,0.51562 0.868648,0.9375 1.930328,0.9375 1.061681,0 1.669596,-0.42188 1.350922,-0.9375 z m -20.77241,-6.79688 c -0.759513,-4.065 -2.19634,-5.54171 -2.19634,-2.2573 0,2.0609 1.466129,5.0845 2.554687,5.26852 0.116016,0.0196 -0.04524,-1.33543 -0.358347,-3.01121 z m 84.56,2.04855 c 0.92301,-1.49344 -0.37672,-7.17562 -2.01638,-8.81528 -2.42254,-2.42255 -4.86798,-1.67496 -7.49213,2.29039 -2.48229,3.751 -2.50073,6.58572 -0.0428,6.58572 0.72949,0 1.55571,-0.87713 1.83606,-1.94917 0.71406,-2.73059 4.75292,-2.12275 5.16479,0.77729 0.31804,2.23941 1.52753,2.76628 2.55051,1.11105 z m -60.279907,-3.79251 c -0.537123,-4.96615 -7.31685,-7.29309 -10.017023,-3.43806 -2.135813,3.0493 -1.853359,3.41582 2.212129,2.87052 3.037422,-0.40739 3.886219,-0.14869 4.914539,1.4979 1.576169,2.52386 3.207172,1.99886 2.890355,-0.93036 z m 38.143027,0.44566 c 2.50032,-3.17864 2.53232,-8.19054 0.068,-10.65482 -2.4073,-2.4073 -8.02429,-2.55016 -9.21533,-0.23438 -1.16441,2.26398 -0.36341,3.98438 1.85508,3.98438 2.64428,0 5.48525,1.70535 5.48525,3.29262 0,0.74341 -1.05469,2.04271 -2.34375,2.88734 -2.96645,1.94369 -2.99309,3.19504 -0.0681,3.19504 1.34185,0 3.07305,-1.01365 4.21875,-2.47018 z M 64.6875,291.5625 c 0,-0.51563 -1.029789,-0.9375 -2.288422,-0.9375 -1.258632,0 -2.549154,0.42187 -2.867828,0.9375 -0.338039,0.54696 0.615264,0.9375 2.288422,0.9375 1.577305,0 2.867828,-0.42188 2.867828,-0.9375 z m 36.3539,-1.45941 c 2.36553,-1.65689 2.74648,-5.26086 0.73274,-6.93211 -1.12192,-0.93112 -1.4577,-0.5516 -1.981278,2.23931 -0.346725,1.84823 -1.004465,3.5916 -1.461637,3.87414 -1.024725,0.63331 -1.0986,2.27807 -0.102328,2.27807 0.400903,0 1.666528,-0.65674 2.812503,-1.45941 z m -6.3539,-6.50934 c 0,-5.22364 -8.052441,-8.44171 -10.355472,-4.13845 -1.354368,2.53066 -0.47784,3.38694 1.471544,1.43756 2.643576,-2.64358 5.345585,-1.67404 6.927073,2.48559 1.212818,3.18996 1.956855,3.27182 1.956855,0.2153 z m 39.00362,-0.93647 c -2.92829,-2.2166 -19.31612,-7.0636 -19.31612,-5.7131 0,0.83607 6.46029,3.42893 13.125,5.26777 7.54448,2.08157 8.43758,2.14581 6.19112,0.44533 z M 69.375,280.78125 c 0,-1.695 0.503689,-2.34375 1.819672,-2.34375 2.249243,0 3.520314,-1.82983 1.946656,-2.80241 -2.896055,-1.78986 -7.190708,2.21014 -6.091467,5.67355 0.821634,2.58874 2.325139,2.24771 2.325139,-0.52739 z m 38.68972,-5.77119 c -0.63472,-0.2568 -1.90034,-0.27243 -2.8125,-0.0348 -0.91216,0.2377 -0.39284,0.44781 1.15403,0.46692 1.54688,0.0191 2.29318,-0.17537 1.65847,-0.43218 z M 151.875,129.88546 c 11.72091,-0.30272 83.35058,-2.99684 99.89544,-3.75725 9.95158,-0.45737 12.84651,-2.73693 6.74518,-5.31135 -3.47565,-1.46653 -38.95087,-1.39919 -75.23437,0.14282 -11.34375,0.4821 -36.44531,1.13219 -55.78125,1.44464 -19.33594,0.31246 -36.748015,0.97287 -38.693506,1.4676 -1.945491,0.49473 -3.922144,0.66162 -4.392561,0.3709 -1.413107,-0.87336 -14.45692,1.46878 -16.050253,2.88196 -0.814038,0.72199 -2.185131,1.31272 -3.046875,1.31272 -1.608301,0 -2.060383,1.06892 -0.930112,2.1992 0.577144,0.57714 53.725357,0.12078 87.488307,-0.75124 z m -37.96875,-9.25359 c 12.375,-0.6672 24.1875,-1.2056 26.25,-1.19642 2.0625,0.009 14.61011,-0.34035 27.88357,-0.77671 17.8853,-0.58797 24.39595,-1.10951 25.14695,-2.01442 1.50446,-1.81278 -4.47243,-2.68512 -10.11136,-1.47578 -4.25918,0.91342 -42.22068,1.60234 -71.9419,1.30557 -7.19689,-0.0719 -13.539601,0.24643 -14.094929,0.70731 -0.555328,0.46088 -3.493012,0.9672 -6.528191,1.12515 -7.679057,0.39961 -8.040041,2.82256 -0.51039,3.42574 0.773438,0.062 11.53125,-0.43324 23.90625,-1.10044 z m 106.17187,-4.05185 c 4.53365,-0.54456 4.921,-0.78425 4.91075,-3.03873 -0.007,-1.34615 -0.56321,-4.55691 -1.23799,-7.13504 -1.55844,-5.9544 -1.92387,-30.227197 -0.5575,-37.03125 0.5695,-2.835937 2.26366,-7.364703 3.76479,-10.063923 1.50113,-2.699221 2.72933,-5.511839 2.72933,-6.250263 0,-2.598304 6.77502,-14.200765 10.63089,-18.205786 11.4632,-11.906597 10.91067,-11.51336 21.37904,-15.215244 6.46694,-2.286873 9.27822,-2.762007 16.26361,-2.748717 8.80814,0.01675 18.57957,2.018544 25.3268,5.188487 3.66343,1.721127 14.45694,11.709863 17.67588,16.357946 2.14948,3.103817 1.70382,1.991118 -3.04619,-7.605494 -3.47156,-7.01372 -4.75681,-8.632873 -9.78513,-12.327332 -3.18376,-2.339198 -7.1559,-5.561257 -8.82699,-7.160131 C 297.55854,9.6731709 295.2672,8.4375 293.91478,8.4375 c -1.29375,0 -2.35228,-0.3621973 -2.35228,-0.8048829 0,-1.5947032 -13.72865,-3.1610755 -23.52277,-2.6838334 -20.45143,0.9965457 -33.40933,6.8771413 -48.18224,21.8662153 -5.2697,5.346809 -12.31128,17.164503 -14.13856,23.72834 -0.34635,1.244149 -1.30636,3.775399 -2.13337,5.625 -0.827,1.849601 -1.56351,4.417598 -1.63669,5.706661 -0.27994,4.93156 -2.40568,20.322777 -3.30179,23.90625 -1.07817,4.311502 -2.60605,26.39962 -1.99071,28.77893 0.28288,1.09377 1.6274,1.70219 4.29948,1.94559 7.08652,0.64551 14.13824,0.6729 19.12227,0.0743 z"
     id="path27190"
     inkscape:connector-curvature="0" />
</svg>
